<?xml version="1.0" encoding="utf-8"?>
<!-- Generator: Adobe Illustrator 16.0.0, SVG Export Plug-In . SVG Version: 6.00 Build 0)  -->
<!DOCTYPE svg PUBLIC "-//W3C//DTD SVG 1.1//EN" "http://www.w3.org/Graphics/SVG/1.1/DTD/svg11.dtd">
<svg version="1.1" id="Layer_1" xmlns="http://www.w3.org/2000/svg" xmlns:xlink="http://www.w3.org/1999/xlink" x="0px" y="0px"
	 width="150px" height="150px" viewBox="0 0 150 150" enable-background="new 0 0 150 150" xml:space="preserve">
<path fill="#6FB3D1" d="M45.99,103.52c3.844,3.273,8.224,6.28,13.017,8.938l0.806-1.456c-4.697-2.601-8.985-5.546-12.746-8.747
	L45.99,103.52z"/>
<path fill="#6FB3D1" d="M30.898,80.928l-1.521,0.673l0.317,0.703c2.096,4.54,4.779,8.831,7.979,12.754l1.289-1.052
	c-3.11-3.812-5.72-7.985-7.758-12.4L30.898,80.928z"/>
<path fill="#6FB3D1" d="M22.992,54.772c0.768,5.812,1.699,11.027,2.766,15.504l1.616-0.387c-1.054-4.419-1.973-9.578-2.735-15.335
	L22.992,54.772z"/>
<path fill="#6FB3D1" d="M22.408,27.3l-1.662,0.066c0.216,5.367,0.545,10.643,0.978,15.681l1.658-0.141
	C22.95,37.894,22.621,32.642,22.408,27.3z"/>
<path fill="#6FB3D1" d="M69.789,119.164c4.587,2.139,9.533,4.056,14.702,5.69l0.5-1.587c-5.101-1.614-9.979-3.5-14.501-5.609
	L69.789,119.164z"/>
<path fill="#6FB3D1" d="M96.215,127.008c9.216,1.604,15.654,1.79,15.721,1.791l0.041-1.662c-0.062-0.002-6.39-0.184-15.476-1.768
	L96.215,127.008z"/>
<rect x="89.139" y="27.551" transform="matrix(-0.9591 -0.283 0.283 -0.9591 185.7223 83.8865)" fill="#6FB3D1" width="19.562" height="1.956"/>
<path fill="#6FB3D1" d="M84.07,22.9c-0.662-0.191-1.359,0.188-1.556,0.849c-0.194,0.664,0.187,1.364,0.846,1.558
	c0.665,0.199,1.364-0.185,1.56-0.844C85.117,23.798,84.736,23.1,84.07,22.9z"/>
<path fill="#6FB3D1" d="M117.986,142.377h3.912V66.481l9.277-31.492c0.324-1.103,0.463-2.219,0.434-3.312
	c-0.123-4.536-3.128-8.695-7.707-10.052L77.936,8.062c-1.1-0.327-2.218-0.468-3.311-0.436c-4.537,0.121-8.699,3.128-10.053,7.707
	L44.521,83.029c-1.533-2.325-2.925-4.797-4.145-7.437c-2.155-4.659-3.845-11.05-5.106-17.962
	c-1.896-10.372-2.863-21.923-3.35-30.856c-0.241-4.47-0.365-8.287-0.427-10.982c-0.032-1.349-0.048-2.417-0.056-3.146
	c-0.01-0.729-0.01-1.114-0.01-1.114l-3.912,0.004c0,0.035,0.014,11.382,1.17,25.229c0.576,6.927,1.439,14.477,2.736,21.572
	c1.302,7.096,3.021,13.727,5.4,18.896c5.055,10.954,12.854,19.265,21.629,25.529c13.168,9.4,28.536,14.269,40.618,16.828
	c8.663,1.831,15.626,2.468,18.917,2.684V142.377z M85.621,111.907c-8.613-2.88-17.662-7.009-25.676-12.893
	c-5.229-3.841-10.01-8.424-13.977-13.895l20.479-69.234c1.102-3.735,4.52-6.207,8.23-6.305c0.891-0.024,1.805,0.088,2.706,0.356
	l45.964,13.562c3.738,1.103,6.21,4.521,6.31,8.229c0.021,0.892-0.093,1.804-0.358,2.707l-24.249,82.316
	C99.418,115.779,92.669,114.265,85.621,111.907z M106.996,117.073l10.99-37.31v38.59
	C115.738,118.198,111.871,117.847,106.996,117.073z"/>
</svg>
