<?xml version="1.0" encoding="utf-8"?>
<!-- Generator: Adobe Illustrator 18.0.0, SVG Export Plug-In . SVG Version: 6.00 Build 0)  -->
<!DOCTYPE svg PUBLIC "-//W3C//DTD SVG 1.1//EN" "http://www.w3.org/Graphics/SVG/1.1/DTD/svg11.dtd">
<svg version="1.1" id="Layer_1" xmlns="http://www.w3.org/2000/svg" xmlns:xlink="http://www.w3.org/1999/xlink" x="0px" y="0px"
	 viewBox="0 0 2045.6 753" enable-background="new 0 0 2045.6 753" xml:space="preserve">
<g>
	<linearGradient id="SVGID_1_" gradientUnits="userSpaceOnUse" x1="600.9054" y1="95.2993" x2="600.9054" y2="481.0134">
		<stop  offset="0.9" style="stop-color:#FFFFFF"/>
		<stop  offset="0.9" style="stop-color:#ED1C24"/>
	</linearGradient>
	<path fill="url(#SVGID_1_)" stroke="#000000" stroke-width="3" stroke-miterlimit="10" d="M431.2,481l339.8-0.6l-0.9-4
		c-0.2-1.8-0.4-3.6-0.5-5.3c-1-10.4-1.9-20.8-2.6-31.2c-1.8-24.9,1.4-50-5.2-74.6c-3.1-11.4-6.8-22.5-17.7-29.2
		c-8.3-5.1-16.7-10.2-25.5-14.5c-20-9.7-40.3-18.9-60.5-28.3c-10.7-5-15.9-13.4-16.7-24.5c-0.4-5.1-1.6-10.5-0.6-15.4
		c2.2-11.1-1.5-24.6,12.7-31.3c0.8-0.4,1.5-1.5,1.8-2.5c4-11,10.6-21.8,2.8-33.8c-0.8-1.3-0.6-3.4-0.5-5.1c0.9-10.8,2-21.5,3-32.2
		c2.2-22.8-23.8-48.2-47.3-52.2c-8.9-1.5-18.4-0.9-27.5-0.2c-32.3,2.3-58.6,38.5-51.2,68c1.5,6.1,3.4,13.4,1.3,18.9
		c-6.1,16.3-4.5,27.5,8.3,40.1c1.2,1.2,1.7,3.1,2.2,4.7c2.7,9.1,6.2,18.1,7.9,27.4c3,16.1,2.2,34.1-15.9,41.9
		c-5.8,2.5-11.3,5.8-17.1,8.5c-18.6,8.4-37.2,16.8-56,24.9c-10.3,4.5-18.5,10.9-21,21.8c-3.5,15.5-7.4,31.2-8.8,46.9
		c-1.6,17.3-3.4,52.4-4.3,71.4c-0.3,6.7-0.2,9.5-0.3,10.6L431.2,481z"/>
	<linearGradient id="SVGID_2_" gradientUnits="userSpaceOnUse" x1="1434.603" y1="95.2993" x2="1434.603" y2="481.0134">
		<stop  offset="0.8" style="stop-color:#FFFFFF"/>
		<stop  offset="0.8" style="stop-color:#ED1C24"/>
	</linearGradient>
	<path fill="url(#SVGID_2_)" stroke="#000000" stroke-width="3" stroke-miterlimit="10" d="M1264.9,481l339.8-0.6l-0.9-4
		c-0.2-1.8-0.4-3.6-0.5-5.3c-1-10.4-1.9-20.8-2.6-31.2c-1.8-24.9,1.4-50-5.2-74.6c-3.1-11.4-6.8-22.5-17.7-29.2
		c-8.3-5.1-16.7-10.2-25.5-14.5c-20-9.7-40.3-18.9-60.5-28.3c-10.7-5-15.9-13.4-16.7-24.5c-0.4-5.1-1.6-10.5-0.6-15.4
		c2.2-11.1-1.5-24.6,12.7-31.3c0.8-0.4,1.5-1.5,1.8-2.5c4-11,10.6-21.8,2.8-33.8c-0.8-1.3-0.6-3.4-0.5-5.1c0.9-10.8,2-21.5,3-32.2
		c2.2-22.8-23.8-48.2-47.3-52.2c-8.9-1.5-18.4-0.9-27.5-0.2c-32.3,2.3-58.6,38.5-51.2,68c1.5,6.1,3.4,13.4,1.3,18.9
		c-6.1,16.3-4.5,27.5,8.3,40.1c1.2,1.2,1.7,3.1,2.2,4.7c2.7,9.1,6.2,18.1,7.9,27.4c3,16.1,2.2,34.1-15.9,41.9
		c-5.8,2.5-11.3,5.8-17.1,8.5c-18.6,8.4-37.2,16.8-56,24.9c-10.3,4.5-18.5,10.9-21,21.8c-3.5,15.5-7.4,31.2-8.8,46.9
		c-1.6,17.3-3.4,52.4-4.3,71.4c-0.3,6.7-0.2,9.5-0.3,10.6L1264.9,481z"/>
	<linearGradient id="SVGID_3_" gradientUnits="userSpaceOnUse" x1="184.0566" y1="95.2992" x2="184.0566" y2="481.0133">
		<stop  offset="0.7" style="stop-color:#FFFFFF"/>
		<stop  offset="0.7" style="stop-color:#ED1C24"/>
	</linearGradient>
	<path fill="url(#SVGID_3_)" stroke="#000000" stroke-width="3" stroke-miterlimit="10" d="M14.3,481l339.8-0.6l-0.9-4
		c-0.2-1.8-0.4-3.6-0.5-5.3c-1-10.4-1.9-20.8-2.6-31.2c-1.8-24.9,1.4-50-5.2-74.6c-3.1-11.4-6.8-22.5-17.7-29.2
		c-8.3-5.1-16.7-10.2-25.5-14.5c-20-9.7-40.3-18.9-60.5-28.3c-10.7-5-15.9-13.4-16.7-24.5c-0.4-5.1-1.6-10.5-0.6-15.4
		c2.2-11.1-1.5-24.6,12.7-31.3c0.8-0.4,1.5-1.5,1.8-2.5c4-11,10.6-21.8,2.8-33.8c-0.8-1.3-0.6-3.4-0.5-5.1c0.9-10.8,2-21.5,3-32.2
		c2.2-22.8-23.8-48.2-47.3-52.2c-8.9-1.5-18.4-0.9-27.5-0.2c-32.3,2.3-58.6,38.5-51.2,68c1.5,6.1,3.4,13.4,1.3,18.9
		c-6.1,16.3-4.5,27.5,8.3,40.1c1.2,1.2,1.7,3.1,2.2,4.7c2.7,9.1,6.2,18.1,7.9,27.4c3,16.1,2.2,34.1-15.9,41.9
		c-5.8,2.5-11.3,5.8-17.1,8.5c-18.6,8.4-37.2,16.8-56,24.9c-10.3,4.5-18.5,10.9-21,21.8c-3.5,15.5-7.4,31.2-8.8,46.9
		c-1.6,17.3-3.4,52.4-4.3,71.4c-0.3,6.7-0.2,9.5-0.3,10.6L14.3,481z"/>
	<linearGradient id="SVGID_4_" gradientUnits="userSpaceOnUse" x1="1017.7543" y1="95.2993" x2="1017.7543" y2="481.0134">
		<stop  offset="0.15" style="stop-color:#FFFFFF"/>
		<stop  offset="0.15" style="stop-color:#FFFDFD"/>
		<stop  offset="0.15" style="stop-color:#FEF6F7"/>
		<stop  offset="0.15" style="stop-color:#FDEAEB"/>
		<stop  offset="0.15" style="stop-color:#FCDADB"/>
		<stop  offset="0.15" style="stop-color:#FAC4C6"/>
		<stop  offset="0.15" style="stop-color:#F8A8AB"/>
		<stop  offset="0.15" style="stop-color:#F6888C"/>
		<stop  offset="0.15" style="stop-color:#F36268"/>
		<stop  offset="0.15" style="stop-color:#EF3940"/>
		<stop  offset="0.15" style="stop-color:#ED1C24"/>
	</linearGradient>
	<path fill="url(#SVGID_4_)" stroke="#000000" stroke-width="3" stroke-miterlimit="10" d="M848,481l339.8-0.6l-0.9-4
		c-0.2-1.8-0.4-3.6-0.5-5.3c-1-10.4-1.9-20.8-2.6-31.2c-1.8-24.9,1.4-50-5.2-74.6c-3.1-11.4-6.8-22.5-17.7-29.2
		c-8.3-5.1-16.7-10.2-25.5-14.5c-20-9.7-40.3-18.9-60.5-28.3c-10.7-5-15.9-13.4-16.7-24.5c-0.4-5.1-1.6-10.5-0.6-15.4
		c2.2-11.1-1.5-24.6,12.7-31.3c0.8-0.4,1.5-1.5,1.8-2.5c4-11,10.6-21.8,2.8-33.8c-0.8-1.3-0.6-3.4-0.5-5.1c0.9-10.8,2-21.5,3-32.2
		c2.2-22.8-23.8-48.2-47.3-52.2c-8.9-1.5-18.4-0.9-27.5-0.2c-32.3,2.3-58.6,38.5-51.2,68c1.5,6.1,3.4,13.4,1.3,18.9
		c-6.1,16.3-4.5,27.5,8.3,40.1c1.2,1.2,1.7,3.1,2.2,4.7c2.7,9.1,6.2,18.1,7.9,27.4c3,16.1,2.2,34.1-15.9,41.9
		c-5.8,2.5-11.3,5.8-17.1,8.5c-18.6,8.4-37.2,16.8-56,24.9c-10.3,4.5-18.5,10.9-21,21.8c-3.5,15.5-7.4,31.2-8.8,46.9
		c-1.6,17.3-3.4,52.4-4.3,71.4c-0.3,6.7-0.2,9.5-0.3,10.6L848,481z"/>
	<linearGradient id="SVGID_5_" gradientUnits="userSpaceOnUse" x1="1851.4519" y1="95.2992" x2="1851.4519" y2="481.0132">
		<stop  offset="0.5" style="stop-color:#FFFFFF"/>
		<stop  offset="0.5" style="stop-color:#FFFDFD"/>
		<stop  offset="0.5" style="stop-color:#FEF6F7"/>
		<stop  offset="0.5" style="stop-color:#FDEAEB"/>
		<stop  offset="0.5" style="stop-color:#FCDADB"/>
		<stop  offset="0.5" style="stop-color:#FAC4C6"/>
		<stop  offset="0.5" style="stop-color:#F8A8AB"/>
		<stop  offset="0.5" style="stop-color:#F6888C"/>
		<stop  offset="0.5" style="stop-color:#F36268"/>
		<stop  offset="0.5" style="stop-color:#EF3940"/>
		<stop  offset="0.5" style="stop-color:#ED1C24"/>
	</linearGradient>
	<path fill="url(#SVGID_5_)" stroke="#000000" stroke-width="3" stroke-miterlimit="10" d="M1681.7,481l339.8-0.6l-0.9-4
		c-0.2-1.8-0.4-3.6-0.5-5.3c-1-10.4-1.9-20.8-2.6-31.2c-1.8-24.9,1.4-50-5.2-74.6c-3.1-11.4-6.8-22.5-17.7-29.2
		c-8.3-5.1-16.7-10.2-25.5-14.5c-20-9.7-40.3-18.9-60.5-28.3c-10.7-5-15.9-13.4-16.7-24.5c-0.4-5.1-1.6-10.5-0.6-15.4
		c2.2-11.1-1.5-24.6,12.7-31.3c0.8-0.4,1.5-1.5,1.8-2.5c4-11,10.6-21.8,2.8-33.8c-0.8-1.3-0.6-3.4-0.5-5.1c0.9-10.8,2-21.5,3-32.2
		c2.2-22.8-23.8-48.2-47.3-52.2c-8.9-1.5-18.4-0.9-27.5-0.2c-32.3,2.3-58.6,38.5-51.2,68c1.5,6.1,3.4,13.4,1.3,18.9
		c-6.1,16.3-4.5,27.5,8.3,40.1c1.2,1.2,1.7,3.1,2.2,4.7c2.7,9.1,6.2,18.1,7.9,27.4c3,16.1,2.2,34.1-15.9,41.9
		c-5.8,2.5-11.3,5.8-17.1,8.5c-18.6,8.4-37.2,16.8-56,24.9c-10.3,4.5-18.5,10.9-21,21.8c-3.5,15.5-7.4,31.2-8.8,46.9
		c-1.6,17.3-3.4,52.4-4.3,71.4c-0.3,6.7-0.2,9.5-0.3,10.6L1681.7,481z"/>
</g>
<g>
	<path fill="none" d="M1957.8,687.4H77.7c-35.1,0-63.7-3.5-63.7-7.7V545.3c0-4.2,28.7-7.7,63.7-7.7h1880c35.1,0,63.7,3.5,63.7,7.7
		v134.4C2021.5,683.9,1992.8,687.4,1957.8,687.4z"/>
	<text transform="matrix(1.039 0 0 1 445.8895 633.277)" fill="#FFFFFF" font-family="'HelveticaNeue-Thin'" font-size="134.0161">Individual Treatment</text>
</g>
</svg>
