<?xml version="1.0" encoding="utf-8"?>
<!-- Generator: Adobe Illustrator 18.0.0, SVG Export Plug-In . SVG Version: 6.00 Build 0)  -->
<!DOCTYPE svg PUBLIC "-//W3C//DTD SVG 1.1//EN" "http://www.w3.org/Graphics/SVG/1.1/DTD/svg11.dtd">
<svg version="1.1" id="Layer_1" xmlns="http://www.w3.org/2000/svg" xmlns:xlink="http://www.w3.org/1999/xlink" x="0px" y="0px"
	 viewBox="-14.2 5 90 90" enable-background="new -14.2 5 90 90" xml:space="preserve">
<path fill="#4667B1" d="M43.5,72.6H20.3c-0.4,0-0.8-0.1-1.1-0.3c-0.4-0.2-3.8-2.1-3.8-8.4c0-8.3-1.3-10.5-3.1-12.7
	C8.8,47,4.3,40.5,4.3,32.2c0-14.9,12.1-27,27-27h1.2c14.9,0,27,12.1,27,27c0,8.3-4.5,14.9-7.9,19.1c-1.8,2.2-3.1,4.5-3.1,12.7
	c0,6.3-3.5,8.2-3.9,8.4C44.3,72.5,43.9,72.6,43.5,72.6z M30.1,67.5h12.5c0.3-0.5,0.9-1.5,0.9-3.6c0-9,1.5-12.5,4.2-15.9
	c4.7-5.8,6.8-10.7,6.8-15.9c0-12.1-9.8-21.9-21.9-21.9h-1.2c-12.1,0-21.9,9.8-21.9,21.9c0,5.2,2.1,10.1,6.8,15.9
	c2.7,3.4,4.2,6.9,4.2,15.9c0,2,0.5,3.1,0.9,3.6C21.2,67.5,30.1,67.5,30.1,67.5z"/>
<path fill="#4667B1" d="M42.1,86.9c0,4.4-4.6,7.9-10.2,7.9c-4.3,0-7.9-2.1-9.4-5c-0.5-0.9-0.7-1.9-0.7-3"/>
<path fill="#4667B1" d="M19.8,84.5c-0.7,0-1.2-0.5-1.3-1.2c0-0.7,0.5-1.3,1.2-1.3l24.2-1.3c0.7,0,1.3,0.5,1.3,1.2
	c0,0.7-0.5,1.3-1.2,1.3L19.8,84.5C19.9,84.5,19.8,84.5,19.8,84.5z"/>
<path fill="#4667B1" d="M19.8,79.4c-0.7,0-1.2-0.5-1.3-1.2c0-0.7,0.5-1.3,1.2-1.3l24.2-1.3c0.7,0,1.3,0.5,1.3,1.2
	c0,0.7-0.5,1.3-1.2,1.3L19.8,79.4C19.9,79.4,19.8,79.4,19.8,79.4z"/>
</svg>
