<?xml version="1.0" encoding="utf-8"?>
<!-- Generator: Adobe Illustrator 16.0.0, SVG Export Plug-In . SVG Version: 6.00 Build 0)  -->
<!DOCTYPE svg PUBLIC "-//W3C//DTD SVG 1.1//EN" "http://www.w3.org/Graphics/SVG/1.1/DTD/svg11.dtd">
<svg version="1.1" id="Layer_1" xmlns="http://www.w3.org/2000/svg" xmlns:xlink="http://www.w3.org/1999/xlink" x="0px" y="0px"
	 width="150px" height="150px" viewBox="0 0 150 150" enable-background="new 0 0 150 150" xml:space="preserve">
<g opacity="0.9">
	<path fill="#6FB3D1" d="M118.299,70.203c-0.407,0.409-0.944,0.613-1.479,0.613c-0.534,0-1.072-0.204-1.479-0.613
		c-0.794-0.792-19.437-19.637-19.437-37.035c0-11.532,9.381-20.916,20.915-20.916c11.535,0,20.916,9.384,20.916,20.916
		C137.735,50.566,119.091,69.411,118.299,70.203z M116.819,16.435c-9.227,0-16.732,7.509-16.732,16.733
		c0,13.003,12.39,27.742,16.731,32.509c4.341-4.771,16.733-19.526,16.733-32.509C133.552,23.943,126.046,16.435,116.819,16.435z
		 M116.819,41.533c-4.614,0-8.366-3.749-8.366-8.365c0-4.612,3.752-8.367,8.366-8.367c4.613,0,8.366,3.755,8.366,8.367
		C125.186,37.784,121.433,41.533,116.819,41.533z M116.819,28.984c-2.306,0-4.183,1.879-4.183,4.184
		c0,2.308,1.877,4.184,4.183,4.184c2.307,0,4.184-1.876,4.184-4.184C121.003,30.863,119.126,28.984,116.819,28.984z M96.49,97.945
		c-0.295,0.898-1.109,1.467-1.99,1.467c-0.208,0-0.416-0.025-0.625-0.085c-1.108-0.355-1.716-1.528-1.383-2.64
		c0.358-1.088,1.526-1.712,2.617-1.356C96.216,95.666,96.825,96.839,96.49,97.945z M92.368,70.146c-0.061,0-0.125,0.024-0.189,0.024
		c-1.085,0-1.984-0.837-2.09-1.924c-0.104-1.152,0.752-2.157,1.903-2.26c1.152-0.105,2.152,0.752,2.259,1.899
		C94.356,69.039,93.521,70.045,92.368,70.146z M93.226,127.061c0.336,1.111-0.294,2.279-1.401,2.614
		c-0.188,0.065-0.396,0.106-0.605,0.106c-0.901,0-1.715-0.588-2.009-1.486c-0.334-1.111,0.294-2.281,1.399-2.616
		C91.698,125.345,92.87,125.953,93.226,127.061z M86.449,97.047c-0.188,0-0.396-0.04-0.604-0.085
		c-1.11-0.355-1.737-1.505-1.402-2.616c0.355-1.105,1.504-1.731,2.615-1.4c1.107,0.334,1.731,1.507,1.401,2.615
		C88.185,96.459,87.348,97.047,86.449,97.047z M84.4,71.384c-0.168,0.041-0.336,0.062-0.48,0.062c-0.964,0-1.822-0.651-2.05-1.609
		c-0.271-1.111,0.438-2.239,1.548-2.514c1.128-0.273,2.259,0.421,2.528,1.548C86.218,69.979,85.529,71.11,84.4,71.384z
		 M82.642,127.771c1.132-0.249,2.261,0.458,2.512,1.59c0.249,1.111-0.44,2.237-1.567,2.487c-0.168,0.04-0.315,0.065-0.462,0.065
		c-0.965,0-1.818-0.649-2.052-1.635C80.823,129.152,81.534,128.044,82.642,127.771z M78.605,94.118c-0.315,0-0.629-0.062-0.92-0.209
		c-1.024-0.502-1.464-1.761-0.963-2.806c0.522-1.021,1.78-1.463,2.805-0.939c1.045,0.503,1.461,1.761,0.961,2.781
		C80.133,93.701,79.378,94.118,78.605,94.118z M77.245,74.162c-0.333,0.209-0.729,0.315-1.107,0.315
		c-0.688,0-1.383-0.355-1.778-1.001c-0.606-0.965-0.29-2.26,0.689-2.869c0,0,0,0-0.02,0c0.979-0.628,2.278-0.314,2.886,0.671
		C78.523,72.262,78.229,73.537,77.245,74.162z M73.354,88.574c-0.332,0.213-0.71,0.315-1.085,0.315
		c-0.714,0-1.403-0.355-1.779-1.007c-0.604-0.979-0.292-2.278,0.69-2.883c0.985-0.588,2.279-0.294,2.866,0.707
		C74.653,86.695,74.338,87.966,73.354,88.574z M71.095,80.857c-0.163,0-0.331-0.02-0.499-0.062
		c-1.131-0.294-1.799-1.422-1.527-2.532c0.294-1.128,1.422-1.798,2.549-1.529c1.111,0.296,1.803,1.428,1.508,2.533
		C72.896,80.229,72.038,80.857,71.095,80.857z M66.915,134.842h-0.022c-0.083,0.017-0.188,0.017-0.271,0.017
		c-1.024,0-1.926-0.752-2.071-1.793c-0.167-1.132,0.63-2.198,1.777-2.365c1.132-0.146,2.198,0.649,2.361,1.797
		C68.84,133.63,68.043,134.694,66.915,134.842z M58.526,135.889c-0.084,0.016-0.167,0.016-0.23,0.016
		c-1.065,0-1.967-0.791-2.091-1.857c-0.125-1.153,0.711-2.174,1.859-2.301c1.153-0.147,2.178,0.691,2.303,1.842
		C60.494,134.736,59.677,135.761,58.526,135.889z M34.354,137.326c-0.122,0.086-0.231,0.185-0.367,0.24
		c-0.152,0.066-0.311,0.082-0.471,0.111c-0.102,0.021-0.191,0.069-0.298,0.069c-0.021,0-0.042,0-0.062,0
		c-0.27,0-0.54-0.054-0.792-0.155c-0.258-0.106-0.487-0.262-0.685-0.454c0-0.004-0.003-0.004-0.003-0.004
		c-0.793-0.792-19.436-19.638-19.436-37.036c0-11.531,9.382-20.915,20.915-20.915c11.532,0,20.916,9.384,20.916,20.915
		c0,17.398-18.645,36.244-19.437,37.036C34.552,137.221,34.445,137.257,34.354,137.326z M33.156,83.365
		c-9.227,0-16.732,7.51-16.732,16.732c0,13.004,12.39,27.742,16.729,32.511c4.343-4.772,16.735-19.527,16.735-32.511
		C49.889,90.875,42.382,83.365,33.156,83.365z M24.79,100.098c0-4.611,3.752-8.366,8.366-8.366c4.611,0,8.366,3.755,8.366,8.366
		c0,4.617-3.755,8.368-8.366,8.368C28.542,108.466,24.79,104.715,24.79,100.098z M33.156,104.281c2.308,0,4.184-1.874,4.184-4.184
		c0-2.303-1.876-4.182-4.184-4.182s-4.183,1.879-4.183,4.182C28.974,102.407,30.849,104.281,33.156,104.281z M41.438,133.168
		c1.15-0.083,2.152,0.796,2.217,1.945c0.086,1.15-0.796,2.156-1.968,2.217c-0.039,0-0.081,0-0.124,0
		c-1.087,0-2.006-0.837-2.071-1.948C39.408,134.214,40.287,133.232,41.438,133.168z M49.763,132.542
		c1.149-0.085,2.178,0.749,2.259,1.905c0.106,1.147-0.752,2.172-1.903,2.278c-0.064,0-0.103,0-0.168,0
		c-1.087,0-2.006-0.821-2.092-1.929C47.756,133.649,48.609,132.645,49.763,132.542z M74.526,129.426
		c1.149-0.209,2.219,0.543,2.426,1.671c0.211,1.147-0.562,2.239-1.692,2.427c-0.124,0.02-0.251,0.04-0.376,0.04
		c-0.982,0-1.861-0.711-2.049-1.732C72.645,130.7,73.398,129.613,74.526,129.426z M98.226,122.878c1.046-0.483,2.301,0,2.759,1.045
		c0.481,1.066,0,2.3-1.043,2.763c-0.294,0.126-0.588,0.188-0.857,0.188c-0.797,0-1.569-0.462-1.903-1.234
		C96.699,124.593,97.155,123.339,98.226,122.878z M100.546,69.815c-1.17,0-2.111-0.944-2.111-2.091c0-1.153,0.941-2.093,2.111-2.093
		c1.152,0,2.071,0.939,2.09,2.093C102.636,68.871,101.698,69.815,100.546,69.815z M100.42,99.412
		c0.545-1.028,1.802-1.426,2.824-0.883c1.026,0.523,1.424,1.777,0.901,2.808c-0.378,0.731-1.111,1.126-1.862,1.126
		c-0.336,0-0.671-0.064-0.965-0.228C100.293,101.713,99.896,100.434,100.42,99.412z M107.848,119.172
		c0.751,0.883,0.627,2.201-0.252,2.954c-0.398,0.311-0.879,0.481-1.341,0.481c-0.606,0-1.189-0.253-1.606-0.756
		c-0.756-0.879-0.63-2.197,0.249-2.949C105.796,118.171,107.115,118.294,107.848,119.172z M109.04,65.902
		c1.147,0.061,2.027,1.066,1.943,2.217c-0.064,1.107-0.982,1.965-2.071,1.965c-0.062,0-0.104,0-0.146,0
		c-1.152-0.081-2.029-1.066-1.946-2.214C106.885,66.719,107.888,65.837,109.04,65.902z M109.751,107.443
		c-0.355,0.225-0.755,0.335-1.152,0.335c-0.691,0-1.358-0.335-1.756-0.943c-0.626-0.96-0.355-2.259,0.607-2.885
		c0.96-0.648,2.256-0.379,2.905,0.605h-0.021C110.983,105.52,110.711,106.814,109.751,107.443z M110.733,111.562
		c1.15,0.127,1.966,1.172,1.819,2.32c-0.104,1.049-1.027,1.843-2.071,1.843c-0.081,0-0.167,0-0.253-0.021
		c-1.127-0.128-1.963-1.173-1.818-2.325C108.537,112.231,109.583,111.414,110.733,111.562z"/>
</g>
</svg>
