<?xml version="1.0" encoding="utf-8"?>
<!-- Generator: Adobe Illustrator 18.0.0, SVG Export Plug-In . SVG Version: 6.00 Build 0)  -->
<!DOCTYPE svg PUBLIC "-//W3C//DTD SVG 1.1//EN" "http://www.w3.org/Graphics/SVG/1.1/DTD/svg11.dtd">
<svg version="1.1" id="Layer_1" xmlns="http://www.w3.org/2000/svg" xmlns:xlink="http://www.w3.org/1999/xlink" x="0px" y="0px"
	 viewBox="0 0 288 288" enable-background="new 0 0 288 288" xml:space="preserve">
<g>
	<rect x="0" fill="#4768B1" width="288" height="288"/>
	<polygon opacity="0.64" fill="#253D8F" points="144.6,263.8 168.9,288 288,288 288,103.3 241.9,57 	"/>
	<path fill="#FFFFFF" d="M48.7,92.5c0.2,3.2,0.3,6.2,0.5,9c0.1,2.8,0.4,7,0.8,12.6c0.4,5.6,0.7,8.9,0.8,10c0.1,1.1,0.5,3.4,1.2,6.9
		c0.7,3.5,1.2,6.1,1.6,8c0.3,1.4,0.8,3.5,1.5,6.1h89.5V26.3H144l-3.6,1.9c-2.4,1.3-4.4,2.3-6,3.1c-1.6,0.8-3.2,1.6-4.9,2.4
		c-1.7,0.8-3.5,1.7-5.6,2.6c-2,1-3.1,1.4-3.3,1.5c-0.2,0-1.4,0.5-3.7,1.6c-2.3,1-4.7,2-7.4,3c-2.6,1-4.4,1.7-5.2,2
		c-0.9,0.3-1.8,0.6-2.7,0.9c-1,0.3-2.3,0.7-4,1.3s-3.7,1.2-6.1,1.8c-2.4,0.7-5.1,1.3-8.4,2.1c-3.2,0.7-5.8,1.3-7.8,1.6
		c-2,0.3-5.2,0.9-9.7,1.7c-4.5,0.8-7.9,1.3-10.1,1.7c-2.2,0.3-4,0.6-5.2,0.8c-1.3,0.2-2,0.4-2.3,0.6L47.5,57v4.5
		c0,3,0.2,8.1,0.5,15.3C48.3,84.1,48.5,89.3,48.7,92.5z"/>
	<path fill="#253270" d="M240.8,92.5c-0.2,3.2-0.3,6.2-0.5,9c-0.1,2.8-0.4,7-0.8,12.6c-0.4,5.6-0.7,8.9-0.8,10
		c-0.1,1.1-0.5,3.4-1.2,6.9c-0.7,3.5-1.2,6.1-1.6,8c-0.3,1.4-0.8,3.5-1.5,6.1h-89.5V26.3h0.8l3.6,1.9c2.4,1.3,4.4,2.3,6,3.1
		c1.6,0.8,3.2,1.6,4.9,2.4c1.7,0.8,3.5,1.7,5.6,2.6c2,1,3.1,1.4,3.3,1.5c0.2,0,1.4,0.5,3.7,1.6c2.3,1,4.7,2,7.4,3
		c2.6,1,4.4,1.7,5.2,2c0.9,0.3,1.8,0.6,2.7,0.9c1,0.3,2.3,0.7,4,1.3c1.7,0.6,3.7,1.2,6.1,1.8c2.4,0.7,5.1,1.3,8.4,2.1
		c3.2,0.7,5.8,1.3,7.8,1.6c2,0.3,5.2,0.9,9.7,1.7c4.5,0.8,7.9,1.3,10.1,1.7c2.2,0.3,4,0.6,5.2,0.8c1.3,0.2,2,0.4,2.3,0.6l0.4,0.2
		v4.5c0,3-0.2,8.1-0.5,15.3C241.2,84.1,240.9,89.3,240.8,92.5z"/>
	<g>
		<path fill="#253270" d="M97.6,99.8c-0.9,1.3-2.1,2.4-3.4,3.4c-1.3,1-2.9,1.8-4.8,2.4c-1.8,0.6-4,0.9-6.4,0.9c-3,0-5.7-0.5-8.1-1.6
			c-2.3-1.1-4.3-2.5-5.9-4.4c-1.6-1.9-2.8-4.1-3.6-6.7c-0.8-2.6-1.2-5.4-1.2-8.4c0-3.3,0.5-6.2,1.4-8.8c0.9-2.6,2.2-4.8,3.9-6.6
			c1.7-1.8,3.6-3.2,5.9-4.2c2.3-1,4.8-1.5,7.6-1.5c2.5,0,4.7,0.3,6.5,0.8c1.8,0.5,3.4,1.3,4.7,2.3c1.3,1,2.4,2.3,3.3,3.8
			c0.9,1.5,1.7,3.2,2.4,5.1l-10.3,4c-0.4-0.9-0.7-1.8-1.1-2.6c-0.4-0.8-0.8-1.4-1.3-2c-0.5-0.5-1.1-0.9-1.8-1.2
			C84.8,74.2,84,74,83,74c-1.2,0-2.2,0.3-3,0.8c-0.9,0.6-1.6,1.3-2.1,2.3c-0.6,1-1,2.2-1.2,3.5c-0.3,1.4-0.4,2.9-0.4,4.5
			c0,1.6,0.1,3,0.4,4.4c0.3,1.4,0.7,2.6,1.2,3.6c0.6,1,1.3,1.8,2.1,2.4c0.9,0.6,1.9,0.9,3.2,0.9c0.9,0,1.7-0.1,2.3-0.4
			c0.7-0.2,1.3-0.6,1.8-1.1c0.5-0.5,1.1-1.1,1.6-1.8c0.5-0.7,1-1.6,1.6-2.5l9.6,5.1C99.4,97.2,98.6,98.5,97.6,99.8z"/>
		<path fill="#253270" d="M120.5,119c-3.1,3.1-7.7,4.7-13.6,4.7c-2.8,0-5.4-0.5-7.7-1.4c-2.3-0.9-4.3-2.3-6-4.1
			c-1.7-1.8-2.9-4-3.9-6.6c-0.9-2.6-1.4-5.6-1.4-9c0-3,0.4-5.9,1.2-8.4c0.8-2.6,2-4.8,3.7-6.7c1.6-1.9,3.6-3.3,6-4.4
			c2.4-1.1,5.1-1.6,8.2-1.6c2.6,0,4.8,0.2,6.6,0.7c1.8,0.5,3.4,1.2,4.7,2.1c1.3,1,2.4,2.2,3.3,3.6c0.9,1.4,1.7,3.1,2.5,5l-10.3,4
			c-0.7-1.8-1.5-3.1-2.5-4.1c-1-1-2.5-1.5-4.4-1.5c-1.3,0-2.5,0.3-3.4,0.8c-0.9,0.6-1.7,1.3-2.2,2.3c-0.5,1-0.9,2.2-1.2,3.5
			c-0.3,1.4-0.4,2.9-0.4,4.5c0,4.1,0.7,7,2,8.8c1.3,1.8,3.3,2.7,5.9,2.7c1.2,0,2.2-0.1,3-0.4c0.8-0.3,1.5-0.6,2-1.1
			c0.5-0.5,0.9-1,1.2-1.6c0.3-0.6,0.5-1.3,0.6-2h-7.4v-8.5h18v5C125.2,111.4,123.6,115.9,120.5,119z"/>
	</g>
	<path fill="#FFFFFF" d="M144.7,145v118.7l0.1,0l0.8-0.2c0.5-0.1,1.1-0.3,1.7-0.7c0.6-0.3,1.6-0.8,3.1-1.6c1.4-0.7,2.3-1.2,2.5-1.4
		c0.2-0.2,0.8-0.6,1.7-1.1c0.9-0.6,1.6-1,2-1.3c0.5-0.3,1.4-0.8,2.7-1.6c1.3-0.8,2.2-1.4,2.7-1.7c0.5-0.3,1-0.7,1.6-1.1
		c0.5-0.4,1.2-0.9,1.9-1.5c0.7-0.6,1.6-1.3,2.8-2.3c1.2-1,2.2-1.8,3-2.5c0.8-0.7,2.1-1.8,3.7-3.3c1.6-1.5,2.7-2.4,3.1-2.7
		c0.5-0.4,1.5-1.2,3-2.6c1.5-1.4,2.4-2.1,2.6-2.3c0.2-0.2,0.9-0.9,2.3-2.3c1.4-1.4,2.3-2.4,2.9-2.9c0.5-0.6,1.7-1.9,3.6-3.9
		c1.9-2,3-3.3,3.3-3.7c0.4-0.5,0.9-1.1,1.6-2c0.7-0.9,1.3-1.6,1.7-2.2c0.4-0.5,0.8-1.1,1.2-1.7c0.4-0.6,0.8-1.2,1.3-1.8
		c0.5-0.6,0.9-1.2,1.2-1.7c0.4-0.5,0.7-0.9,0.9-1.3c0.3-0.4,0.6-0.9,1.1-1.5c0.5-0.6,0.8-1.2,1.2-1.7c0.3-0.5,0.8-1.2,1.3-2
		c0.5-0.8,1-1.4,1.2-1.9c0.3-0.5,0.7-1.2,1.4-2.2c0.6-1,1-1.7,1.2-2c0.2-0.4,0.7-1.3,1.6-2.8c0.9-1.5,1.5-2.5,1.8-2.9
		c0.3-0.5,1-1.7,2.1-3.8c1.1-2,2-3.6,2.5-4.6c0.6-1,1.1-2,1.5-2.9c0.4-0.9,1-2.3,1.8-4.1c0.8-1.8,1.2-2.8,1.2-2.8c0,0,0.4-1,1.2-3
		c0.8-2,1.4-3.5,1.8-4.6c0.4-1.1,1-2.9,1.8-5.2c0.8-2.3,1.6-4.8,2.4-7.4c0.8-2.6,1.7-5.8,2.6-9.5c0.2-0.8,0.4-1.5,0.6-2.2H144.7z"/>
	<path fill="#253270" d="M55.2,145c0.2,0.7,0.4,1.4,0.6,2.2c1,3.7,1.8,6.9,2.6,9.5c0.8,2.6,1.6,5.1,2.4,7.4c0.8,2.3,1.4,4,1.8,5.2
		c0.4,1.1,1,2.7,1.8,4.6c0.8,2,1.2,3,1.2,3c0,0,0.4,1,1.2,2.8c0.8,1.8,1.4,3.2,1.8,4.1c0.4,0.9,0.9,1.9,1.5,2.9
		c0.6,1,1.4,2.6,2.5,4.6c1.1,2,1.8,3.3,2.1,3.8c0.3,0.5,0.9,1.4,1.8,2.9c0.9,1.5,1.4,2.4,1.6,2.8c0.2,0.4,0.6,1,1.2,2
		c0.6,1,1.1,1.7,1.4,2.2c0.3,0.5,0.7,1.1,1.2,1.9c0.5,0.8,1,1.5,1.3,2c0.3,0.5,0.7,1.1,1.2,1.7c0.5,0.6,0.8,1.1,1.1,1.5
		c0.3,0.4,0.6,0.8,0.9,1.3c0.4,0.5,0.8,1.1,1.2,1.7c0.5,0.6,0.9,1.2,1.3,1.8c0.4,0.6,0.8,1.2,1.2,1.7c0.4,0.5,1,1.3,1.7,2.2
		c0.7,0.9,1.3,1.6,1.6,2c0.4,0.5,1.5,1.7,3.3,3.7c1.9,2,3.1,3.3,3.6,3.9c0.5,0.6,1.5,1.6,2.9,2.9c1.4,1.4,2.1,2.1,2.3,2.3
		c0.2,0.2,1,0.9,2.6,2.3c1.5,1.4,2.5,2.2,3,2.6c0.5,0.4,1.5,1.3,3.1,2.7c1.6,1.5,2.9,2.5,3.7,3.3c0.8,0.7,1.9,1.6,3,2.5
		c1.2,1,2.1,1.8,2.8,2.3c0.7,0.6,1.3,1.1,1.9,1.5c0.5,0.4,1.1,0.8,1.6,1.1c0.5,0.3,1.4,0.9,2.7,1.7c1.3,0.8,2.2,1.3,2.7,1.6
		c0.5,0.3,1.1,0.7,2,1.3c0.9,0.6,1.4,1,1.7,1.1c0.2,0.2,1,0.6,2.5,1.4c1.4,0.7,2.5,1.3,3.1,1.6c0.6,0.3,1.2,0.5,1.7,0.7l0.8,0.2
		l0.1,0V145H55.2z"/>
</g>
</svg>
