<?xml version="1.0" encoding="utf-8"?>
<!-- Generator: Adobe Illustrator 18.0.0, SVG Export Plug-In . SVG Version: 6.00 Build 0)  -->
<!DOCTYPE svg PUBLIC "-//W3C//DTD SVG 1.1//EN" "http://www.w3.org/Graphics/SVG/1.1/DTD/svg11.dtd">
<svg version="1.1" id="Layer_1" xmlns="http://www.w3.org/2000/svg" xmlns:xlink="http://www.w3.org/1999/xlink" x="0px" y="0px"
	 viewBox="0 0 90 90" enable-background="new 0 0 90 90" xml:space="preserve">
<g>
	<path fill="#4667B1" d="M44.9,85.8L43.7,85C41.9,83.9,0,57.8,0,29.4C0,15.1,11.6,3.5,25.9,3.5c7.3,0,14.2,3.1,19.1,8.5
		c4.9-5.4,11.8-8.5,19.1-8.5C78.4,3.5,90,15.1,90,29.4C90,58.3,48,83.9,46.2,85L44.9,85.8z M25.9,8.3c-11.6,0-21,9.4-21,21
		c0,23.2,33.2,46.2,40.1,50.7c7-4.5,40.2-27.1,40.2-50.7c0-11.6-9.4-21-21-21c-6.8,0-13.2,3.3-17.2,8.9L45,20l-2-2.8
		C39.1,11.7,32.7,8.3,25.9,8.3z"/>
</g>
</svg>
