<?xml version="1.0" encoding="utf-8"?>
<!-- Generator: Adobe Illustrator 18.0.0, SVG Export Plug-In . SVG Version: 6.00 Build 0)  -->
<!DOCTYPE svg PUBLIC "-//W3C//DTD SVG 1.1//EN" "http://www.w3.org/Graphics/SVG/1.1/DTD/svg11.dtd">
<svg version="1.1" id="Layer_1" xmlns="http://www.w3.org/2000/svg" xmlns:xlink="http://www.w3.org/1999/xlink" x="0px" y="0px"
	 viewBox="0 0 1154 904" enable-background="new 0 0 1154 904" xml:space="preserve">
<g>
	<g>
		<g>
			<g>
				<g>
					<linearGradient id="SVGID_1_" gradientUnits="userSpaceOnUse" x1="206.6178" y1="17.3273" x2="206.6178" y2="889.2585">
						<stop  offset="0.75" style="stop-color:#FFFFFF"/>
						<stop  offset="0.87" style="stop-color:#ED1C24"/>
					</linearGradient>
					<path fill="url(#SVGID_1_)" stroke="#000000" stroke-width="3" stroke-miterlimit="10" d="M131.5,877.4c-5-4.2-10-8.2-12.1-15
						c-2.2-7-0.3-13.3,2.6-19.3c2.5-5.1,6.5-9.6,9.5-14.4c6.3-10,12.1-20.2,12.1-32.8c0-7.1,2.3-14.2,2.3-21.4
						c0-6.6-1.6-13.2-2.4-19.9c-2.3-19.7-5-39.4-6.8-59.2c-1.6-17.8,2.1-35.2,4.1-52.8c1.9-16.8,2.2-33.7-1.9-50.5
						c-3.6-15-5.5-30.5-7.7-45.9c-3-21.3-6.5-42.5-8.1-63.9c-1.9-24.8-2.4-49.9,4.9-74.2c0.9-2.9,1.8-6,1.7-9
						c-0.2-16.9,3-33.4,5.6-50c2.7-16.8,1.9-33.9-2-50.8c-1.6,7-3.5,14-4.8,21.1c-1.6,8.8-2.4,17.8-4.2,26.6c-1.5,7-3.6,14-6.2,20.6
						c-12.4,32.3-25.2,64.5-37.7,96.8c-1.7,4.3-2.2,9.1-2.8,13.7c-1.2,9.3-2.6,18.6-2.7,27.9c-0.1,7.9,1.5,15.7,2.1,23.6
						c0.2,3.4,2.8,8.9-2.7,9.4c-4.5,0.4-3.2-5.5-4-8.7c-1.5-5.4-2.5-10.8-3.7-16.2c-0.5-0.1-1-0.2-1.5-0.3c-0.5,1.8-1.3,3.5-1.5,5.3
						c-0.4,7.4-0.7,14.8-1,22.2c-0.1,1.4,0.3,3.2-0.4,4.3c-1,1.5-2.8,2.5-4.3,3.7c-0.9-1.5-2.4-3-2.5-4.5
						c-0.3-6.8-0.1-13.6-0.1-20.4c-0.6,0-1.2,0-1.8,0c0,7.3,0.1,14.5-0.1,21.8c-0.1,2.6,0.2,6-3.8,6c-3.9,0-3.9-3.3-3.9-6
						c-0.2-6.8-0.1-13.7-0.1-20.5c-0.5,0-1.1,0-1.6,0c0,4.8,0.3,9.7-0.2,14.4c-0.2,1.7-2.4,3.2-3.7,4.8c-1.3-1.6-3.7-3.3-3.6-4.9
						c0.2-11.4,0.9-22.7,1.5-34.1c0.1-2.7,0.5-5.4,0.8-9.6c-3,2.5-4.9,4.8-7.3,5.9c-4.1,1.8-8.6,3-13,4.1c-0.7,0.2-1.8-1.3-2.8-2
						c0.6-0.8,1.1-1.7,1.9-2.3c3.8-3.5,7.8-6.8,11.6-10.4c5.5-5.2,10.7-10.7,16.4-15.7c4.7-4.1,7.4-8.8,9.2-14.8
						c10.2-34.2,14.4-69.6,21.8-104.3c1.4-6.5,3.2-13.1,6-19.1c7.1-15.1,8.9-31.2,10.1-47.4c1.5-19.6,1.7-39.3,3.4-58.9
						c1-11.1,3.6-22,5.9-32.9c1.7-7.7,7.2-12.2,14.2-15.3c12.7-5.7,25.3-11.6,37.8-17.4c3.9-1.8,7.6-4.2,11.6-5.9
						c12.2-5.5,12.8-18.1,10.7-29.4c-1.2-6.5-3.5-12.8-5.3-19.2c-0.3-1.2-0.7-2.5-1.5-3.3c-8.6-8.8-9.7-16.7-5.6-28.1
						c1.4-3.8,0.1-9-0.9-13.2c-4.9-20.7,12.8-46.1,34.6-47.7c6.2-0.5,12.5-0.9,18.6,0.2c15.9,2.8,33.4,20.6,31.9,36.6
						c-0.7,7.5-1.4,15.1-2,22.6c-0.1,1.2-0.3,2.7,0.3,3.6c5.3,8.4,0.8,16-1.9,23.7c-0.2,0.7-0.7,1.5-1.2,1.7
						c-9.6,4.7-7.1,14.2-8.6,22c-0.7,3.5,0.2,7.2,0.4,10.8c0.5,7.8,4.1,13.7,11.3,17.2c13.6,6.6,27.3,13.1,40.9,19.9
						c5.9,3,11.6,6.5,17.2,10.1c7.4,4.8,9.9,12.5,12,20.5c4.5,17.3,2.3,34.9,3.5,52.3c1.4,20.7,3.5,41.4,6.5,61.9
						c1.2,8.2,6.3,15.8,8.2,24c4.2,18.4,8.5,37,10.9,55.7c2.7,21.7,9.5,42.2,16.3,62.7c1,2.9,3.3,5.5,5.4,7.9c7.9,9.1,16,18.1,24,27
						c1.3,1.5,3.1,2.5,4.4,3.9c0.7,0.8,1.6,2.3,1.3,3.1c-0.3,0.8-2.1,1.7-2.9,1.5c-3.5-1.1-7.1-2.3-10.3-4c-2.1-1.1-3.7-3.2-6.8-4.5
						c0.9,6.1,2.1,12.2,2.7,18.3c0.6,7,0.9,14.1,0.8,21.1c0,1.7-2.4,3.3-3.7,4.9c-1.2-1.6-3.3-3-3.6-4.7c-1-6.3-1.5-12.7-3.1-19
						c-0.4,8.4-0.9,16.7-1.2,25.1c-0.1,3-0.5,5.8-4,5.9c-3.7,0.1-3.8-3-3.8-5.9c0-8.8,0-17.6,0-26.4c-0.6,0-1.2,0-1.8,0
						c-0.5,8.2-0.9,16.5-1.7,24.7c-0.2,1.8-1.9,4.7-3.3,4.9c-3.5,0.6-3.8-2.4-3.8-5.1c0.1-8,0.3-15.9,0.4-23.9c0-1.9,0-3.8,0-5.7
						c-0.4,0-0.9,0-1.3,0c-0.8,6.4-1.4,12.9-2.5,19.3c-0.3,1.6-1.9,2.9-2.9,4.3c-1.1-1.4-2.4-2.8-3.4-4.3c-0.4-0.7-0.4-1.8-0.2-2.7
						c4-19-4.4-37.2-3.5-56c0.2-3.8-2.3-7.9-3.9-11.7c-13.6-34.2-27.3-68.4-40.8-102.6c-1.3-3.3-1.7-7-2.3-10.5
						c-2.6-14.3-5.1-28.7-7.6-43.1c-0.8-4.6-1.4-9.3-2.8-14.1c-1.5,8.5-2.8,17-4.4,25.5c-3.3,17.3,0.9,34.1,3.4,51.1
						c1.5,10.3,1,21,2.7,31.3c2,12.4,5.9,24.4,8.2,36.7c4.5,24.1,4.9,48.4,1.8,72.8c-2.6,20.8-4.1,41.7-6.4,62.6
						c-0.8,7.5-2.2,15-3.6,22.4c-3.3,18.2-4.3,36.4,0.8,54.3c6.5,22.8,7.4,45.8,5.4,69.2c-1.9,22.7-2.7,45.5-3.4,68.2
						c-0.2,5.2,3,10.5,3,15.8c0,12.6,7.8,21.7,12.9,32c2.6,5.3,6.6,9.9,9.7,15c4.7,7.5,5.8,14.6,0.6,23.1c-3,4.9-4.8,10.9-10,13.6
						c-4.9,2.5-10.7,4.1-16.2,4.3c-2.5,0.1-6.5-3.9-7.4-6.8c-2.6-8.4-4.1-17.1-5.9-25.7c-0.9-4.2-1.3-8.5-2.2-12.7
						c-2.1-9.5-3.7-19.1-6.7-28.4c-2.7-8.3-1.7-16.4-1.6-24.8c0.2-12.7-2.1-25.5-4.4-38.1c-2.5-13.3-6.9-26.2-9.4-39.4
						c-2.1-11.5-2.7-23.3-3.9-34.9c-0.3-3.1-0.3-6.2-0.2-9.2c0.3-11.2-1.8-21.7-6.9-31.9c-4.4-8.8-6.2-18.3-6.3-28.3
						c-0.2-24.7-5.4-48.7-11.1-72.7c-1.5-6.3-2.3-12.8-3.7-19.1c-0.7-3.2-1.2-6.8-6-7.1c-4.7-0.3-6,2.9-6.7,6.3
						c-2.5,12.5-5.6,25.1-6.9,37.7c-2.1,19.9-2.8,40-4.7,59.9c-0.7,7.6-2.6,15.3-5.2,22.5c-3.2,8.7-5.7,17.3-4.2,26.4
						c4.4,26.5-1,52-7,77.7c-2.5,10.9-3.4,22.1-4.9,33.2c-0.3,2.1-0.7,4.5,0,6.5c5.6,16.3-2.1,31.7-3.1,47.5
						c-1,15.2-5.9,30.2-9.5,45.1c-0.6,2.6-3,5.8-5.4,6.9L131.5,877.4z"/>
				</g>
				<g>
					<linearGradient id="SVGID_2_" gradientUnits="userSpaceOnUse" x1="15.9509" y1="453.2929" x2="397.2847" y2="453.2929">
						<stop  offset="0.75" style="stop-color:#FFFFFF;stop-opacity:0"/>
						<stop  offset="0.87" style="stop-color:#ED1C24"/>
					</linearGradient>
					<path fill="url(#SVGID_2_)" stroke="#000000" stroke-width="3" stroke-miterlimit="10" d="M131.5,877.4c-5-4.2-10-8.2-12.1-15
						c-2.2-7-0.3-13.3,2.6-19.3c2.5-5.1,6.5-9.6,9.5-14.4c6.3-10,12.1-20.2,12.1-32.8c0-7.1,2.3-14.2,2.3-21.4
						c0-6.6-1.6-13.2-2.4-19.9c-2.3-19.7-5-39.4-6.8-59.2c-1.6-17.8,2.1-35.2,4.1-52.8c1.9-16.8,2.2-33.7-1.9-50.5
						c-3.6-15-5.5-30.5-7.7-45.9c-3-21.3-6.5-42.5-8.1-63.9c-1.9-24.8-2.4-49.9,4.9-74.2c0.9-2.9,1.8-6,1.7-9
						c-0.2-16.9,3-33.4,5.6-50c2.7-16.8,1.9-33.9-2-50.8c-1.6,7-3.5,14-4.8,21.1c-1.6,8.8-2.4,17.8-4.2,26.6c-1.5,7-3.6,14-6.2,20.6
						c-12.4,32.3-25.2,64.5-37.7,96.8c-1.7,4.3-2.2,9.1-2.8,13.7c-1.2,9.3-2.6,18.6-2.7,27.9c-0.1,7.9,1.5,15.7,2.1,23.6
						c0.2,3.4,2.8,8.9-2.7,9.4c-4.5,0.4-3.2-5.5-4-8.7c-1.5-5.4-2.5-10.8-3.7-16.2c-0.5-0.1-1-0.2-1.5-0.3c-0.5,1.8-1.3,3.5-1.5,5.3
						c-0.4,7.4-0.7,14.8-1,22.2c-0.1,1.4,0.3,3.2-0.4,4.3c-1,1.5-2.8,2.5-4.3,3.7c-0.9-1.5-2.4-3-2.5-4.5
						c-0.3-6.8-0.1-13.6-0.1-20.4c-0.6,0-1.2,0-1.8,0c0,7.3,0.1,14.5-0.1,21.8c-0.1,2.6,0.2,6-3.8,6c-3.9,0-3.9-3.3-3.9-6
						c-0.2-6.8-0.1-13.7-0.1-20.5c-0.5,0-1.1,0-1.6,0c0,4.8,0.3,9.7-0.2,14.4c-0.2,1.7-2.4,3.2-3.7,4.8c-1.3-1.6-3.7-3.3-3.6-4.9
						c0.2-11.4,0.9-22.7,1.5-34.1c0.1-2.7,0.5-5.4,0.8-9.6c-3,2.5-4.9,4.8-7.3,5.9c-4.1,1.8-8.6,3-13,4.1c-0.7,0.2-1.8-1.3-2.8-2
						c0.6-0.8,1.1-1.7,1.9-2.3c3.8-3.5,7.8-6.8,11.6-10.4c5.5-5.2,10.7-10.7,16.4-15.7c4.7-4.1,7.4-8.8,9.2-14.8
						c10.2-34.2,14.4-69.6,21.8-104.3c1.4-6.5,3.2-13.1,6-19.1c7.1-15.1,8.9-31.2,10.1-47.4c1.5-19.6,1.7-39.3,3.4-58.9
						c1-11.1,3.6-22,5.9-32.9c1.7-7.7,7.2-12.2,14.2-15.3c12.7-5.7,25.3-11.6,37.8-17.4c3.9-1.8,7.6-4.2,11.6-5.9
						c12.2-5.5,12.8-18.1,10.7-29.4c-1.2-6.5-3.5-12.8-5.3-19.2c-0.3-1.2-0.7-2.5-1.5-3.3c-8.6-8.8-9.7-16.7-5.6-28.1
						c1.4-3.8,0.1-9-0.9-13.2c-4.9-20.7,12.8-46.1,34.6-47.7c6.2-0.5,12.5-0.9,18.6,0.2c15.9,2.8,33.4,20.6,31.9,36.6
						c-0.7,7.5-1.4,15.1-2,22.6c-0.1,1.2-0.3,2.7,0.3,3.6c5.3,8.4,0.8,16-1.9,23.7c-0.2,0.7-0.7,1.5-1.2,1.7
						c-9.6,4.7-7.1,14.2-8.6,22c-0.7,3.5,0.2,7.2,0.4,10.8c0.5,7.8,4.1,13.7,11.3,17.2c13.6,6.6,27.3,13.1,40.9,19.9
						c5.9,3,11.6,6.5,17.2,10.1c7.4,4.8,9.9,12.5,12,20.5c4.5,17.3,2.3,34.9,3.5,52.3c1.4,20.7,3.5,41.4,6.5,61.9
						c1.2,8.2,6.3,15.8,8.2,24c4.2,18.4,8.5,37,10.9,55.7c2.7,21.7,9.5,42.2,16.3,62.7c1,2.9,3.3,5.5,5.4,7.9c7.9,9.1,16,18.1,24,27
						c1.3,1.5,3.1,2.5,4.4,3.9c0.7,0.8,1.6,2.3,1.3,3.1c-0.3,0.8-2.1,1.7-2.9,1.5c-3.5-1.1-7.1-2.3-10.3-4c-2.1-1.1-3.7-3.2-6.8-4.5
						c0.9,6.1,2.1,12.2,2.7,18.3c0.6,7,0.9,14.1,0.8,21.1c0,1.7-2.4,3.3-3.7,4.9c-1.2-1.6-3.3-3-3.6-4.7c-1-6.3-1.5-12.7-3.1-19
						c-0.4,8.4-0.9,16.7-1.2,25.1c-0.1,3-0.5,5.8-4,5.9c-3.7,0.1-3.8-3-3.8-5.9c0-8.8,0-17.6,0-26.4c-0.6,0-1.2,0-1.8,0
						c-0.5,8.2-0.9,16.5-1.7,24.7c-0.2,1.8-1.9,4.7-3.3,4.9c-3.5,0.6-3.8-2.4-3.8-5.1c0.1-8,0.3-15.9,0.4-23.9c0-1.9,0-3.8,0-5.7
						c-0.4,0-0.9,0-1.3,0c-0.8,6.4-1.4,12.9-2.5,19.3c-0.3,1.6-1.9,2.9-2.9,4.3c-1.1-1.4-2.4-2.8-3.4-4.3c-0.4-0.7-0.4-1.8-0.2-2.7
						c4-19-4.4-37.2-3.5-56c0.2-3.8-2.3-7.9-3.9-11.7c-13.6-34.2-27.3-68.4-40.8-102.6c-1.3-3.3-1.7-7-2.3-10.5
						c-2.6-14.3-5.1-28.7-7.6-43.1c-0.8-4.6-1.4-9.3-2.8-14.1c-1.5,8.5-2.8,17-4.4,25.5c-3.3,17.3,0.9,34.1,3.4,51.1
						c1.5,10.3,1,21,2.7,31.3c2,12.4,5.9,24.4,8.2,36.7c4.5,24.1,4.9,48.4,1.8,72.8c-2.6,20.8-4.1,41.7-6.4,62.6
						c-0.8,7.5-2.2,15-3.6,22.4c-3.3,18.2-4.3,36.4,0.8,54.3c6.5,22.8,7.4,45.8,5.4,69.2c-1.9,22.7-2.7,45.5-3.4,68.2
						c-0.2,5.2,3,10.5,3,15.8c0,12.6,7.8,21.7,12.9,32c2.6,5.3,6.6,9.9,9.7,15c4.7,7.5,5.8,14.6,0.6,23.1c-3,4.9-4.8,10.9-10,13.6
						c-4.9,2.5-10.7,4.1-16.2,4.3c-2.5,0.1-6.5-3.9-7.4-6.8c-2.6-8.4-4.1-17.1-5.9-25.7c-0.9-4.2-1.3-8.5-2.2-12.7
						c-2.1-9.5-3.7-19.1-6.7-28.4c-2.7-8.3-1.7-16.4-1.6-24.8c0.2-12.7-2.1-25.5-4.4-38.1c-2.5-13.3-6.9-26.2-9.4-39.4
						c-2.1-11.5-2.7-23.3-3.9-34.9c-0.3-3.1-0.3-6.2-0.2-9.2c0.3-11.2-1.8-21.7-6.9-31.9c-4.4-8.8-6.2-18.3-6.3-28.3
						c-0.2-24.7-5.4-48.7-11.1-72.7c-1.5-6.3-2.3-12.8-3.7-19.1c-0.7-3.2-1.2-6.8-6-7.1c-4.7-0.3-6,2.9-6.7,6.3
						c-2.5,12.5-5.6,25.1-6.9,37.7c-2.1,19.9-2.8,40-4.7,59.9c-0.7,7.6-2.6,15.3-5.2,22.5c-3.2,8.7-5.7,17.3-4.2,26.4
						c4.4,26.5-1,52-7,77.7c-2.5,10.9-3.4,22.1-4.9,33.2c-0.3,2.1-0.7,4.5,0,6.5c5.6,16.3-2.1,31.7-3.1,47.5
						c-1,15.2-5.9,30.2-9.5,45.1c-0.6,2.6-3,5.8-5.4,6.9L131.5,877.4z"/>
				</g>
				<g>
					<linearGradient id="SVGID_3_" gradientUnits="userSpaceOnUse" x1="15.9509" y1="453.2929" x2="397.2847" y2="453.2929">
						<stop  offset="0.13" style="stop-color:#ED1C24"/>
						<stop  offset="0.25" style="stop-color:#FFFFFF;stop-opacity:0"/>
					</linearGradient>
					<path fill="url(#SVGID_3_)" stroke="#000000" stroke-width="3" stroke-miterlimit="10" d="M131.5,877.4c-5-4.2-10-8.2-12.1-15
						c-2.2-7-0.3-13.3,2.6-19.3c2.5-5.1,6.5-9.6,9.5-14.4c6.3-10,12.1-20.2,12.1-32.8c0-7.1,2.3-14.2,2.3-21.4
						c0-6.6-1.6-13.2-2.4-19.9c-2.3-19.7-5-39.4-6.8-59.2c-1.6-17.8,2.1-35.2,4.1-52.8c1.9-16.8,2.2-33.7-1.9-50.5
						c-3.6-15-5.5-30.5-7.7-45.9c-3-21.3-6.5-42.5-8.1-63.9c-1.9-24.8-2.4-49.9,4.9-74.2c0.9-2.9,1.8-6,1.7-9
						c-0.2-16.9,3-33.4,5.6-50c2.7-16.8,1.9-33.9-2-50.8c-1.6,7-3.5,14-4.8,21.1c-1.6,8.8-2.4,17.8-4.2,26.6c-1.5,7-3.6,14-6.2,20.6
						c-12.4,32.3-25.2,64.5-37.7,96.8c-1.7,4.3-2.2,9.1-2.8,13.7c-1.2,9.3-2.6,18.6-2.7,27.9c-0.1,7.9,1.5,15.7,2.1,23.6
						c0.2,3.4,2.8,8.9-2.7,9.4c-4.5,0.4-3.2-5.5-4-8.7c-1.5-5.4-2.5-10.8-3.7-16.2c-0.5-0.1-1-0.2-1.5-0.3c-0.5,1.8-1.3,3.5-1.5,5.3
						c-0.4,7.4-0.7,14.8-1,22.2c-0.1,1.4,0.3,3.2-0.4,4.3c-1,1.5-2.8,2.5-4.3,3.7c-0.9-1.5-2.4-3-2.5-4.5
						c-0.3-6.8-0.1-13.6-0.1-20.4c-0.6,0-1.2,0-1.8,0c0,7.3,0.1,14.5-0.1,21.8c-0.1,2.6,0.2,6-3.8,6c-3.9,0-3.9-3.3-3.9-6
						c-0.2-6.8-0.1-13.7-0.1-20.5c-0.5,0-1.1,0-1.6,0c0,4.8,0.3,9.7-0.2,14.4c-0.2,1.7-2.4,3.2-3.7,4.8c-1.3-1.6-3.7-3.3-3.6-4.9
						c0.2-11.4,0.9-22.7,1.5-34.1c0.1-2.7,0.5-5.4,0.8-9.6c-3,2.5-4.9,4.8-7.3,5.9c-4.1,1.8-8.6,3-13,4.1c-0.7,0.2-1.8-1.3-2.8-2
						c0.6-0.8,1.1-1.7,1.9-2.3c3.8-3.5,7.8-6.8,11.6-10.4c5.5-5.2,10.7-10.7,16.4-15.7c4.7-4.1,7.4-8.8,9.2-14.8
						c10.2-34.2,14.4-69.6,21.8-104.3c1.4-6.5,3.2-13.1,6-19.1c7.1-15.1,8.9-31.2,10.1-47.4c1.5-19.6,1.7-39.3,3.4-58.9
						c1-11.1,3.6-22,5.9-32.9c1.7-7.7,7.2-12.2,14.2-15.3c12.7-5.7,25.3-11.6,37.8-17.4c3.9-1.8,7.6-4.2,11.6-5.9
						c12.2-5.5,12.8-18.1,10.7-29.4c-1.2-6.5-3.5-12.8-5.3-19.2c-0.3-1.2-0.7-2.5-1.5-3.3c-8.6-8.8-9.7-16.7-5.6-28.1
						c1.4-3.8,0.1-9-0.9-13.2c-4.9-20.7,12.8-46.1,34.6-47.7c6.2-0.5,12.5-0.9,18.6,0.2c15.9,2.8,33.4,20.6,31.9,36.6
						c-0.7,7.5-1.4,15.1-2,22.6c-0.1,1.2-0.3,2.7,0.3,3.6c5.3,8.4,0.8,16-1.9,23.7c-0.2,0.7-0.7,1.5-1.2,1.7
						c-9.6,4.7-7.1,14.2-8.6,22c-0.7,3.5,0.2,7.2,0.4,10.8c0.5,7.8,4.1,13.7,11.3,17.2c13.6,6.6,27.3,13.1,40.9,19.9
						c5.9,3,11.6,6.5,17.2,10.1c7.4,4.8,9.9,12.5,12,20.5c4.5,17.3,2.3,34.9,3.5,52.3c1.4,20.7,3.5,41.4,6.5,61.9
						c1.2,8.2,6.3,15.8,8.2,24c4.2,18.4,8.5,37,10.9,55.7c2.7,21.7,9.5,42.2,16.3,62.7c1,2.9,3.3,5.5,5.4,7.9c7.9,9.1,16,18.1,24,27
						c1.3,1.5,3.1,2.5,4.4,3.9c0.7,0.8,1.6,2.3,1.3,3.1c-0.3,0.8-2.1,1.7-2.9,1.5c-3.5-1.1-7.1-2.3-10.3-4c-2.1-1.1-3.7-3.2-6.8-4.5
						c0.9,6.1,2.1,12.2,2.7,18.3c0.6,7,0.9,14.1,0.8,21.1c0,1.7-2.4,3.3-3.7,4.9c-1.2-1.6-3.3-3-3.6-4.7c-1-6.3-1.5-12.7-3.1-19
						c-0.4,8.4-0.9,16.7-1.2,25.1c-0.1,3-0.5,5.8-4,5.9c-3.7,0.1-3.8-3-3.8-5.9c0-8.8,0-17.6,0-26.4c-0.6,0-1.2,0-1.8,0
						c-0.5,8.2-0.9,16.5-1.7,24.7c-0.2,1.8-1.9,4.7-3.3,4.9c-3.5,0.6-3.8-2.4-3.8-5.1c0.1-8,0.3-15.9,0.4-23.9c0-1.9,0-3.8,0-5.7
						c-0.4,0-0.9,0-1.3,0c-0.8,6.4-1.4,12.9-2.5,19.3c-0.3,1.6-1.9,2.9-2.9,4.3c-1.1-1.4-2.4-2.8-3.4-4.3c-0.4-0.7-0.4-1.8-0.2-2.7
						c4-19-4.4-37.2-3.5-56c0.2-3.8-2.3-7.9-3.9-11.7c-13.6-34.2-27.3-68.4-40.8-102.6c-1.3-3.3-1.7-7-2.3-10.5
						c-2.6-14.3-5.1-28.7-7.6-43.1c-0.8-4.6-1.4-9.3-2.8-14.1c-1.5,8.5-2.8,17-4.4,25.5c-3.3,17.3,0.9,34.1,3.4,51.1
						c1.5,10.3,1,21,2.7,31.3c2,12.4,5.9,24.4,8.2,36.7c4.5,24.1,4.9,48.4,1.8,72.8c-2.6,20.8-4.1,41.7-6.4,62.6
						c-0.8,7.5-2.2,15-3.6,22.4c-3.3,18.2-4.3,36.4,0.8,54.3c6.5,22.8,7.4,45.8,5.4,69.2c-1.9,22.7-2.7,45.5-3.4,68.2
						c-0.2,5.2,3,10.5,3,15.8c0,12.6,7.8,21.7,12.9,32c2.6,5.3,6.6,9.9,9.7,15c4.7,7.5,5.8,14.6,0.6,23.1c-3,4.9-4.8,10.9-10,13.6
						c-4.9,2.5-10.7,4.1-16.2,4.3c-2.5,0.1-6.5-3.9-7.4-6.8c-2.6-8.4-4.1-17.1-5.9-25.7c-0.9-4.2-1.3-8.5-2.2-12.7
						c-2.1-9.5-3.7-19.1-6.7-28.4c-2.7-8.3-1.7-16.4-1.6-24.8c0.2-12.7-2.1-25.5-4.4-38.1c-2.5-13.3-6.9-26.2-9.4-39.4
						c-2.1-11.5-2.7-23.3-3.9-34.9c-0.3-3.1-0.3-6.2-0.2-9.2c0.3-11.2-1.8-21.7-6.9-31.9c-4.4-8.8-6.2-18.3-6.3-28.3
						c-0.2-24.7-5.4-48.7-11.1-72.7c-1.5-6.3-2.3-12.8-3.7-19.1c-0.7-3.2-1.2-6.8-6-7.1c-4.7-0.3-6,2.9-6.7,6.3
						c-2.5,12.5-5.6,25.1-6.9,37.7c-2.1,19.9-2.8,40-4.7,59.9c-0.7,7.6-2.6,15.3-5.2,22.5c-3.2,8.7-5.7,17.3-4.2,26.4
						c4.4,26.5-1,52-7,77.7c-2.5,10.9-3.4,22.1-4.9,33.2c-0.3,2.1-0.7,4.5,0,6.5c5.6,16.3-2.1,31.7-3.1,47.5
						c-1,15.2-5.9,30.2-9.5,45.1c-0.6,2.6-3,5.8-5.4,6.9L131.5,877.4z"/>
				</g>
			</g>
			<g>
				<path fill="#ED1C24" stroke="#000000" stroke-miterlimit="10" d="M193.5,222.9c-0.2,0.5-0.5,1-0.6,1.5c-0.3,0.8-0.6,1.7-0.9,2.6
					c-0.1,0.3-0.1,0.6-0.3,0.8c-0.4,0.6-0.5,1.2-0.6,1.9c-0.3,1.6-0.3,3.1-0.2,4.7c0.1,1.7,0.3,3.3,0.5,5c0.1,0.7,0.2,1.3,0.4,1.9
					c0.3,0.9,0.7,1.7,1.1,2.6c0.1,0.2,0.1,0.5,0.1,0.8c0,1.1,0,2.1,0,3.2c0.1,1.6,0.2,3.2,0.3,4.8c0,2.2,0,4.3-0.1,6.5
					c0,0.7,0.4,1,0.9,1.3c1,0.5,2,0.5,3,0.4c0.9,0,1.8-0.3,2.6-0.6c0.3-0.1,0.6-0.4,0.6-0.7c0-0.7,0-1.4,0-2.2
					c0-0.6-0.1-1.1-0.1-1.7c0.3,0.3,0.6,0.5,0.9,0.8c0.8,0.7,1.6,1.3,2.6,1.6c0.4,0.1,0.8,0.3,1.2,0.5c0.2,0.1,0.4,0.2,0.7,0.3
					c0.7,0.3,1.3,0.5,2,0.7c1.6,0.5,3.2,1.1,4.8,1.6c0.7,0.2,0.8,0.2,0.7,1c0,0.1,0,0.3,0,0.4c0,0.4,0.1,0.9,0.1,1.3
					c0,0.7,0,1.5,0,2.2c0,0.9,0.3,1.3,1.2,1.5c0.8,0.2,1.6,0.4,2.5,0.5c1,0.1,2,0.3,3.1,0c0.6-0.1,1.2-0.2,1.8-0.4
					c0.3-0.1,0.6-0.2,0.9-0.4c0.4-0.3,0.4-0.7,0.4-1.2c0-0.8,0-1.7,0.1-2.5c0-0.3,0-0.6,0-0.9c0.1,0,0.1,0,0.2,0
					c1.9,0,3.8,0.1,5.7,0.1c1.2,0,2.5-0.1,3.7,0c0.6,0.1,1.3-0.1,2-0.2c0.5-0.1,1.1-0.2,1.6-0.4c0.9-0.3,1.7-0.7,2.4-1.4
					c0.8-0.8,1.7-1.6,2.2-2.7c0.5-0.9,0.9-1.9,1.2-2.9c0.2-0.9,0.4-1.7,0.7-2.6c0.5-1.5,0.7-3,0.7-4.5c0-1.1-0.1-2.2-0.4-3.3
					c-0.3-1.4-0.5-2.8-0.8-4.2c-0.1-0.5-0.4-1-0.6-1.5c-0.3-0.7-0.5-1.4-0.7-2.1c-0.4-1.1-0.9-2.2-1.3-3.3c-0.5-1.3-1.1-2.6-1.5-3.9
					c-0.5-1.3-1.3-2.4-2-3.6c-0.5-0.9-1.2-1.6-1.8-2.5c-0.4-0.6-0.8-1.2-1.1-1.8c0.9-0.6,1.8-0.9,2.8-1c0.4-0.1,0.9-0.1,1.3-0.3
					c0.3-0.1,0.6-0.2,0.8-0.5c0.5-1-0.3-2.2-1.4-2.3c-1.1,0-2,0.4-2.9,0.8c-0.5,0.2-1,0.5-1.5,0.8c-0.1,0-0.3,0.1-0.3,0
					c-0.3-0.3-0.5-0.6-0.8-0.9c0.6-0.6,1.6-1.2,2.5-1.4c0.5-0.1,0.8-0.5,0.7-1.1c-0.1-0.7-0.9-1.4-1.8-1.2c-1.4,0.4-2.7,1-3.6,2.1
					c-0.2,0.2-0.3,0.2-0.5,0.1c-1-0.3-2-0.6-3-0.3c-0.2,0-0.4,0.1-0.6,0.2c0.3-0.8,0.8-1.4,1.3-1.9c0.6-0.5,1.4-1,2.1-1.5
					c0.8-0.5,1.6-1,2.5-1.4c1.5-0.6,3-1,4.6-1c1.8,0,3.5-0.1,5.3,0.3c0.3,0.1,0.5,0.1,0.8,0c0.4-0.1,0.8-0.2,0.9-0.7
					c0.2-0.6,0.2-1.2-0.1-1.8c-0.1-0.2-0.3-0.4-0.4-0.5c-0.3-0.2-0.7-0.3-1.1-0.3c-0.6-0.1-1.1-0.2-1.8-0.3c0.5-0.2,0.9-0.3,1.3-0.4
					c0.2-0.1,0.4-0.2,0.5-0.3c0.7-1.1,0-2.6-1.3-2.8c-0.1,0-0.3,0-0.5,0c-0.9,0.3-1.8,0.6-2.7,0.9c-0.5,0.2-1,0.4-1.6,0.6
					c-1.8,0.6-3.6,1.1-5.4,1.5c-1.4,0.3-2.7,0.8-4,1.2c-0.7,0.2-1.5,0.4-2.3,0.6c-0.1-0.2-0.1-0.3-0.1-0.4c-0.2-0.9-0.4-1.8-0.7-2.7
					c-0.5-1.7-1.3-3.3-2.3-4.8c-0.5-0.7-1.1-1.3-1.9-1.8c-0.5-0.3-0.9-0.7-0.8-1.3c0-0.4,0-0.9,0-1.3c0.1-1,0.3-2,0.9-2.8
					c0-0.1,0.1-0.2,0.1-0.2c0-0.5-0.2-0.9-0.6-1.2c-0.6-0.4-1.2-0.7-1.9-0.5c-0.4,0.1-0.8,0.3-1,0.5c-0.7,1-1.1,2.2-1.2,3.5
					c0,0.6-0.1,1.2-0.2,1.8c-0.1-0.1-0.2-0.3-0.3-0.4c-0.4-1.4-0.6-2.8-0.5-4.2c0-0.6-0.4-1.1-0.9-1.1c-0.8-0.1-1.5,0.2-2.1,0.7
					c-0.1,0.1-0.2,0.4-0.2,0.6c0,0.4,0.1,0.8,0.1,1.2c0,1.5-0.1,3.1-0.4,4.6c-0.1,0.4-0.2,0.5-0.6,0.2c-0.6-0.4-0.9-1.1-1.2-1.7
					c-0.4-1.1-0.6-2.2-0.9-3.3c0-0.2-0.1-0.4-0.3-0.4c-0.3-0.1-0.6-0.2-0.9-0.2c-0.7,0-1.3,0.3-1.9,0.7c-0.2,0.2-0.3,0.4-0.3,0.7
					c0.2,1.1,0.3,2.2,0.3,3.4c-0.1,1.6-0.1,3.1-0.6,4.6c-0.2,0.4-0.3,0.9-0.5,1.3c0,0-0.1,0-0.1,0c0,0,0-0.1,0-0.1
					c0-1.6,0-3.2-0.4-4.8c-0.2-1-0.3-1.1-1.3-1.2c-1.2-0.2-2.3,0-3.4,0.3c-0.7,0.2-1.4,0.5-2.1,0.8c-0.7,0.3-0.8,0.7-0.8,1.4
					c0.1,0.8,0.1,1.6,0.2,2.4c0,1.9,0.1,3.8,0.1,5.8c0,0.3,0,0.6,0,1c-0.3,0-0.6,0-1,0c-0.8,0-1.6,0-2.4-0.1c-1.2-0.1-2.4-0.2-3.5-1
					c-0.6-0.4-1.1-0.9-1.6-1.3c-0.6-0.5-1.4-0.5-2,0c-0.5,0.4-0.7,1.3,0.1,1.8c0.2,0.1,0.4,0.3,0.5,0.5c0.4,0.4,0.7,0.7,1.1,1.1
					c0.2,0.2,0.3,0.3,0.5,0.4c0,0,0,0.1,0,0.1c-0.5,0.1-1.1,0.1-1.6,0.2c-0.2,0-0.4,0.1-0.5,0.1c-0.4,0.2-0.4,0.6-0.5,1
					c-0.1,0.9,0.4,1.5,1.3,1.5c1,0,2.1,0,3.1-0.1c2.2-0.1,4.5,0,6.7,0.2c0.1,0,0.2,0.1,0.2,0.2c0,1.2,0,2.4,0,3.6
					c0,0.3-0.1,0.5-0.1,0.7c-1-0.1-2-0.2-2.9-0.2c-1.1,0-2.1-0.3-3.1-0.7c-1.4-0.7-2.8-1.3-4.1-2.2c-0.1-0.1-0.2-0.1-0.4-0.1
					c-0.7,0.1-1.1,0.4-1.2,1.1c-0.2,0.7-0.1,1.3,0.6,1.5c0.1,0,0.2,0.1,0.3,0.2c0.7,0.6,1.5,1.2,2.3,1.5c0.2,0.1,0.3,0.1,0.6,0.2
					c-0.1,0.1-0.2,0.1-0.3,0.1c-1.1,0.5-2.2,1-3.1,1.8c-0.7,0.7-0.8,1.3-0.3,2.1c0.3,0.5,1.1,0.6,1.4,0.2c0.6-0.7,1.4-1.2,2.2-1.5
					c0.7-0.2,1.4-0.4,2.1-0.4c1-0.1,2-0.2,3-0.2C192.3,222.6,192.9,222.8,193.5,222.9z"/>
				<path fill="#ED1C24" stroke="#000000" stroke-miterlimit="10" d="M193.5,222.9c-0.6-0.1-1.2-0.3-1.8-0.3c-1,0-2,0-3,0.2
					c-0.7,0.1-1.4,0.2-2.1,0.4c-0.9,0.3-1.6,0.8-2.2,1.5c-0.3,0.4-1.1,0.2-1.4-0.2c-0.5-0.8-0.5-1.4,0.3-2.1c0.9-0.8,2-1.3,3.1-1.8
					c0.1,0,0.1-0.1,0.3-0.1c-0.2-0.1-0.4-0.2-0.6-0.2c-0.9-0.4-1.6-0.9-2.3-1.5c-0.1-0.1-0.2-0.2-0.3-0.2c-0.7-0.2-0.8-0.8-0.6-1.5
					c0.2-0.6,0.6-1,1.2-1.1c0.1,0,0.3,0,0.4,0.1c1.3,0.9,2.7,1.5,4.1,2.2c1,0.4,2,0.7,3.1,0.7c1,0,1.9,0.2,2.9,0.2
					c0-0.2,0.1-0.4,0.1-0.7c0-1.2,0-2.4,0-3.6c0-0.1-0.1-0.2-0.2-0.2c-2.2-0.2-4.5-0.2-6.7-0.2c-1,0-2.1,0.1-3.1,0.1
					c-0.9,0-1.4-0.6-1.3-1.5c0.1-0.4,0.1-0.8,0.5-1c0.2-0.1,0.3-0.1,0.5-0.1c0.5-0.1,1.1-0.1,1.6-0.2c0,0,0-0.1,0-0.1
					c-0.2-0.1-0.4-0.3-0.5-0.4c-0.4-0.4-0.8-0.7-1.1-1.1c-0.2-0.2-0.3-0.4-0.5-0.5c-0.8-0.4-0.6-1.3-0.1-1.8c0.6-0.6,1.4-0.6,2,0
					c0.5,0.4,1,0.9,1.6,1.3c1,0.7,2.3,0.9,3.5,1c0.8,0.1,1.6,0.1,2.4,0.1c0.3,0,0.6,0,1,0c0-0.3,0-0.6,0-1c0-1.9,0-3.8-0.1-5.8
					c0-0.8-0.1-1.6-0.2-2.4c-0.1-0.7,0.1-1.1,0.8-1.4c0.7-0.3,1.4-0.6,2.1-0.8c1.1-0.3,2.3-0.5,3.4-0.3c1,0.2,1.1,0.2,1.3,1.2
					c0.4,1.6,0.3,3.2,0.4,4.8c0,0,0,0.1,0,0.1c0,0,0.1,0,0.1,0c0.2-0.4,0.4-0.9,0.5-1.3c0.6-1.5,0.6-3.1,0.6-4.6
					c0.1-1.1,0-2.3-0.3-3.4c-0.1-0.3,0-0.5,0.3-0.7c0.6-0.5,1.2-0.7,1.9-0.7c0.3,0,0.6,0.1,0.9,0.2c0.1,0,0.2,0.3,0.3,0.4
					c0.3,1.1,0.6,2.2,0.9,3.3c0.2,0.7,0.6,1.3,1.2,1.7c0.4,0.3,0.5,0.2,0.6-0.2c0.4-1.5,0.4-3,0.4-4.6c0-0.4-0.1-0.8-0.1-1.2
					c0-0.2,0.1-0.4,0.2-0.6c0.6-0.6,1.3-0.8,2.1-0.7c0.6,0,1,0.6,0.9,1.1c-0.1,1.4,0.1,2.8,0.5,4.2c0.1,0.2,0.1,0.3,0.3,0.4
					c0.1-0.6,0.1-1.2,0.2-1.8c0.1-1.3,0.5-2.5,1.2-3.5c0.2-0.3,0.6-0.5,1-0.5c0.7-0.1,1.4,0.1,1.9,0.5c0.4,0.3,0.6,0.7,0.6,1.2
					c0,0.1,0,0.2-0.1,0.2c-0.6,0.9-0.8,1.8-0.9,2.8c0,0.4,0,0.9,0,1.3c0,0.6,0.3,1,0.8,1.3c0.8,0.5,1.3,1.1,1.9,1.8
					c1.1,1.5,1.8,3.1,2.3,4.8c0.3,0.9,0.5,1.8,0.7,2.7c0,0.1,0.1,0.2,0.1,0.4c0.8-0.2,1.5-0.4,2.3-0.6c1.3-0.4,2.7-0.9,4-1.2
					c1.8-0.4,3.6-0.9,5.4-1.5c0.5-0.2,1-0.4,1.6-0.6c0.9-0.3,1.8-0.6,2.7-0.9c0.1,0,0.3,0,0.5,0c1.3,0.1,2.1,1.7,1.3,2.8
					c-0.1,0.1-0.3,0.2-0.5,0.3c-0.4,0.1-0.8,0.3-1.3,0.4c0.6,0.1,1.2,0.2,1.8,0.3c0.4,0.1,0.7,0.2,1.1,0.3c0.2,0.1,0.3,0.3,0.4,0.5
					c0.3,0.6,0.3,1.2,0.1,1.8c-0.1,0.4-0.5,0.6-0.9,0.7c-0.3,0-0.6,0-0.8,0c-1.7-0.4-3.5-0.3-5.3-0.3c-1.6,0-3.1,0.4-4.6,1
					c-0.9,0.4-1.7,0.9-2.5,1.4c-0.7,0.4-1.4,0.9-2.1,1.5c-0.6,0.5-1,1.1-1.3,1.9c0.2-0.1,0.4-0.1,0.6-0.2c1-0.3,2,0,3,0.3
					c0.2,0.1,0.4,0.1,0.5-0.1c1-1.1,2.2-1.7,3.6-2.1c1-0.2,1.7,0.5,1.8,1.2c0.1,0.5-0.2,1-0.7,1.1c-0.9,0.2-1.9,0.8-2.5,1.4
					c0.3,0.3,0.5,0.6,0.8,0.9c0.1,0.1,0.2,0,0.3,0c0.5-0.2,1-0.5,1.5-0.8c0.9-0.4,1.9-0.8,2.9-0.8c1.1,0,1.8,1.3,1.4,2.3
					c-0.2,0.3-0.5,0.5-0.8,0.5c-0.4,0.1-0.9,0.2-1.3,0.3c-1,0.2-1.9,0.5-2.8,1c0.4,0.6,0.7,1.2,1.1,1.8c0.6,0.8,1.3,1.6,1.8,2.5
					c0.7,1.2,1.5,2.3,2,3.6c0.5,1.3,1,2.6,1.5,3.9c0.4,1.1,0.9,2.2,1.3,3.3c0.3,0.7,0.5,1.4,0.7,2.1c0.2,0.5,0.5,1,0.6,1.5
					c0.3,1.4,0.5,2.8,0.8,4.2c0.2,1.1,0.4,2.2,0.4,3.3c0,1.5-0.3,3-0.7,4.5c-0.3,0.9-0.4,1.7-0.7,2.6c-0.3,1-0.7,2-1.2,2.9
					c-0.6,1-1.4,1.9-2.2,2.7c-0.7,0.7-1.5,1-2.4,1.4c-0.5,0.2-1,0.3-1.6,0.4c-0.7,0.1-1.3,0.2-2,0.2c-1.2-0.1-2.5,0-3.7,0
					c-1.9,0-3.8-0.1-5.7-0.1c-0.1,0-0.1,0-0.2,0c0,0.3,0,0.6,0,0.9c0,0.8-0.1,1.7-0.1,2.5c0,0.5,0,0.9-0.4,1.2
					c-0.2,0.2-0.6,0.3-0.9,0.4c-0.6,0.2-1.2,0.2-1.8,0.4c-1,0.2-2,0.1-3.1,0c-0.8-0.1-1.6-0.3-2.5-0.5c-0.8-0.2-1.2-0.7-1.2-1.5
					c0-0.7,0-1.5,0-2.2c0-0.4,0-0.9-0.1-1.3c0-0.1,0-0.3,0-0.4c0-0.8,0-0.8-0.7-1c-1.6-0.5-3.2-1-4.8-1.6c-0.7-0.2-1.4-0.5-2-0.7
					c-0.2-0.1-0.4-0.2-0.7-0.3c-0.4-0.2-0.8-0.3-1.2-0.5c-1-0.3-1.9-0.8-2.6-1.6c-0.3-0.3-0.6-0.5-0.9-0.8c0,0.6,0.1,1.1,0.1,1.7
					c0,0.7,0.1,1.4,0,2.2c0,0.3-0.2,0.6-0.6,0.7c-0.9,0.2-1.8,0.5-2.6,0.6c-1,0-2.1,0.1-3-0.4c-0.5-0.3-0.9-0.6-0.9-1.3
					c0.1-2.2,0.1-4.3,0.1-6.5c0-1.6-0.2-3.2-0.3-4.8c0-1.1,0-2.1,0-3.2c0-0.3,0-0.5-0.1-0.8c-0.3-0.9-0.8-1.7-1.1-2.6
					c-0.2-0.6-0.4-1.3-0.4-1.9c-0.2-1.7-0.4-3.3-0.5-5c-0.1-1.6,0-3.1,0.2-4.7c0.1-0.7,0.3-1.3,0.6-1.9c0.1-0.2,0.2-0.6,0.3-0.8
					c0.3-0.9,0.6-1.7,0.9-2.6C193.1,223.9,193.3,223.5,193.5,222.9z M191.6,232.8C191.6,232.8,191.5,232.8,191.6,232.8
					c0,1.4,0.1,2.7,0.3,4.1c0.1,1.1,0.3,2.1,0.5,3.2c0.1,0.4,0.2,0.7,0.3,1.1c0.4,0.9,0.8,1.9,1.1,2.8c0.4,1.1,0.8,2.2,1.4,3.2
					c0.8,1.2,1.4,2.4,2.1,3.6c0.1,0.3,0.3,0.5,0.5,0.7c0.4,0.4,0.8,0.7,1.1,1.2c0.9,1.1,1.8,2.2,2.8,3.2c0.6,0.6,1.4,1.1,2.3,1.3
					c0.4,0.1,0.8,0.3,1.2,0.4c1,0.4,2,0.8,3,1.2c0.8,0.3,1.6,0.6,2.4,0.8c1.6,0.5,3.1,0.9,4.7,1.3c1.5,0.3,2.9,0.5,4.4,0.7
					c1.7,0.2,3.3,0.4,5,0.5c1.4,0.1,2.8,0,4.2,0c0.9,0,1.7-0.1,2.6-0.1c1.2,0.1,2.4,0.2,3.6-0.2c0.9-0.3,1.8-0.6,2.5-1.1
					c1.3-1,2.3-2.1,2.9-3.6c0.5-1.1,0.9-2.3,1.3-3.5c0.2-0.6,0.3-1.3,0.5-2c0.1-0.6,0.2-1.1,0.2-1.7c0.1-0.8,0.2-1.5,0.1-2.3
					c-0.2-1.5-0.4-3-0.7-4.6c-0.2-1.3-0.5-2.5-1.1-3.7c-0.5-1.1-0.8-2.3-1.3-3.5c-0.8-2.1-1.7-4.1-2.6-6.1c-0.4-1-1-1.9-1.5-2.8
					c-0.6-1-1.3-1.8-1.9-2.7c-0.5-0.7-0.9-1.5-1.2-2.2c-0.3-0.8-0.7-1.5-1.2-2.1c-0.2-0.2-0.4-0.4-0.6-0.5c-0.2-0.2-0.5-0.3-0.7-0.5
					c-0.7-0.5-1.4-0.9-2.2-1.1c-0.6-0.1-1.3-0.3-1.9-0.1c-0.2,0.1-0.5,0.1-0.7,0.1c-0.5,0.1-0.8,0.3-0.9,0.8
					c-0.1,0.3-0.3,0.6-0.4,0.9c-0.4,0.8-0.8,1.6-1,2.5c-0.3,1.1-0.3,2.2-0.5,3.3c-0.1,1.1,0,2.2-0.3,3.2c-0.3,1.2-0.9,2.3-1.4,3.4
					c-0.2,0.4-0.4,0.8-0.6,1.2c-0.1,0.1-0.2,0.2-0.3,0.2c-0.1,0-0.2-0.2-0.2-0.3c-0.1-0.4-0.1-0.9-0.2-1.3c0-0.3-0.1-0.6-0.1-1
					c0-0.3-0.2-0.5-0.2-0.8c-0.1-1.2-0.6-2.2-1.7-2.8c0,0-0.1-0.1-0.1-0.1c-0.9-0.6-1.8-1.1-2.8-1.1c-0.9,0-1.9,0.1-2.8,0.2
					c-1.3,0.1-2.4,0.7-3.6,1.1c-0.8,0.2-1,0.1-1.1-0.6c0-0.1,0-0.1,0-0.2c-0.2-0.4-0.2-0.9-0.5-1.1c-0.5-0.5-1.2-0.9-1.8-1.2
					c-0.3-0.2-0.6-0.3-0.9-0.3c-0.7,0-1.4-0.2-2-0.6c-1.1-0.6-2.3-0.9-3.5-0.8c-0.9,0-1.7,0.3-2.4,0.7c-0.9,0.6-1.6,1.4-1.9,2.5
					c-0.2,0.7-0.5,1.4-0.7,2c-0.2,0.6-0.5,1.1-0.6,1.7C191.7,230.4,191.5,231.6,191.6,232.8z M211.5,194.3c-0.5,0.1-0.9,0.2-1.4,0.3
					c0,0,0,0.1,0,0.2c0,0.8,0,1.7-0.1,2.5c-0.1,0.9-0.2,1.8-0.4,2.6c-0.1,0.7-0.8,1-1.4,0.7c-0.5-0.2-0.8-0.5-1.1-1
					c-0.5-0.7-0.9-1.5-1.1-2.4c-0.1-0.5-0.3-1.1-0.5-1.6c-0.5,0.4-1.1,0.5-1.7,0.4c0,0.3,0.1,0.6,0.1,0.9c0,1.1,0,2.2-0.1,3.2
					c-0.1,1.2-0.1,2.5-0.6,3.6c-0.2,0.5-0.4,0.9-0.6,1.4c-0.2,0.5-0.6,0.9-0.7,1.4c-0.5,1.8-0.7,3.6-0.8,5.5c-0.1,1.4,0.2,2.7,0.3,4
					c0.2,1.6,0.6,3.1,1.5,4.5c0.3,0.5,0.8,1,1.2,1.5c0.9,1,1.8,2,2.8,2.9c0.3,0.3,0.6,0.5,0.9,0.7c0.2,0.1,0.3,0.1,0.4-0.1
					c0.4-0.6,0.8-1.3,1.2-1.9c0.4-0.7,0.8-1.5,1.2-2.3c0.6-1,1.2-1.9,1.8-2.9c-0.1-0.1-0.2-0.2-0.2-0.3c-0.3-0.6-0.6-1.2-0.9-1.8
					c-0.7-1.6-1.1-3.2-0.9-4.9c0.1-0.9,0.4-1.8,1.3-2.2c0.5-0.2,0.9-0.3,1.3,0c0.5,0.3,0.7,0.8,0.6,1.4c0,0.1,0,0.2-0.1,0.4
					c0.2,0,0.4,0,0.6,0c0.5-0.1,1-0.2,1.5-0.2c0.8-0.1,1.6-0.3,2.4-0.3c1.3-0.1,2.4-0.5,3.6-0.8c0.1,0,0.2-0.2,0.1-0.3
					c0-0.3-0.1-0.5-0.2-0.8c-0.3-1.1-0.6-2.2-1-3.3c-0.5-1.3-1.1-2.4-1.9-3.5c-0.4-0.5-0.9-1-1.4-1.3c-0.7-0.5-1.2-1.1-1.3-2
					c0-0.8,0-1.6,0.2-2.4c0.1-0.5,0.2-1,0.4-1.5c-0.7,0-1.3-0.4-1.9-0.9c-0.2,0.6-0.5,1.1-0.6,1.6c-0.2,1.1-0.3,2.2-0.4,3.3
					c0,0.3-0.1,0.6-0.1,0.9c-0.1,0.3-0.3,0.4-0.6,0.3c-0.2-0.1-0.4-0.2-0.5-0.4c-0.3-0.8-0.7-1.7-0.9-2.6
					C211.7,196.1,211.6,195.2,211.5,194.3z M240.3,209.1c-1-0.3-2.1-0.3-3.2-0.3c-0.7,0-1.3,0.1-2,0.1c-0.1,0-0.2-0.2-0.3-0.2
					c0.1-0.1,0.2-0.2,0.3-0.2c0.8-0.1,1.5-0.3,2.2-0.6c0.7-0.3,1.3-0.5,2-0.7c-0.5-0.4-0.7-0.9-0.7-1.6c-0.4,0.1-0.6,0.2-0.9,0.3
					c-0.9,0.3-1.8,0.6-2.7,0.9c-0.8,0.3-1.6,0.5-2.5,0.8c-0.7,0.2-1.4,0.4-2.1,0.6c-0.8,0.2-1.6,0.4-2.4,0.6
					c-0.7,0.2-1.4,0.5-2.1,0.7c-1.1,0.3-2.2,0.6-3.2,0.9c-1.1,0.3-2.1,0.6-3.2,0.8c-1.3,0.2-2.7,0.4-4.1,0.6
					c-0.7,0.1-1.5,0.3-2.2,0.1c-0.6-0.1-1.1-0.3-1.7-0.4c0,0.1,0,0.2,0,0.3c-0.1,1.2,0.2,2.4,0.5,3.5c0.2,0.6,0.5,0.9,1.1,1
					c0.8,0.2,1.2,0.9,0.9,1.6c-0.1,0.3-0.3,0.6-0.5,0.9c-1.1,1.4-2,3-2.9,4.6c-0.4,0.7-0.8,1.4-1.2,2.1c0,0.1,0,0.1-0.1,0.2
					c0.1,0,0.1,0,0.2,0c1.3-0.3,2.5-0.6,3.8-0.6c0.6,0,1.3-0.1,1.8,0.2c1,0.5,1.9,1,2.8,1.5c0.7,0.4,1,1.1,1.3,1.8
					c0.2,0.7,0.5,1.3,0.5,2.1c0,0.1,0,0.2,0.1,0.3c0.1-0.1,0.1-0.2,0.2-0.3c0.3-1,0.6-1.9,0.9-2.9c0.1-0.4,0.1-0.9,0.2-1.3
					c0.1-0.9,0.3-1.7,0.3-2.6c0-1.4,0.5-2.7,1.1-4c0.7-1.3,1.4-2.6,2.2-3.9c0.3-0.5,0.6-1,1-1.4c0.7-0.6,1.4-1,2.2-1.5
					c1.2-0.7,2.3-1.4,3.6-1.8c1.2-0.4,2.3-0.7,3.6-0.7c1.3,0,2.6,0,3.9,0c0.5,0,0.9,0.1,1.3,0.1
					C240.1,210.1,240.2,209.6,240.3,209.1z M194.7,222.5c0.8-0.4,1.6-0.8,2.5-0.9c1.4-0.2,2.8,0,4.1,0.7c0.5,0.3,1,0.4,1.5,0.5
					c0.2,0.1,0.4,0.1,0.6,0.2c0.3,0.1,0.6,0.2,0.9,0.4c0,0,0-0.1,0-0.1c-0.1-0.1-0.3-0.3-0.4-0.4c-0.7-0.6-1.3-1.2-1.8-2
					c-0.7-1.1-1-2.3-1.3-3.6c-0.2-1.2-0.4-2.3-0.5-3.5c-0.2-2.2,0.1-4.3,0.5-6.5c0.1-0.5,0.2-1,0.2-1.5c0-1.4,0-2.8-0.1-4.2
					c0-0.5-0.1-1-0.2-1.4c-2,0.8-3.9,1.1-5.9,1.1c0,1.2,0,2.4,0,3.5c0,1.4,0,2.8,0,4.2c0,0.4,0,0.8,0.1,1.2c0.2,1.7,0.3,3.4,0.5,5.1
					c0.1,0.9,0.1,1.8,0.1,2.6c0,0.4,0,0.8-0.1,1.2C195.2,220.4,194.9,221.4,194.7,222.5z M199.5,258.5c-0.1-1.3-0.1-2.5-0.2-3.7
					c0-0.1,0-0.1-0.1-0.1c-0.4-0.5-0.8-1.1-1.2-1.6c-0.2-0.3-0.6-0.5-0.8-0.8c-0.4-0.5-0.8-1.1-1.1-1.7c-0.5-0.8-0.9-1.7-1.4-2.5
					c-0.3-0.5-0.7-1-1-1.6c0.1,2,0.3,4,0.3,6.1c0.1,2,0,4-0.1,6C195.8,258.1,197.6,257.8,199.5,258.5z M184.8,209.5
					c0.6,0.5,1.2,1,1.8,1.5c0.3,0.3,0.7,0.4,1.1,0.2c0,0,0,0,0.1,0c0.2,0.1,0.4,0.2,0.5,0.3c0.1,0.2-0.1,0.4-0.3,0.4
					c-0.3,0.1-0.6,0.1-0.8,0.2c-0.6,0.1-1.2,0.3-1.8,0.4c0,0.4,0,0.7,0,1c1.6,0,3.1,0,4.6,0c1.6,0,3.1,0.1,4.7,0.2
					c0-0.1,0-0.2,0-0.4c-0.1-0.7-0.2-1.4-0.3-2.1c0-0.3-0.1-0.4-0.4-0.4c-1.5,0.1-2.9,0.1-4.3-0.1c-1.5-0.2-2.7-0.8-3.8-1.8
					c-0.1-0.1-0.2-0.1-0.2-0.2C185.2,209,185,209.2,184.8,209.5z M194.4,219.8c-1-0.1-1.9-0.1-2.9-0.2c-1.2,0-2.4-0.3-3.5-0.8
					c-0.7-0.3-1.4-0.7-2.1-1c-0.4-0.2-0.9-0.5-1.3-0.7c-0.1,0.3-0.3,0.7-0.4,1.1c0.9,0.6,1.8,1.2,2.9,1.5c0.2,0,0.3,0.1,0.5,0.1
					c0.4,0.1,0.4,0.5,0.2,0.8c-0.1,0.1-0.2,0.2-0.3,0.2c-0.7,0.3-1.4,0.6-2.2,1c-0.5,0.2-0.9,0.6-1.3,0.8c0.2,0.3,0.4,0.5,0.6,0.7
					c0.5-0.3,1-0.7,1.6-0.9c1.2-0.6,2.5-0.6,3.8-0.7c1.2-0.1,2.4,0,3.6,0.3c0.2,0.1,0.3,0,0.4-0.2c0.1-0.4,0.3-0.9,0.4-1.3
					C194.4,220.3,194.4,220.1,194.4,219.8z M214,261.6c0,1.3,0,2.5,0,3.7c0.5-0.1,0.9-0.2,1.4-0.3c0.2,0,0.4-0.1,0.6-0.1
					c0.8-0.1,1.7-0.2,2.5-0.2c0.8,0,1.6,0.2,2.4,0.3c0.4,0.1,0.8,0.2,1.2,0.4c0-0.8,0-1.6,0.1-2.5c0-0.2-0.1-0.3-0.3-0.3
					c-1.2-0.1-2.4-0.3-3.6-0.4c-0.7-0.1-1.5-0.2-2.2-0.3C215.4,261.9,214.7,261.7,214,261.6z M214.2,266.4c0.2,0.5,0.2,0.5,0.6,0.6
					c0.1,0,0.3,0.1,0.4,0.1c1.5,0.3,3,0.6,4.6,0.3c0.6-0.1,1.3-0.3,1.9-0.5c0.1,0,0.2-0.2,0.3-0.2c-0.1-0.1-0.2-0.2-0.3-0.3
					c-0.6-0.4-1.4-0.6-2.1-0.6c-1-0.1-1.9,0-2.9-0.1C215.8,265.6,215,266,214.2,266.4z M232.8,221.4c1-0.6,2.1-1,3.2-1.1
					c-0.1-0.5-0.2-0.9-0.3-1.4c-1.2,0.3-2.3,0.9-3.5,1.4C232.5,220.7,232.6,221,232.8,221.4z M199.2,259.5c-0.3-0.4-0.8-0.5-1.3-0.5
					c-1.1-0.1-2.2,0-3.2,0.2c-0.2,0.1-0.4,0.1-0.7,0.2C194.9,260.2,197.6,260.2,199.2,259.5z M229.3,217.6c0.3,0.2,0.6,0.4,0.9,0.6
					c0.1,0,0.2,0,0.3,0c0.3-0.2,0.6-0.5,0.9-0.7c0.3-0.3,0.7-0.5,1.1-0.7c-0.2-0.3-0.4-0.5-0.5-0.8C231.3,216,230,216.8,229.3,217.6
					z M194.9,200.4c1.3,0.2,4.6-0.4,5.2-1C199.3,199,195.6,199.7,194.9,200.4z M211.7,210.5c0.5,0.1,1,0.1,1.4,0.2
					c0-0.5-0.2-0.7-0.5-0.8C212.4,209.9,211.9,210.1,211.7,210.5z M217.2,193.6c-0.2-0.5-1.1-0.8-1.6-0.6
					C215.9,193.6,216.7,193.9,217.2,193.6z M241.5,209.4c0,0-0.1,0-0.1,0c-0.1,0.1-0.2,0.1-0.3,0.2c-0.3,0.2-0.3,0.9,0.1,1.1
					c0.2,0.1,0.3,0.1,0.3-0.1C241.5,210.2,241.5,209.8,241.5,209.4z M237.3,219.6c-0.1-0.2-0.1-0.4-0.2-0.6
					c-0.1-0.1-0.2-0.1-0.4-0.1c-0.1,0-0.2,0.2-0.2,0.3c0,0.2,0.1,0.4,0.2,0.6c0.1,0.1,0.3,0.2,0.4,0.2
					C237.2,219.9,237.3,219.8,237.3,219.6z M239.5,205.4c0,0.6,0.2,1,0.6,1.2C240.3,206.2,240.1,205.7,239.5,205.4z M211.4,193.1
					c-0.6-0.1-1,0.1-1.5,0.4C210.4,193.8,211.2,193.6,211.4,193.1z M203.7,195c0,0,0,0.1,0,0.1c0.6,0.2,1.2,0.1,1.4-0.5
					C204.7,194.8,204.2,194.9,203.7,195z M233.5,216.5c0,0,0.1-0.1,0.1-0.1c0-0.4-0.2-0.5-0.4-0.7c-0.1,0-0.2,0-0.3,0
					c0,0-0.1,0.2,0,0.3C233,216.1,233.3,216.3,233.5,216.5z M184.7,208.1c-0.4,0-0.7,0.2-0.7,0.5
					C184.4,208.8,184.7,208.6,184.7,208.1z M183.9,213.2c0.1,0.1,0.2,0.2,0.2,0.3c0.1-0.1,0.2-0.2,0.2-0.3c0-0.2,0-0.3-0.1-0.5
					c0,0-0.2-0.1-0.2,0C184.1,212.9,184,213,183.9,213.2z M213,217.7c0.2-0.3,0.1-0.6-0.4-0.7C212.8,217.2,212.9,217.4,213,217.7z
					 M183.4,217.6c0.1,0,0.1,0,0.2,0c0.2-0.2,0.3-0.5,0-0.8C183.6,217.1,183.5,217.3,183.4,217.6z M183.7,224.1
					c0.1-0.5,0.1-0.6-0.4-0.6C183.5,223.7,183.6,223.9,183.7,224.1z"/>
				<path fill="#ED1C24" stroke="#000000" stroke-miterlimit="10" d="M191.6,232.8c-0.1-1.2,0.1-2.4,0.4-3.6
					c0.1-0.6,0.4-1.1,0.6-1.7c0.3-0.7,0.6-1.3,0.7-2c0.3-1.1,1-1.9,1.9-2.5c0.7-0.5,1.5-0.7,2.4-0.7c1.3-0.1,2.4,0.2,3.5,0.8
					c0.6,0.3,1.3,0.5,2,0.6c0.3,0,0.6,0.1,0.9,0.3c0.6,0.4,1.3,0.8,1.8,1.2c0.3,0.2,0.4,0.7,0.5,1.1c0,0,0,0.1,0,0.2
					c0.2,0.8,0.4,0.9,1.1,0.6c1.2-0.4,2.3-0.9,3.6-1.1c0.9-0.1,1.9-0.2,2.8-0.2c1,0,2,0.6,2.8,1.1c0,0,0.1,0.1,0.1,0.1
					c1.2,0.6,1.6,1.5,1.7,2.8c0,0.3,0.1,0.6,0.2,0.8c0.1,0.3,0.1,0.6,0.1,1c0.1,0.4,0.1,0.9,0.2,1.3c0,0.1,0.1,0.3,0.2,0.3
					c0.1,0,0.2-0.1,0.3-0.2c0.2-0.4,0.4-0.8,0.6-1.2c0.5-1.1,1-2.2,1.4-3.4c0.3-1.1,0.2-2.2,0.3-3.2c0.1-1.1,0.2-2.2,0.5-3.3
					c0.2-0.9,0.7-1.7,1-2.5c0.1-0.3,0.3-0.6,0.4-0.9c0.1-0.5,0.5-0.7,0.9-0.8c0.2,0,0.5-0.1,0.7-0.1c0.7-0.2,1.3,0,1.9,0.1
					c0.8,0.2,1.6,0.6,2.2,1.1c0.2,0.2,0.5,0.3,0.7,0.5c0.2,0.2,0.4,0.3,0.6,0.5c0.5,0.7,0.9,1.4,1.2,2.1c0.3,0.8,0.8,1.5,1.2,2.2
					c0.6,0.9,1.4,1.8,1.9,2.7c0.5,0.9,1.2,1.8,1.5,2.8c0.8,2.1,1.7,4.1,2.6,6.1c0.5,1.1,0.8,2.4,1.3,3.5c0.6,1.2,0.8,2.5,1.1,3.7
					c0.3,1.5,0.5,3,0.7,4.6c0.1,0.7,0,1.5-0.1,2.3c0,0.6-0.1,1.2-0.2,1.7c-0.1,0.7-0.2,1.4-0.5,2c-0.4,1.2-0.8,2.3-1.3,3.5
					c-0.6,1.5-1.7,2.7-2.9,3.6c-0.7,0.6-1.6,0.8-2.5,1.1c-1.2,0.4-2.4,0.3-3.6,0.2c-0.9,0-1.7,0.1-2.6,0.1c-1.4,0-2.8,0.1-4.2,0
					c-1.7-0.1-3.3-0.3-5-0.5c-1.5-0.2-3-0.4-4.4-0.7c-1.6-0.3-3.1-0.8-4.7-1.3c-0.8-0.2-1.6-0.5-2.4-0.8c-1-0.4-2-0.8-3-1.2
					c-0.4-0.2-0.8-0.3-1.2-0.4c-0.9-0.3-1.6-0.7-2.3-1.3c-1-1-1.9-2.1-2.8-3.2c-0.3-0.4-0.7-0.8-1.1-1.2c-0.2-0.2-0.4-0.5-0.5-0.7
					c-0.7-1.2-1.3-2.5-2.1-3.6c-0.7-1-1-2.1-1.4-3.2c-0.3-0.9-0.7-1.9-1.1-2.8c-0.1-0.4-0.3-0.7-0.3-1.1c-0.2-1.1-0.3-2.1-0.5-3.2
					C191.7,235.5,191.6,234.2,191.6,232.8C191.5,232.8,191.6,232.8,191.6,232.8z M201.3,239.1C201.3,239.1,201.3,239.1,201.3,239.1
					c-0.2-0.1-0.4-0.3-0.6-0.4c-0.2-0.2-0.4-0.4-0.6-0.5c-0.6-0.2-1.3-0.4-2-0.6c-0.9-0.2-1.9-0.3-2.8-0.6c-0.6-0.2-1.2-0.5-1.7-0.8
					c-0.5-0.2-1,0-1,0.6c0,0.2,0.1,0.5,0,0.7c-0.1,1.1,0.5,1.9,1.2,2.7c0.7,0.7,1.2,1.5,1.4,2.6c0.1,0.5,0.2,1,0.4,1.5
					c0.3,0.7,0.6,1.5,1.3,2c0.6,0.5,1,1.1,1.4,1.8c0.2,0.4,0.5,0.8,0.8,1.2c0.3,0.4,0.6,0.7,0.9,1.1c0.3,0.3,0.6,0.8,1,1
					c0.7,0.5,1.2,1.1,1.8,1.7c0.6,0.6,1.2,1.3,1.9,1.8c0.8,0.7,1.8,1,2.8,1.2c0.4,0.1,0.8,0.1,1.2,0.2c0.6,0.1,1.1,0.3,1.7,0.5
					c0.4,0.1,0.8,0.3,1.2,0.4c0.7,0.3,1.4,0.7,2.2,1.1c0.5,0.2,1.1,0.4,1.6,0.5c0.6,0.1,1.2,0.1,1.8,0.3c0.8,0.2,1.4,0,2.2-0.3
					c0.5-0.2,1-0.3,1.5-0.4c0.7-0.1,1.4-0.1,2.1-0.3c0.9-0.2,1.6-0.9,1.8-1.8c0.2-0.8,0.1-1.7-0.3-2.5c-0.3-0.6-0.7-1.1-1-1.7
					c-0.4-0.8-0.8-1.6-1.2-2.4c-0.5-0.8-0.9-1.7-1.3-2.6c-0.4-1-0.7-2-1-3c-0.5-1.4-1.1-2.7-1.3-4.2c-0.2-1.2-0.3-2.3,0-3.5
					c0.1-0.2,0.1-0.5,0.1-0.8c0.1-1.2,0-2.5-0.1-3.7c-0.2-1.1-0.3-2.2-0.9-3.3c-0.4-0.7-0.8-1.4-1.6-1.8c-0.6-0.3-1.3-0.5-1.9-0.6
					c-1.2-0.2-2.4-0.1-3.6,0.2c-0.9,0.2-1.8,0.5-2.5,1.2c-0.4,0.3-0.8,0.7-1.1,1c-0.4,0.3-0.7,0.7-1,1.2c-0.3,0.7-0.7,1.4-1.1,2.1
					c-0.6,0.9-1,1.8-0.9,3c0.1,0.7,0,1.3,0,2c-0.2-0.2-0.5-0.5-0.5-0.8c-0.1-1-0.2-2,0-3c0.2-1,0.8-1.8,1.4-2.6c0.7-1,1.3-2,1.2-3.3
					c-0.1-0.8-0.4-1.5-0.8-2.2c-0.3-0.5-0.8-0.5-1.3-0.7c-0.3-0.1-0.6-0.1-0.8-0.1c-0.7,0-1.4-0.1-1.9-0.5c-0.7-0.4-1.3-0.7-2.1-0.9
					c-0.9-0.1-1.7-0.1-2.5,0.2c-0.4,0.1-0.8,0.3-1.1,0.6c-0.9,0.5-1.5,1.2-1.9,2.1c-0.3,0.7-0.5,1.3-0.8,2c-0.6,1.4-1,2.8-0.9,4.4
					c0,0.7,0.2,1.4,0.6,2c0.1,0.2,0.3,0.4,0.3,0.6c0.1,0.3,0.2,0.4,0.4,0.5c0.6,0.3,1.2,0.6,1.8,0.9c0.8,0.4,1.6,0.6,2.5,0.7
					c0.9,0.1,1.8,0.4,2.7,0.7c0.2,0.1,0.4,0.2,0.5,0.4C201.1,238.3,201.2,238.7,201.3,239.1z M227.9,233.2c-0.1-0.6-0.3-1.3-0.4-2
					c-0.1-0.4-0.3-0.8-0.4-1.2c-0.3-1.1-1-1.8-1.8-2.4c-0.6-0.5-1.3-0.3-1.7,0.3c-0.2,0.3-0.4,0.7-0.5,1c-0.3,0.6-0.5,1.3-0.8,1.9
					c-0.4,0.8-0.8,1.7-1,2.6c-0.2,0.9-0.5,1.9-0.7,2.8c-0.2,0.8-0.4,1.6-0.1,2.4c0.2,0.5,0.4,1,0.6,1.5c0.4,1,0.9,2,1.6,2.8
					c0.6,0.6,1.2,1.3,1.9,1.8c0.9,0.7,1.6,1.4,2.2,2.4c0.1,0.2,0.3,0.5,0.5,0.7c0.6,0.9,1.2,1.7,1.8,2.6c0.4,0.7,0.8,1.4,1.3,2.1
					c0.4,0.5,0.6,1.1,0.6,1.7c0.1,0.9,0.4,1.7,0.9,2.3c0.6,0.8,2,1.1,2.6-0.1c0.3-0.6,0.5-1.3,0.7-1.9c0.1-0.4,0.4-0.6,0.8-0.5
					c0.1,0,0.2,0.1,0.2,0.2c0.1,0.3,0.2,0.6,0.5,0.6c0.3,0.1,0.6-0.1,0.8-0.3c0.4-0.4,0.8-0.9,1.2-1.3c0.3-0.3,0.6-0.6,0.6-1
					c0-0.6-0.1-1.1-0.3-1.6c-0.3-0.8-0.2-1.1,0.7-1.2c0.7-0.1,0.8-0.4,0.9-1.1c0.1-0.4,0-0.8,0-1.2c-0.1-0.6-0.1-1.1-0.3-1.7
					c-0.2-0.5-0.5-0.9-0.8-1.4c-0.4-0.6-0.8-1.3-1-2c-0.2-0.6-0.3-1.3-0.8-1.8c-0.1-0.1-0.2-0.4-0.2-0.6c-0.1-0.8-0.3-1.6-0.9-2.2
					c-0.5-0.5-0.8-1.2-0.9-1.9c-0.1-0.5-0.1-1.1-0.1-1.6c0-1.3,0-2.5-0.1-3.8c-0.1-0.8-0.3-1.6-1-2.2c-0.5-0.4-1.1-0.4-1.5,0.1
					c-0.4,0.6-0.8,1.1-1,1.8c-0.3,0.8-0.4,1.7-0.6,2.5c-0.1,0.5-0.1,0.9-0.2,1.4c-0.1-0.3-0.1-0.6-0.2-0.9c-0.2-1.2,0-2.3,0.5-3.4
					c0.3-0.6,0.7-1.2,1.1-1.8c0.6-0.8,0.7-1.8,0.1-2.6c-0.5-0.8-0.9-1.6-1.1-2.5c-0.3-1.4-1-2.6-2.2-3.3c-1.2-0.8-2.5-1.2-3.9-1
					c-0.9,0.1-1.6,0.5-1.9,1.4c-0.3,0.9-0.6,1.8-1,2.7c-0.3,0.6-0.3,1.2-0.2,1.9c0.1,0.8,0.6,1.4,1.3,1.6c0.8,0.2,1.4,0.6,2,1.2
					c0.7,0.8,1.3,1.6,1.7,2.5c0.1,0.3,0.1,0.7,0.3,1C228.2,231.5,228,232.4,227.9,233.2z"/>
				<path fill="#ED1C24" stroke="#000000" stroke-miterlimit="10" d="M211.5,194.3c0.1,0.9,0.2,1.8,0.4,2.6c0.2,0.9,0.5,1.7,0.9,2.6
					c0.1,0.2,0.3,0.3,0.5,0.4c0.3,0.1,0.5,0,0.6-0.3c0.1-0.3,0.1-0.6,0.1-0.9c0.1-1.1,0.2-2.2,0.4-3.3c0.1-0.5,0.4-1,0.6-1.6
					c0.6,0.5,1.2,0.9,1.9,0.9c-0.1,0.5-0.3,1-0.4,1.5c-0.2,0.8-0.2,1.6-0.2,2.4c0,0.9,0.5,1.5,1.3,2c0.6,0.4,1,0.8,1.4,1.3
					c0.8,1.1,1.5,2.3,1.9,3.5c0.4,1.1,0.7,2.2,1,3.3c0.1,0.3,0.1,0.5,0.2,0.8c0,0.1-0.1,0.3-0.1,0.3c-1.2,0.3-2.4,0.7-3.6,0.8
					c-0.8,0-1.6,0.2-2.4,0.3c-0.5,0.1-1,0.2-1.5,0.2c-0.2,0-0.4,0-0.6,0c0-0.2,0-0.3,0.1-0.4c0.1-0.6-0.1-1-0.6-1.4
					c-0.4-0.3-0.9-0.3-1.3,0c-0.9,0.4-1.2,1.3-1.3,2.2c-0.2,1.7,0.2,3.4,0.9,4.9c0.3,0.6,0.6,1.2,0.9,1.8c0.1,0.1,0.1,0.2,0.2,0.3
					c-0.6,1-1.3,1.9-1.8,2.9c-0.4,0.7-0.8,1.5-1.2,2.3c-0.4,0.6-0.8,1.3-1.2,1.9c-0.1,0.2-0.3,0.2-0.4,0.1c-0.3-0.2-0.6-0.5-0.9-0.7
					c-1-0.9-1.9-1.8-2.8-2.9c-0.4-0.5-0.9-0.9-1.2-1.5c-0.9-1.4-1.3-2.9-1.5-4.5c-0.1-1.3-0.4-2.7-0.3-4c0.1-1.9,0.3-3.7,0.8-5.5
					c0.1-0.5,0.5-0.9,0.7-1.4c0.2-0.4,0.4-0.9,0.6-1.4c0.5-1.1,0.6-2.4,0.6-3.6c0.1-1.1,0.1-2.2,0.1-3.2c0-0.3-0.1-0.6-0.1-0.9
					c0.6,0.1,1.2,0,1.7-0.4c0.2,0.6,0.3,1.1,0.5,1.6c0.2,0.9,0.6,1.6,1.1,2.4c0.3,0.4,0.6,0.8,1.1,1c0.6,0.3,1.3,0,1.4-0.7
					c0.2-0.9,0.3-1.7,0.4-2.6c0.1-0.8,0.1-1.7,0.1-2.5c0-0.1,0-0.1,0-0.2C210.6,194.5,211,194.4,211.5,194.3z"/>
				<path fill="#ED1C24" stroke="#000000" stroke-miterlimit="10" d="M240.3,209.1c-0.1,0.5-0.1,1-0.2,1.6c-0.4,0-0.8-0.1-1.3-0.1
					c-1.3,0-2.6,0-3.9,0c-1.2,0-2.4,0.3-3.6,0.7c-1.3,0.4-2.5,1.1-3.6,1.8c-0.8,0.5-1.5,0.9-2.2,1.5c-0.4,0.4-0.7,0.9-1,1.4
					c-0.7,1.3-1.5,2.6-2.2,3.9c-0.6,1.2-1.1,2.5-1.1,4c0,0.9-0.2,1.7-0.3,2.6c-0.1,0.4-0.1,0.9-0.2,1.3c-0.3,1-0.6,1.9-0.9,2.9
					c0,0.1-0.1,0.2-0.2,0.3c0-0.2-0.1-0.2-0.1-0.3c0-0.7-0.2-1.4-0.5-2.1c-0.2-0.7-0.6-1.4-1.3-1.8c-0.9-0.5-1.9-1-2.8-1.5
					c-0.6-0.3-1.2-0.2-1.8-0.2c-1.3,0-2.6,0.4-3.8,0.6c0,0-0.1,0-0.2,0c0-0.1,0-0.2,0.1-0.2c0.4-0.7,0.8-1.4,1.2-2.1
					c0.9-1.6,1.8-3.1,2.9-4.6c0.2-0.3,0.4-0.6,0.5-0.9c0.3-0.7-0.1-1.4-0.9-1.6c-0.6-0.1-0.9-0.5-1.1-1c-0.3-1.1-0.6-2.3-0.5-3.5
					c0-0.1,0-0.2,0-0.3c0.6,0.1,1.2,0.3,1.7,0.4c0.8,0.2,1.5,0,2.2-0.1c1.3-0.2,2.7-0.3,4.1-0.6c1.1-0.2,2.1-0.5,3.2-0.8
					c1.1-0.3,2.2-0.6,3.2-0.9c0.7-0.2,1.4-0.5,2.1-0.7c0.8-0.2,1.6-0.4,2.4-0.6c0.7-0.2,1.4-0.4,2.1-0.6c0.8-0.2,1.7-0.5,2.5-0.8
					c0.9-0.3,1.8-0.6,2.7-0.9c0.3-0.1,0.6-0.2,0.9-0.3c0,0.6,0.2,1.2,0.7,1.6c-0.7,0.2-1.4,0.4-2,0.7c-0.7,0.3-1.5,0.5-2.2,0.6
					c-0.1,0-0.2,0.1-0.3,0.2c0.1,0.1,0.2,0.2,0.3,0.2c0.7,0,1.3,0,2-0.1C238.1,208.8,239.3,208.8,240.3,209.1z"/>
				<path fill="#ED1C24" stroke="#000000" stroke-miterlimit="10" d="M194.7,222.5c0.2-1.1,0.5-2.1,0.7-3.2c0.1-0.4,0.1-0.8,0.1-1.2
					c0-0.9-0.1-1.8-0.1-2.6c-0.1-1.7-0.3-3.4-0.5-5.1c0-0.4-0.1-0.8-0.1-1.2c0-1.4,0-2.8,0-4.2c0-1.2,0-2.3,0-3.5
					c2,0.1,3.9-0.3,5.9-1.1c0.1,0.5,0.2,1,0.2,1.4c0.1,1.4,0.1,2.8,0.1,4.2c0,0.5-0.1,1-0.2,1.5c-0.4,2.1-0.7,4.3-0.5,6.5
					c0.1,1.2,0.2,2.3,0.5,3.5c0.3,1.2,0.6,2.5,1.3,3.6c0.5,0.8,1.1,1.4,1.8,2c0.2,0.1,0.3,0.2,0.4,0.4c0,0,0,0.1,0,0.1
					c-0.3-0.1-0.6-0.2-0.9-0.4c-0.2-0.1-0.4-0.1-0.6-0.2c-0.5-0.2-1.1-0.3-1.5-0.5c-1.3-0.7-2.7-0.9-4.1-0.7
					C196.3,221.7,195.4,222,194.7,222.5z"/>
				<path fill="#ED1C24" stroke="#000000" stroke-miterlimit="10" d="M199.5,258.5c-1.9-0.7-3.7-0.4-5.6,0.1c0-2,0.1-4,0.1-6
					c-0.1-2-0.3-4-0.3-6.1c0.3,0.5,0.7,1,1,1.6c0.5,0.8,0.9,1.7,1.4,2.5c0.4,0.6,0.7,1.2,1.1,1.7c0.2,0.3,0.6,0.5,0.8,0.8
					c0.4,0.5,0.8,1.1,1.2,1.6c0,0,0.1,0.1,0.1,0.1C199.4,256,199.5,257.3,199.5,258.5z"/>
				<path fill="#ED1C24" stroke="#000000" stroke-miterlimit="10" d="M184.8,209.5c0.3-0.3,0.5-0.5,0.7-0.7c0.1,0.1,0.2,0.1,0.2,0.2
					c1.1,1,2.4,1.6,3.8,1.8c1.4,0.2,2.9,0.2,4.3,0.1c0.3,0,0.4,0.1,0.4,0.4c0.1,0.7,0.2,1.4,0.3,2.1c0,0.1,0,0.3,0,0.4
					c-1.6-0.1-3.1-0.2-4.7-0.2c-1.5,0-3.1,0-4.6,0c0-0.3,0-0.6,0-1c0.6-0.1,1.2-0.3,1.8-0.4c0.3-0.1,0.6-0.1,0.8-0.2
					c0.2-0.1,0.4-0.2,0.3-0.4c-0.1-0.1-0.3-0.2-0.5-0.3c0,0,0,0-0.1,0c-0.4,0.2-0.8,0-1.1-0.2C185.9,210.5,185.4,210,184.8,209.5z"
					/>
				<path fill="#ED1C24" stroke="#000000" stroke-miterlimit="10" d="M194.4,219.8c0,0.3-0.1,0.5-0.1,0.7c-0.1,0.4-0.2,0.9-0.4,1.3
					c-0.1,0.2-0.2,0.3-0.4,0.2c-1.2-0.3-2.4-0.4-3.6-0.3c-1.3,0.1-2.6,0.2-3.8,0.7c-0.6,0.3-1.1,0.6-1.6,0.9
					c-0.2-0.2-0.3-0.4-0.6-0.7c0.4-0.3,0.9-0.6,1.3-0.8c0.7-0.4,1.4-0.6,2.2-1c0.1-0.1,0.3-0.1,0.3-0.2c0.3-0.3,0.2-0.7-0.2-0.8
					c-0.2-0.1-0.3-0.1-0.5-0.1c-1.1-0.3-2.1-0.9-2.9-1.5c0.1-0.4,0.3-0.7,0.4-1.1c0.4,0.2,0.9,0.5,1.3,0.7c0.7,0.3,1.4,0.7,2.1,1
					c1.1,0.5,2.3,0.8,3.5,0.8C192.5,219.7,193.5,219.8,194.4,219.8z"/>
				<path fill="#ED1C24" stroke="#000000" stroke-miterlimit="10" d="M214,261.6c0.7,0.1,1.4,0.3,2.1,0.4c0.7,0.1,1.5,0.2,2.2,0.3
					c1.2,0.1,2.4,0.3,3.6,0.4c0.2,0,0.3,0.1,0.3,0.3c0,0.8-0.1,1.6-0.1,2.5c-0.4-0.1-0.8-0.3-1.2-0.4c-0.8-0.1-1.6-0.3-2.4-0.3
					c-0.8,0-1.7,0.1-2.5,0.2c-0.2,0-0.4,0-0.6,0.1c-0.5,0.1-0.9,0.2-1.4,0.3C214,264.1,214,262.9,214,261.6z"/>
				<path fill="#ED1C24" stroke="#000000" stroke-miterlimit="10" d="M214.2,266.4c0.8-0.4,1.6-0.8,2.6-0.7c1,0.1,1.9,0,2.9,0.1
					c0.7,0.1,1.5,0.2,2.1,0.6c0.1,0.1,0.2,0.2,0.3,0.3c-0.1,0.1-0.2,0.2-0.3,0.2c-0.6,0.2-1.3,0.3-1.9,0.5c-1.5,0.3-3.1,0-4.6-0.3
					c-0.1,0-0.3-0.1-0.4-0.1C214.4,266.9,214.4,266.8,214.2,266.4z"/>
				<path fill="#ED1C24" stroke="#000000" stroke-miterlimit="10" d="M232.8,221.4c-0.2-0.4-0.4-0.7-0.6-1.1
					c1.1-0.5,2.2-1.1,3.5-1.4c0.1,0.5,0.2,0.9,0.3,1.4C234.9,220.5,233.8,220.8,232.8,221.4z"/>
				<path fill="#ED1C24" stroke="#000000" stroke-miterlimit="10" d="M199.2,259.5c-1.6,0.7-4.3,0.7-5.1-0.1
					c0.2-0.1,0.4-0.2,0.7-0.2c1.1-0.3,2.1-0.3,3.2-0.2C198.4,259,198.9,259.1,199.2,259.5z"/>
				<path fill="#ED1C24" stroke="#000000" stroke-miterlimit="10" d="M229.3,217.6c0.7-0.8,2-1.6,2.7-1.6c0.2,0.3,0.4,0.5,0.5,0.8
					c-0.3,0.2-0.7,0.4-1.1,0.7c-0.3,0.2-0.6,0.5-0.9,0.7c-0.1,0.1-0.2,0.1-0.3,0C229.9,218.1,229.6,217.8,229.3,217.6z"/>
				<path fill="#ED1C24" stroke="#000000" stroke-miterlimit="10" d="M194.9,200.4c0.7-0.7,4.3-1.4,5.2-1
					C199.5,199.9,196.2,200.6,194.9,200.4z"/>
				<path fill="#ED1C24" stroke="#000000" stroke-miterlimit="10" d="M211.7,210.5c0.2-0.4,0.7-0.7,1-0.6c0.3,0.1,0.4,0.3,0.5,0.8
					C212.6,210.7,212.2,210.6,211.7,210.5z"/>
				<path fill="#ED1C24" stroke="#000000" stroke-miterlimit="10" d="M217.2,193.6c-0.5,0.3-1.3,0-1.6-0.6
					C216.1,192.8,217,193.1,217.2,193.6z"/>
				<path fill="#ED1C24" stroke="#000000" stroke-miterlimit="10" d="M241.5,209.4c0,0.4,0,0.7,0,1.1c0,0.2-0.2,0.2-0.3,0.1
					c-0.3-0.2-0.4-0.9-0.1-1.1c0.1-0.1,0.2-0.1,0.3-0.2C241.4,209.4,241.5,209.4,241.5,209.4z"/>
				<path fill="#ED1C24" stroke="#000000" stroke-miterlimit="10" d="M237.3,219.6c-0.1,0.1-0.1,0.3-0.2,0.4
					c-0.1-0.1-0.3-0.1-0.4-0.2c-0.1-0.2-0.2-0.4-0.2-0.6c0-0.1,0.1-0.3,0.2-0.3c0.1,0,0.3,0.1,0.4,0.1
					C237.2,219.2,237.3,219.4,237.3,219.6z"/>
				<path fill="#ED1C24" stroke="#000000" stroke-miterlimit="10" d="M239.5,205.4c0.6,0.3,0.8,0.8,0.6,1.2
					C239.7,206.4,239.4,206,239.5,205.4z"/>
				<path fill="#ED1C24" stroke="#000000" stroke-miterlimit="10" d="M211.4,193.1c-0.3,0.5-1,0.7-1.5,0.4
					C210.4,193.2,210.9,193.1,211.4,193.1z"/>
				<path fill="#ED1C24" stroke="#000000" stroke-miterlimit="10" d="M203.7,195c0.5-0.1,0.9-0.2,1.4-0.4c-0.2,0.6-0.8,0.7-1.4,0.5
					C203.8,195.1,203.8,195,203.7,195z"/>
				<path fill="#ED1C24" stroke="#000000" stroke-miterlimit="10" d="M233.5,216.5c-0.2-0.2-0.4-0.4-0.6-0.6c0,0,0-0.2,0-0.3
					c0.1,0,0.2,0,0.3,0c0.2,0.2,0.5,0.4,0.4,0.7C233.5,216.4,233.5,216.4,233.5,216.5z"/>
				<path fill="#ED1C24" stroke="#000000" stroke-miterlimit="10" d="M184.7,208.1c0,0.4-0.3,0.7-0.7,0.5
					C184,208.3,184.3,208.1,184.7,208.1z"/>
				<path fill="#ED1C24" stroke="#000000" stroke-miterlimit="10" d="M183.9,213.2c0.1-0.2,0.1-0.3,0.2-0.5c0,0,0.2,0,0.2,0
					c0,0.2,0.1,0.4,0.1,0.5c0,0.1-0.2,0.2-0.2,0.3C184.1,213.5,184,213.4,183.9,213.2z"/>
				<path fill="#ED1C24" stroke="#000000" stroke-miterlimit="10" d="M213,217.7c-0.1-0.2-0.3-0.5-0.4-0.7
					C213.1,217.1,213.3,217.3,213,217.7z"/>
				<path fill="#ED1C24" stroke="#000000" stroke-miterlimit="10" d="M183.4,217.6c0.1-0.2,0.1-0.5,0.2-0.7c0.2,0.3,0.2,0.5,0,0.8
					C183.6,217.6,183.5,217.6,183.4,217.6z"/>
				<path fill="#ED1C24" stroke="#000000" stroke-miterlimit="10" d="M183.7,224.1c-0.1-0.2-0.2-0.4-0.4-0.6
					C183.8,223.5,183.8,223.6,183.7,224.1z"/>
				<path fill="#ED1C24" stroke="#000000" stroke-miterlimit="10" d="M201.3,239.1c-0.1-0.4-0.2-0.8-0.4-1.1
					c-0.1-0.2-0.3-0.3-0.5-0.4c-0.9-0.2-1.8-0.5-2.7-0.7c-0.9-0.1-1.7-0.3-2.5-0.7c-0.6-0.3-1.2-0.6-1.8-0.9
					c-0.2-0.1-0.4-0.3-0.4-0.5c-0.1-0.2-0.2-0.4-0.3-0.6c-0.4-0.6-0.5-1.3-0.6-2c-0.1-1.5,0.3-3,0.9-4.4c0.3-0.7,0.5-1.3,0.8-2
					c0.4-0.9,1-1.6,1.9-2.1c0.4-0.2,0.7-0.4,1.1-0.6c0.8-0.3,1.6-0.3,2.5-0.2c0.8,0.1,1.5,0.4,2.1,0.9c0.6,0.4,1.2,0.5,1.9,0.5
					c0.3,0,0.6,0,0.8,0.1c0.5,0.1,1,0.2,1.3,0.7c0.4,0.7,0.8,1.3,0.8,2.2c0.1,1.3-0.6,2.3-1.2,3.3c-0.6,0.8-1.2,1.6-1.4,2.6
					c-0.2,1-0.2,2,0,3c0,0.3,0.3,0.6,0.5,0.8c0-0.7,0.1-1.4,0-2c-0.1-1.1,0.3-2.1,0.9-3c0.4-0.7,0.8-1.4,1.1-2.1
					c0.2-0.5,0.6-0.8,1-1.2c0.4-0.3,0.8-0.7,1.1-1c0.7-0.6,1.6-1,2.5-1.2c1.2-0.2,2.4-0.4,3.6-0.2c0.7,0.1,1.3,0.3,1.9,0.6
					c0.7,0.4,1.2,1.1,1.6,1.8c0.6,1,0.7,2.1,0.9,3.3c0.2,1.2,0.2,2.5,0.1,3.7c0,0.3-0.1,0.5-0.1,0.8c-0.3,1.2-0.2,2.3,0,3.5
					c0.2,1.5,0.9,2.8,1.3,4.2c0.3,1,0.7,2,1,3c0.3,0.9,0.8,1.8,1.3,2.6c0.5,0.8,0.8,1.6,1.2,2.4c0.3,0.6,0.7,1.1,1,1.7
					c0.4,0.8,0.5,1.7,0.3,2.5c-0.2,0.9-0.8,1.6-1.8,1.8c-0.7,0.1-1.4,0.1-2.1,0.3c-0.5,0.1-1,0.2-1.5,0.4c-0.7,0.3-1.4,0.5-2.2,0.3
					c-0.6-0.2-1.2-0.2-1.8-0.3c-0.5-0.1-1.1-0.3-1.6-0.5c-0.7-0.3-1.4-0.7-2.2-1.1c-0.4-0.2-0.8-0.3-1.2-0.4
					c-0.6-0.2-1.1-0.4-1.7-0.5c-0.4-0.1-0.8-0.1-1.2-0.2c-1-0.2-2-0.5-2.8-1.2c-0.7-0.6-1.3-1.2-1.9-1.8c-0.6-0.6-1.1-1.3-1.8-1.7
					c-0.4-0.2-0.7-0.7-1-1c-0.3-0.4-0.6-0.7-0.9-1.1c-0.3-0.4-0.6-0.8-0.8-1.2c-0.3-0.7-0.7-1.3-1.4-1.8c-0.7-0.5-1-1.2-1.3-2
					c-0.2-0.5-0.3-1-0.4-1.5c-0.1-1-0.7-1.8-1.4-2.6c-0.7-0.8-1.3-1.5-1.2-2.7c0-0.2-0.1-0.5,0-0.7c0-0.6,0.5-0.9,1-0.6
					c0.6,0.3,1.1,0.6,1.7,0.8c0.9,0.3,1.9,0.4,2.8,0.6c0.7,0.2,1.3,0.3,2,0.6c0.2,0.1,0.4,0.3,0.6,0.5
					C200.9,238.8,201.1,239,201.3,239.1C201.3,239.1,201.3,239.1,201.3,239.1z M193.3,236.7c0,0.2,0,0.3-0.1,0.4
					c-0.1,1.1,0.3,1.9,1.1,2.7c0.9,0.9,1.5,2,1.7,3.3c0.2,1.2,0.7,2.3,1.7,3c0.3,0.2,0.5,0.5,0.7,0.8c0.3,0.5,0.5,1,0.8,1.4
					c0.5,0.6,1,1.2,1.5,1.8c0.3,0.3,0.7,0.6,1,0.9c0.2,0.2,0.4,0.3,0.6,0.5c0.8,0.8,1.5,1.6,2.2,2.4c0.8,0.9,1.9,1.2,3,1.5
					c0.5,0.1,1,0.1,1.5,0.3c0.4,0.1,0.7,0.3,1,0.4c0.9,0.2,1.7,0.6,2.6,1c0.9,0.5,1.8,0.7,2.7,1.1c0.4,0.1,0.9,0.1,1.3,0.3
					c0.7,0.3,1.3,0.2,1.9-0.1c0.9-0.4,1.9-0.7,2.9-0.7c0.5,0,1-0.1,1.4-0.4c0.9-0.6,1.1-1.9,0.6-2.9c-0.4-0.8-0.9-1.5-1.3-2.3
					c-0.7-1.4-1.4-2.8-2.1-4.1c-0.3-0.6-0.5-1.2-0.7-1.8c-0.3-0.8-0.5-1.6-0.8-2.4c-0.3-0.8-0.6-1.6-0.8-2.4
					c-0.3-1.3-0.5-2.7-0.3-4.1c0.2-0.9,0.3-1.8,0.3-2.8c0-0.8-0.1-1.5-0.1-2.2c-0.5,0.1-1,0.2-1.5,0.2c-0.8,0-1.6-0.1-2.3-0.3
					c-1-0.3-2-0.6-3-1c-0.9-0.4-1.5-1-1.9-1.9c-0.1-0.3-0.2-0.5-0.4-0.8c-0.1,0.1-0.2,0.2-0.3,0.3c-0.3,0.3-0.7,0.6-1,0.9
					c-0.2,0.2-0.4,0.4-0.6,0.6c-0.5,0.9-1.1,1.8-1.6,2.7c-0.3,0.5-0.6,1-0.6,1.5c0,0.6,0,1.2,0.1,1.8c0.1,0.7,0.1,1.4,0.2,2.1
					c0,0.2,0,0.4-0.3,0.5c-0.2,0.1-0.3,0-0.5-0.2c-0.3-0.5-0.7-1.1-1.1-1.6c-0.2-0.3-0.4-0.6-0.4-0.9c-0.1-1-0.2-2,0.1-3
					c0.3-1.1,0.9-2,1.5-2.8c0.7-1,1.2-2,1-3.3c-0.1-0.6-0.5-1-0.8-1.4c0,0-0.1-0.1-0.2-0.1c-0.4-0.2-0.9-0.3-1.4-0.3
					c-0.3,0-0.5,0.1-0.6,0.4c-0.2,0.4-0.5,0.7-0.9,0.9c-0.6,0.2-1.1,0.5-1.7,0.6c-2,0.5-3.9,0.7-5.9-0.1c-0.2,0.4-0.3,0.9-0.5,1.3
					c-0.4,1-0.7,2-0.8,3.1c-0.1,1.1,0.1,2.2,0.9,3.1c0.1,0.1,0.1,0.2,0.2,0.3c0.1,0.1,0.3,0.3,0.4,0.4c0.5,0.2,0.9,0.4,1.4,0.7
					c0.7,0.3,1.4,0.5,2.1,0.6c1,0.2,2,0.5,2.9,0.7c0.5,0.1,0.9,0.4,1,1c0.1,0.7,0.3,1.3,0.4,2c0.1,0.4-0.1,0.6-0.5,0.4
					c-0.1,0-0.2-0.1-0.4-0.2c-0.2-0.1-0.3-0.3-0.5-0.4c-0.5-0.4-0.8-0.9-1.5-1c-0.6-0.1-1.2-0.3-1.8-0.4c-1-0.2-2-0.3-2.8-0.8
					C194.2,237.2,193.8,237,193.3,236.7z M209.4,228c0.6,1.6,1.4,2.2,2.7,2.7c1.4,0.5,2.8,0.8,4.2,1c0.4,0,0.8,0,1.2-0.2
					c0.2-0.1,0.3-0.3,0.2-0.5c-0.2-0.6-0.4-1.2-0.7-1.8c-0.3-0.6-0.7-1.1-1.3-1.4c-1.4-0.6-2.9-0.6-4.3-0.4
					C210.7,227.4,210,227.6,209.4,228z M201.9,225c-0.4-0.2-0.8-0.4-1-0.6c-0.7-0.6-1.5-0.7-2.3-0.8c-1-0.1-1.9,0.2-2.7,0.7
					c-0.5,0.3-1,0.7-1.4,1.3c-0.1,0.2-0.1,0.5,0.1,0.6c0.3,0.1,0.6,0.2,0.8,0.3c1.9,0.2,3.8,0,5.6-0.8
					C201.3,225.5,201.6,225.3,201.9,225z"/>
				<path fill="#ED1C24" stroke="#000000" stroke-miterlimit="10" d="M227.9,233.2c0.1-0.8,0.3-1.7-0.1-2.6c-0.1-0.3-0.1-0.7-0.3-1
					c-0.4-1-1-1.8-1.7-2.5c-0.5-0.6-1.2-1-2-1.2c-0.8-0.2-1.2-0.8-1.3-1.6c-0.1-0.6-0.1-1.2,0.2-1.9c0.4-0.9,0.7-1.8,1-2.7
					c0.3-0.9,1-1.3,1.9-1.4c1.4-0.1,2.7,0.3,3.9,1c1.2,0.8,1.9,2,2.2,3.3c0.2,0.9,0.6,1.7,1.1,2.5c0.5,0.8,0.4,1.8-0.1,2.6
					c-0.4,0.6-0.8,1.1-1.1,1.8c-0.4,1.1-0.7,2.2-0.5,3.4c0.1,0.3,0.1,0.6,0.2,0.9c0.1-0.5,0.1-1,0.2-1.4c0.2-0.8,0.3-1.7,0.6-2.5
					c0.2-0.6,0.6-1.2,1-1.8c0.3-0.5,1-0.5,1.5-0.1c0.7,0.6,0.9,1.4,1,2.2c0.1,1.3,0.1,2.5,0.1,3.8c0,0.5,0.1,1.1,0.1,1.6
					c0.1,0.7,0.4,1.4,0.9,1.9c0.6,0.6,0.8,1.4,0.9,2.2c0,0.2,0.1,0.4,0.2,0.6c0.4,0.5,0.6,1.2,0.8,1.8c0.2,0.7,0.6,1.4,1,2
					c0.3,0.5,0.6,0.9,0.8,1.4c0.2,0.5,0.2,1.1,0.3,1.7c0,0.4,0.1,0.8,0,1.2c-0.1,0.6-0.2,1-0.9,1.1c-0.9,0.1-0.9,0.3-0.7,1.2
					c0.2,0.5,0.2,1.1,0.3,1.6c0,0.4-0.3,0.7-0.6,1c-0.4,0.4-0.8,0.8-1.2,1.3c-0.2,0.3-0.4,0.4-0.8,0.3c-0.3-0.1-0.5-0.3-0.5-0.6
					c0-0.1-0.1-0.2-0.2-0.2c-0.4-0.1-0.7,0.1-0.8,0.5c-0.2,0.7-0.4,1.3-0.7,1.9c-0.6,1.2-2,0.9-2.6,0.1c-0.5-0.7-0.8-1.5-0.9-2.3
					c-0.1-0.6-0.2-1.2-0.6-1.7c-0.5-0.7-0.9-1.4-1.3-2.1c-0.6-0.9-1.2-1.8-1.8-2.6c-0.2-0.2-0.3-0.5-0.5-0.7
					c-0.6-0.9-1.3-1.7-2.2-2.4c-0.7-0.5-1.3-1.2-1.9-1.8c-0.8-0.8-1.3-1.8-1.6-2.8c-0.2-0.5-0.4-1-0.6-1.5c-0.3-0.8-0.1-1.6,0.1-2.4
					c0.2-0.9,0.5-1.9,0.7-2.8c0.2-0.9,0.6-1.8,1-2.6c0.3-0.6,0.5-1.2,0.8-1.9c0.2-0.3,0.3-0.7,0.5-1c0.4-0.6,1.1-0.8,1.7-0.3
					c0.8,0.6,1.6,1.4,1.8,2.4c0.1,0.4,0.3,0.8,0.4,1.2C227.6,231.9,227.7,232.6,227.9,233.2z M237,253.7c0.3-0.4,0.7-0.8,1.1-1.2
					c0.2-0.2,0.3-0.4,0.2-0.7c-0.1-0.4-0.1-0.8-0.3-1.2c-0.3-1.1-0.1-1.7,0.9-2c0.1,0,0.2,0,0.4,0c0.2,0,0.3-0.1,0.3-0.3
					c0-0.4,0-0.8,0-1.2c0-0.5-0.1-0.9-0.2-1.3c-0.2-0.5-0.6-1-0.9-1.5c-0.3-0.6-0.6-1.2-0.9-1.8c-0.2-0.5-0.2-1.1-0.6-1.5
					c-0.3-0.3-0.4-0.8-0.5-1.2c-0.1-0.6-0.3-1.2-0.7-1.7c-0.3-0.4-0.6-0.7-0.8-1.1c-0.3-0.9-0.4-1.8-0.4-2.7c0-1,0.1-1.9,0.1-2.9
					c0-0.7-0.1-1.5-0.4-2.1c-0.1-0.2-0.2-0.4-0.4-0.5c-0.2-0.2-0.5-0.1-0.6,0.1c-0.3,0.5-0.7,1-0.8,1.5c-0.3,1.1-0.5,2.2-0.7,3.3
					c-0.1,0.7-0.1,1.5-0.2,2.2c0,0.1-0.1,0.3-0.2,0.3c-0.1,0-0.3-0.1-0.4-0.2c-0.1,0-0.1-0.1-0.1-0.2c-0.5-1-0.6-2.1-0.7-3.2
					c0-0.7,0.2-1.4,0.3-2.1c0-0.2,0.1-0.5,0.2-0.7c0.4-0.7,0.8-1.5,1.3-2.1c0.5-0.6,0.3-1.2,0.1-1.8c-0.3-0.6-0.7-1.2-1-1.8
					c0-0.1-0.1-0.1-0.1-0.2c-0.8,0.6-1.5,0.2-1.9-0.4c-0.4-0.7,0.1-1.6,1-2.1c-0.1-0.2-0.3-0.4-0.4-0.6c-0.7,0.9-1.1,1.1-2,0.6
					c-0.3-0.2-0.5-0.4-0.7-0.8c-0.2-0.4-0.1-0.8,0.2-1.3c-0.7,0-1.3-0.1-1.8,0c-0.6,0.1-1.1,0.4-1.3,1.1c-0.2,0.6-0.4,1.1-0.6,1.7
					c-0.3,0.8-0.7,1.6-0.4,2.5c0.1,0.5,0.4,0.8,0.9,0.9c0.5,0.2,1,0.3,1.4,0.6c1.2,1,2,2.2,2.6,3.6c0.2,0.5,0.3,1,0.5,1.5
					c0.1,0.3,0.1,0.7,0.1,1c0,0.2,0,0.4,0,0.6c-0.1,0.9-0.2,1.8-0.6,2.5c-0.1,0.1-0.2,0.2-0.3,0.2c-0.1,0-0.2-0.2-0.2-0.3
					c0-0.2,0-0.5-0.1-0.7c-0.3-1.4-0.6-2.8-1.1-4.1c-0.3-0.8-0.9-1.4-1.5-2c-0.1-0.1-0.3-0.1-0.5-0.1c0,0,0,0.1,0,0.1
					c0.5,0.1,0.8,0.3,1,0.7c0.1,0.2,0.2,0.4,0.3,0.7c0.9,1.7,0.3,4-0.9,5.3c-0.6,0.7-1.3,1-2.1,1.5c-0.4,0.3-0.9,0.3-1.3-0.1
					c0,0-0.1,0-0.1,0c-0.3,0.6-0.3,1.8-0.1,2.4c0.2,0.5,0.5,1,0.7,1.5c0.5,1.6,1.7,2.7,2.9,3.7c0.9,0.8,1.8,1.5,2.4,2.5
					c0.4,0.6,0.8,1.1,1.2,1.6c0.5,0.7,0.9,1.5,1.4,2.2c0.2,0.4,0.5,0.7,0.7,1c0.1,0.2,0.2,0.5,0.4,0.7c0.6,0.7,0.7,1.5,0.8,2.3
					c0.1,0.7,0.3,1.3,0.8,1.8c0.4,0.4,1,0.6,1.2-0.2c0.2-0.6,0.4-1.2,0.6-1.8c0.1-0.3,0.2-0.6,0.5-0.7c0.5-0.3,1-0.3,1.5-0.2
					C236.6,253.3,236.8,253.6,237,253.7z M225.2,231.3c0-0.8-0.3-1.5-0.6-2.1c-0.2-0.4-0.6-0.4-0.8-0.1c-0.1,0.1-0.2,0.3-0.3,0.5
					c-0.4,0.8-0.7,1.5-1.1,2.3c-0.5,1-0.7,2.1-0.8,3.2c0,0.5,0.4,0.8,0.8,0.5c0.4-0.2,0.8-0.4,1.1-0.7
					C224.8,234,225.1,232.7,225.2,231.3z M228.7,220.6c0.1-0.1,0.2-0.2,0.3-0.3c0-0.1,0-0.3-0.1-0.3c-0.2-0.1-0.5-0.2-0.7-0.3
					c-0.2-0.1-0.4,0.1-0.4,0.3C227.8,220.2,228.2,220.6,228.7,220.6z M230.6,222.4L230.6,222.4c0-0.1,0-0.2,0-0.2
					c-0.1-0.1-0.1-0.3-0.2-0.3c-0.1,0-0.2,0.1-0.3,0.2c-0.1,0.1-0.2,0.3-0.2,0.5c0,0.3,0.1,0.4,0.4,0.5c0.3,0,0.3-0.2,0.4-0.4
					C230.6,222.6,230.6,222.5,230.6,222.4z"/>
				<path fill="#ED1C24" stroke="#000000" stroke-miterlimit="10" d="M193.3,236.7c0.5,0.2,0.9,0.5,1.3,0.7c0.9,0.5,1.9,0.7,2.8,0.8
					c0.6,0.1,1.2,0.2,1.8,0.4c0.6,0.1,1,0.7,1.5,1c0.2,0.1,0.3,0.3,0.5,0.4c0.1,0.1,0.2,0.2,0.4,0.2c0.4,0.1,0.6,0,0.5-0.4
					c-0.1-0.7-0.3-1.3-0.4-2c-0.1-0.5-0.5-0.9-1-1c-1-0.3-2-0.6-2.9-0.7c-0.7-0.1-1.5-0.2-2.1-0.6c-0.5-0.2-1-0.4-1.4-0.7
					c-0.2-0.1-0.3-0.2-0.4-0.4c-0.1-0.1-0.1-0.2-0.2-0.3c-0.8-0.9-0.9-1.9-0.9-3.1c0.1-1.1,0.4-2.1,0.8-3.1c0.2-0.4,0.3-0.9,0.5-1.3
					c2,0.8,3.9,0.6,5.9,0.1c0.6-0.2,1.1-0.4,1.7-0.6c0.4-0.2,0.7-0.4,0.9-0.9c0.1-0.3,0.3-0.3,0.6-0.4c0.5,0,0.9,0.1,1.4,0.3
					c0.1,0,0.1,0.1,0.2,0.1c0.3,0.4,0.7,0.8,0.8,1.4c0.2,1.3-0.3,2.3-1,3.3c-0.6,0.9-1.2,1.8-1.5,2.8c-0.2,1-0.2,2-0.1,3
					c0,0.3,0.2,0.6,0.4,0.9c0.3,0.5,0.7,1.1,1.1,1.6c0.1,0.2,0.3,0.2,0.5,0.2c0.2-0.1,0.3-0.2,0.3-0.5c-0.1-0.7-0.2-1.4-0.2-2.1
					c0-0.6-0.1-1.2-0.1-1.8c0-0.6,0.3-1.1,0.6-1.5c0.5-0.9,1-1.8,1.6-2.7c0.1-0.2,0.4-0.4,0.6-0.6c0.3-0.3,0.7-0.6,1-0.9
					c0.1-0.1,0.2-0.1,0.3-0.3c0.1,0.3,0.3,0.6,0.4,0.8c0.4,0.9,1.1,1.5,1.9,1.9c1,0.4,2,0.7,3,1c0.8,0.2,1.5,0.3,2.3,0.3
					c0.5,0,0.9-0.1,1.5-0.2c0,0.7,0.2,1.5,0.1,2.2c0,0.9-0.2,1.8-0.3,2.8c-0.2,1.4-0.1,2.8,0.3,4.1c0.2,0.8,0.6,1.6,0.8,2.4
					c0.3,0.8,0.5,1.6,0.8,2.4c0.2,0.6,0.4,1.2,0.7,1.8c0.7,1.4,1.4,2.8,2.1,4.1c0.4,0.8,0.9,1.5,1.3,2.3c0.5,1,0.3,2.2-0.6,2.9
					c-0.4,0.3-0.9,0.4-1.4,0.4c-1,0-2,0.2-2.9,0.7c-0.6,0.3-1.3,0.3-1.9,0.1c-0.4-0.2-0.9-0.1-1.3-0.3c-0.9-0.3-1.9-0.6-2.7-1.1
					c-0.8-0.4-1.6-0.9-2.6-1c-0.4-0.1-0.7-0.3-1-0.4c-0.5-0.1-1-0.2-1.5-0.3c-1.1-0.2-2.2-0.6-3-1.5c-0.8-0.8-1.5-1.6-2.2-2.4
					c-0.2-0.2-0.4-0.3-0.6-0.5c-0.3-0.3-0.7-0.6-1-0.9c-0.5-0.6-1.1-1.2-1.5-1.8c-0.3-0.4-0.5-0.9-0.8-1.4c-0.2-0.3-0.4-0.6-0.7-0.8
					c-1-0.8-1.5-1.8-1.7-3c-0.2-1.3-0.8-2.4-1.7-3.3c-0.8-0.7-1.2-1.6-1.1-2.7C193.3,237,193.3,236.9,193.3,236.7z M195.8,231.3
					c-0.4,0-0.8,0-1.2,0.1c-0.3,0-0.5,0.2-0.7,0.3c-0.7,0.3-0.9,0.7-0.8,1.4c0.1,0.9,1.1,1.5,1.9,1.7c0.9,0.2,1.7,0.2,2.6,0.2
					c0.8,0,1.5-0.2,2.2-0.6c0.5-0.3,0.7-1.1,0.5-1.4c-0.3-0.5-0.7-0.9-1.3-1C198,231.6,196.9,231.3,195.8,231.3z"/>
				<path fill="#ED1C24" stroke="#000000" stroke-miterlimit="10" d="M209.4,228c0.6-0.4,1.3-0.5,2-0.6c1.5-0.2,2.9-0.2,4.3,0.4
					c0.6,0.3,1.1,0.8,1.3,1.4c0.3,0.6,0.5,1.2,0.7,1.8c0.1,0.2,0,0.4-0.2,0.5c-0.4,0.2-0.8,0.2-1.2,0.2c-1.4-0.2-2.9-0.5-4.2-1
					C210.8,230.1,210,229.6,209.4,228z"/>
				<path fill="#ED1C24" stroke="#000000" stroke-miterlimit="10" d="M201.9,225c-0.3,0.2-0.6,0.5-0.9,0.7c-1.8,0.8-3.7,1-5.6,0.8
					c-0.3,0-0.6-0.2-0.8-0.3c-0.2-0.1-0.3-0.4-0.1-0.6c0.3-0.6,0.8-0.9,1.4-1.3c0.8-0.5,1.7-0.8,2.7-0.7c0.8,0.1,1.7,0.2,2.3,0.8
					C201.1,224.6,201.5,224.8,201.9,225z"/>
				<path fill="#ED1C24" stroke="#000000" stroke-miterlimit="10" d="M237,253.7c-0.2-0.2-0.4-0.4-0.7-0.5c-0.5-0.1-1-0.1-1.5,0.2
					c-0.3,0.2-0.4,0.4-0.5,0.7c-0.2,0.6-0.4,1.2-0.6,1.8c-0.3,0.7-0.9,0.6-1.2,0.2c-0.5-0.5-0.7-1.1-0.8-1.8
					c-0.1-0.8-0.2-1.7-0.8-2.3c-0.2-0.2-0.2-0.5-0.4-0.7c-0.2-0.3-0.5-0.7-0.7-1c-0.5-0.7-0.9-1.5-1.4-2.2c-0.4-0.6-0.8-1.1-1.2-1.6
					c-0.7-1-1.5-1.8-2.4-2.5c-1.2-1-2.4-2.1-2.9-3.7c-0.2-0.5-0.4-1-0.7-1.5c-0.2-0.6-0.2-1.8,0.1-2.4c0,0,0.1,0,0.1,0
					c0.4,0.4,0.8,0.3,1.3,0.1c0.7-0.4,1.5-0.8,2.1-1.5c1.2-1.3,1.7-3.6,0.9-5.3c-0.1-0.2-0.2-0.4-0.3-0.7c-0.2-0.4-0.5-0.6-1-0.7
					c0,0,0-0.1,0-0.1c0.2,0,0.4,0,0.5,0.1c0.6,0.6,1.2,1.1,1.5,2c0.5,1.3,0.8,2.7,1.1,4.1c0,0.2,0,0.5,0.1,0.7
					c0,0.1,0.1,0.3,0.2,0.3c0.1,0,0.3-0.1,0.3-0.2c0.5-0.8,0.5-1.7,0.6-2.5c0-0.2,0.1-0.4,0-0.6c0-0.3,0-0.7-0.1-1
					c-0.1-0.5-0.3-1-0.5-1.5c-0.6-1.4-1.4-2.6-2.6-3.6c-0.4-0.3-0.9-0.4-1.4-0.6c-0.5-0.2-0.8-0.4-0.9-0.9c-0.2-0.9,0.1-1.7,0.4-2.5
					c0.2-0.6,0.5-1.1,0.6-1.7c0.2-0.7,0.6-1,1.3-1.1c0.6-0.1,1.1,0,1.8,0c-0.3,0.5-0.4,0.9-0.2,1.3c0.1,0.3,0.3,0.6,0.7,0.8
					c0.9,0.4,1.3,0.3,2-0.6c0.1,0.2,0.3,0.4,0.4,0.6c-0.9,0.4-1.4,1.4-1,2.1c0.4,0.7,1.1,1,1.9,0.4c0,0.1,0.1,0.1,0.1,0.2
					c0.3,0.6,0.7,1.2,1,1.8c0.3,0.5,0.4,1.2-0.1,1.8c-0.5,0.7-0.9,1.4-1.3,2.1c-0.1,0.2-0.2,0.4-0.2,0.7c-0.1,0.7-0.3,1.4-0.3,2.1
					c0.1,1.1,0.2,2.2,0.7,3.2c0,0.1,0.1,0.2,0.1,0.2c0.1,0.1,0.3,0.2,0.4,0.2c0.1,0,0.2-0.2,0.2-0.3c0.1-0.7,0.1-1.5,0.2-2.2
					c0.2-1.1,0.4-2.2,0.7-3.3c0.2-0.5,0.5-1,0.8-1.5c0.1-0.3,0.4-0.3,0.6-0.1c0.2,0.1,0.3,0.3,0.4,0.5c0.3,0.7,0.4,1.4,0.4,2.1
					c0,1,0,1.9-0.1,2.9c0,0.9,0.1,1.8,0.4,2.7c0.2,0.5,0.5,0.8,0.8,1.1c0.4,0.5,0.6,1.1,0.7,1.7c0.1,0.4,0.2,0.9,0.5,1.2
					c0.4,0.5,0.3,1,0.6,1.5c0.3,0.6,0.6,1.2,0.9,1.8c0.3,0.5,0.6,1,0.9,1.5c0.2,0.4,0.2,0.9,0.2,1.3c0,0.4,0,0.8,0,1.2
					c0,0.2-0.1,0.3-0.3,0.3c-0.1,0-0.2,0-0.4,0c-1,0.2-1.3,0.9-0.9,2c0.1,0.4,0.2,0.8,0.3,1.2c0.1,0.3-0.1,0.5-0.2,0.7
					C237.7,253,237.3,253.4,237,253.7z M224,221.5c0,0.4,0.1,0.8,0.5,1c0.4,0.2,0.8,0.2,1.2-0.1c0.5-0.3,0.8-1.3,0.6-1.8
					c-0.3-0.9-1-1-1.6-0.6C224.3,220.4,224,220.9,224,221.5z"/>
				<path fill="#ED1C24" stroke="#000000" stroke-miterlimit="10" d="M225.2,231.3c-0.2,1.4-0.5,2.7-1.6,3.7
					c-0.3,0.3-0.7,0.5-1.1,0.7c-0.5,0.2-0.9,0-0.8-0.5c0.1-1.1,0.3-2.2,0.8-3.2c0.4-0.7,0.7-1.5,1.1-2.3c0.1-0.2,0.2-0.3,0.3-0.5
					c0.3-0.3,0.6-0.3,0.8,0.1C224.9,229.8,225.3,230.5,225.2,231.3z"/>
				<path fill="#ED1C24" stroke="#000000" stroke-miterlimit="10" d="M228.7,220.6c-0.4,0-0.8-0.3-0.9-0.6c0-0.3,0.1-0.4,0.4-0.3
					c0.2,0.1,0.5,0.2,0.7,0.3c0.1,0.1,0.2,0.3,0.1,0.3C228.9,220.4,228.7,220.5,228.7,220.6z"/>
				<path fill="#ED1C24" stroke="#000000" stroke-miterlimit="10" d="M230.6,222.4c0,0.1,0,0.2,0,0.2c0,0.2-0.1,0.4-0.4,0.4
					c-0.2,0-0.4-0.2-0.4-0.5c0-0.2,0.1-0.3,0.2-0.5c0.1-0.1,0.2-0.2,0.3-0.2c0.1,0,0.2,0.2,0.2,0.3
					C230.7,222.2,230.6,222.3,230.6,222.4L230.6,222.4z"/>
				<path fill="#ED1C24" stroke="#000000" stroke-miterlimit="10" d="M195.8,231.3c1.1,0,2.1,0.2,3.2,0.5c0.6,0.2,1,0.6,1.3,1
					c0.3,0.4,0,1.1-0.5,1.4c-0.7,0.4-1.4,0.6-2.2,0.6c-0.9,0-1.8,0-2.6-0.2c-0.9-0.2-1.8-0.9-1.9-1.7c-0.1-0.7,0.1-1.1,0.8-1.4
					c0.2-0.1,0.5-0.2,0.7-0.3C195,231.3,195.4,231.4,195.8,231.3z M193.8,232.7c0.3,0.6,0.7,0.9,1.3,1.1c0.9,0.3,1.8,0.3,2.7,0.3
					c0.5,0,0.9-0.2,1.4-0.3c0.6-0.2,0.6-0.5,0.1-0.8c-0.3-0.2-0.7-0.4-1.1-0.6c-1-0.4-2-0.3-3-0.2
					C194.6,232.2,194.1,232.3,193.8,232.7z"/>
				<path fill="#ED1C24" stroke="#000000" stroke-miterlimit="10" d="M224,221.5c0-0.6,0.3-1.1,0.7-1.5c0.5-0.4,1.2-0.3,1.6,0.6
					c0.2,0.6-0.1,1.5-0.6,1.8c-0.4,0.3-0.8,0.3-1.2,0.1C224.2,222.3,224,221.9,224,221.5z M224.6,221.5c0.1,0.1,0.1,0.3,0.3,0.4
					c0.1,0.1,0.3,0,0.4,0c0.3-0.2,0.5-0.9,0.3-1.2c-0.1-0.1-0.2-0.1-0.3-0.1C224.9,220.7,224.7,221.1,224.6,221.5z"/>
				<path fill="#ED1C24" stroke="#000000" stroke-miterlimit="10" d="M193.8,232.7c0.3-0.4,0.8-0.5,1.3-0.6c1-0.1,2-0.2,3,0.2
					c0.4,0.2,0.8,0.3,1.1,0.6c0.5,0.3,0.5,0.6-0.1,0.8c-0.4,0.2-0.9,0.3-1.4,0.3c-0.9,0.1-1.8,0-2.7-0.3
					C194.5,233.7,194,233.3,193.8,232.7z"/>
				<path fill="#ED1C24" stroke="#000000" stroke-miterlimit="10" d="M224.6,221.5c0.1-0.4,0.3-0.8,0.6-0.9c0.1,0,0.3,0,0.3,0.1
					c0.2,0.3,0,1-0.3,1.2c-0.1,0.1-0.3,0.1-0.4,0C224.7,221.8,224.7,221.7,224.6,221.5z"/>
			</g>
		</g>
		<g>
			<g>
				<path fill="#ED1C24" stroke="#000000" stroke-miterlimit="10" d="M245.8,567.8c-0.2,0-0.4,0-0.6,0.1c-0.7-4.8-1.3-9.7-2-14.5
					c-1.8-11.6-4-23.1-7.3-34.2c-2.5-8.6-4.8-17.3-8.7-25.1c-2-4-1.2-7.6,1.7-9.3c2-1.1,4-1.2,6,0.4c2.6,2,4.9,2.4,6.9-0.3
					c0.2-0.2,0.4-0.4,0.6-0.5c2.3-1.2,4.6-0.5,6.7,1.5c1.9,1.8,1.5,4.6,1.3,7c-0.2,2.8-0.7,5.4-0.8,8.2c-0.9,18.5,0.5,37.1,3.1,55.7
					c1.5,10.5,3.7,20.9,5.2,31.4c1.4,9.7,3,19,7.5,27.3c0.9,1.6,0.9,3.4,0.1,4.9c-1.1,2-2.3,4-3.5,6c-1.1,1.8-2.6,3.2-3.4,5.2
					c-1.5,3.6-3.8,4.7-6.5,5.3c-1.2,0.3-2-1.1-2.9-1.4c-2.8-0.8-3.9-3.8-4.9-6.9c-0.7-2.3,0-3.5,1.4-4.5c1.6-1.3,3.2-2.8,4.4-4.8
					c1-1.6,1.3-3.8,0.5-6.3c-0.4-1.1-0.4-2.5-0.4-3.7c-0.1-2.2,0.2-4.4-0.1-6.6C248.8,591.2,247.3,579.5,245.8,567.8z"/>
				<path fill="#ED1C24" stroke="#000000" stroke-miterlimit="10" d="M245.8,567.8c1.5,11.7,3,23.4,4.4,35c0.3,2.2,0,4.4,0.1,6.6
					c0,1.2,0,2.6,0.4,3.7c0.8,2.5,0.5,4.7-0.5,6.3c-1.2,1.9-2.8,3.5-4.4,4.8c-1.4,1.1-2.1,2.2-1.4,4.5c1,3.1,2.1,6,4.9,6.9
					c0.9,0.3,1.8,1.6,2.9,1.4c2.7-0.6,5.1-1.7,6.5-5.3c0.8-2,2.3-3.4,3.4-5.2c1.2-1.9,2.4-3.9,3.5-6c0.8-1.5,0.8-3.3-0.1-4.9
					c-4.5-8.3-6.1-17.7-7.5-27.3c-1.5-10.5-3.8-20.9-5.2-31.4c-2.6-18.6-4-37.2-3.1-55.7c0.1-2.8,0.6-5.4,0.8-8.2
					c0.2-2.5,0.5-5.3-1.3-7c-2.1-1.9-4.4-2.7-6.7-1.5c-0.2,0.1-0.4,0.3-0.6,0.5c-2.1,2.7-4.4,2.3-6.9,0.3c-2-1.6-4-1.5-6-0.4
					c-3,1.7-3.7,5.2-1.7,9.3c3.9,7.8,6.2,16.5,8.7,25.1c3.2,11.2,5.5,22.6,7.3,34.2c0.8,4.8,1.4,9.7,2,14.5
					C245.4,567.9,245.6,567.9,245.8,567.8z M242.5,485.9c1.4-1.3,1.8-1.3,4.3-0.5c2.4,0.8,3.3,2.2,3.1,5.6
					c-0.2,3.4-0.8,6.7-0.9,10.1c-0.9,18.6,0.5,37.3,3.1,55.9c1.8,13.1,4.3,26,6.4,39c0.3,1.8,0.4,3.8,1,5.4c1.6,4.7,3.3,9.4,5.1,14
					c0.7,1.8,1,3.4,0.1,4.8c-1.3,2.2-2.7,4.2-4.1,6.3c-0.6,0.9-1.3,1.6-1.8,2.5c-1.5,2.8-2.7,6.3-5.8,6.4c-1.1,0-2,1.3-3-0.8
					c-0.1-0.2-0.5-0.3-0.7-0.4c-1.8-0.4-4-3.4-4.4-6c-0.2-1.6,0-2.5,1.2-3.1c2.9-1.7,5.8-4.2,5.5-9.4c-0.2-3.4-0.2-6.7-0.4-10.1
					c-0.5-6.8-1.3-13.6-2.3-20.3c-2-13.7-4.1-27.4-6.5-41c-3.2-17.8-7.4-35.3-14.7-51.3c-1.5-3.3-0.9-5.9,1.4-7.3
					c2.1-1.3,4.2-1,6.2,0.7c3.2,2.7,5.8,0.2,8.7,0c0-0.2,0-0.3,0-0.5C243.6,486,243.1,485.9,242.5,485.9z"/>
				<path fill="#ED1C24" stroke="#000000" stroke-miterlimit="10" d="M242.5,485.9c0.7,0.1,1.1,0.1,1.6,0.2c0,0.2,0,0.3,0,0.5
					c-2.9,0.2-5.5,2.7-8.7,0c-2.1-1.8-4.2-2.1-6.2-0.7c-2.3,1.5-2.9,4.1-1.4,7.3c7.2,16.1,11.5,33.5,14.7,51.3
					c2.4,13.6,4.5,27.3,6.5,41c1,6.7,1.8,13.5,2.3,20.3c0.2,3.3,0.3,6.7,0.4,10.1c0.3,5.2-2.6,7.7-5.5,9.4c-1.2,0.7-1.4,1.5-1.2,3.1
					c0.4,2.7,2.6,5.6,4.4,6c0.2,0.1,0.6,0.1,0.7,0.4c0.9,2.1,1.9,0.8,3,0.8c3.2-0.1,4.3-3.5,5.8-6.4c0.5-0.9,1.2-1.7,1.8-2.5
					c1.4-2.1,2.8-4.2,4.1-6.3c0.9-1.4,0.6-3-0.1-4.8c-1.8-4.6-3.5-9.2-5.1-14c-0.6-1.7-0.7-3.6-1-5.4c-2.2-13-4.6-26-6.4-39
					c-2.6-18.7-4-37.4-3.1-55.9c0.2-3.4,0.7-6.7,0.9-10.1c0.2-3.4-0.7-4.8-3.1-5.6C244.2,484.6,243.9,484.6,242.5,485.9z
					 M248.5,534.7c-0.4-0.2-0.5-0.2-0.5-0.3c-0.2-1.3-0.4-2.6-0.6-4c-1-8.7-2.2-17.3-2.7-26c-0.3-4.5,0.5-9.1,1.1-13.5
					c0.3-2.3,1.2-3.1,2.7-3c-2.2,1.4-2.6,4.1-2.8,6.8c-0.3,4.1-0.7,8.2-0.4,12.3c0.6,7.9,1.7,15.8,2.7,23.6
					C248.1,531.9,248.3,533.2,248.5,534.7z M263.4,616.3c-3.9-2.6-7.8-15.8-6.7-22.4C258.2,601.9,257.8,610.6,263.4,616.3z
					 M229.7,488.3c0-0.2,0-0.4,0-0.7c0.2-0.1,0.5-0.3,0.7-0.2c2.6,0.9,5.3,1.5,7.8,2.8c2.3,1.2,4.2,1.3,5.8-1.3
					c0.3-0.6,0.8-0.9,1.3-1.4c0.1,0.2,0.2,0.3,0.3,0.5c-0.7,0.9-1.3,1.9-2.1,2.5c-0.9,0.7-1.9,1.5-2.9,1.2
					C237,490.8,233.5,487.6,229.7,488.3z"/>
				<path fill="#ED1C24" stroke="#000000" stroke-miterlimit="10" d="M248.5,534.7c-0.2-1.5-0.4-2.7-0.6-4c-0.9-7.9-2-15.8-2.7-23.6
					c-0.3-4.1,0.1-8.2,0.4-12.3c0.2-2.7,0.6-5.5,2.8-6.8c-1.4-0.1-2.4,0.7-2.7,3c-0.6,4.4-1.4,9-1.1,13.5c0.5,8.6,1.8,17.3,2.7,26
					c0.1,1.3,0.4,2.7,0.6,4C248,534.4,248.1,534.5,248.5,534.7z"/>
				<path fill="#ED1C24" stroke="#000000" stroke-miterlimit="10" d="M263.4,616.3c-5.5-5.7-5.2-14.3-6.7-22.4
					C255.6,600.5,259.5,613.7,263.4,616.3z"/>
				<path fill="#ED1C24" stroke="#000000" stroke-miterlimit="10" d="M229.7,488.3c3.9-0.7,7.3,2.5,11,3.5c0.9,0.3,2-0.5,2.9-1.2
					c0.8-0.6,1.4-1.7,2.1-2.5c-0.1-0.2-0.2-0.3-0.3-0.5c-0.4,0.5-0.9,0.8-1.3,1.4c-1.6,2.6-3.5,2.5-5.8,1.3
					c-2.5-1.3-5.2-1.9-7.8-2.8c-0.2-0.1-0.5,0.1-0.7,0.2C229.7,487.9,229.7,488.1,229.7,488.3z"/>
			</g>
		</g>
	</g>
	
		<line fill="none" stroke="#253270" stroke-width="6" stroke-linecap="round" stroke-miterlimit="10" x1="242.6" y1="252.8" x2="495.7" y2="387.9"/>
	<path fill="none" stroke="#253270" stroke-width="6" stroke-linecap="round" stroke-miterlimit="10" d="M450.5,538.4"/>
	<path fill="none" stroke="#253270" stroke-width="6" stroke-linecap="round" stroke-miterlimit="10" d="M382.1,538.4"/>
	<path fill="none" stroke="#253270" stroke-width="6" stroke-linecap="round" stroke-miterlimit="10" d="M452.1,463.1"/>
	<path fill="none" stroke="#253270" stroke-width="6" stroke-linecap="round" stroke-miterlimit="10" d="M363.5,462.3"/>
	
		<line fill="none" stroke="#253270" stroke-width="6" stroke-linecap="round" stroke-miterlimit="10" x1="267.3" y1="613.6" x2="495.7" y2="613.6"/>
	<g>
		<g>
			<path fill="none" stroke="#253270" stroke-width="6" stroke-linecap="round" stroke-linejoin="round" stroke-miterlimit="10" d="
				M644.2,237.5"/>
			
				<line fill="none" stroke="#253270" stroke-width="6" stroke-linecap="round" stroke-linejoin="round" stroke-miterlimit="10" x1="495.7" y1="463.1" x2="1142.5" y2="463.1"/>
			
				<line fill="none" stroke="#253270" stroke-width="6" stroke-linecap="round" stroke-linejoin="round" stroke-miterlimit="10" x1="495.7" y1="387.9" x2="1142.5" y2="387.9"/>
			
				<line fill="none" stroke="#253270" stroke-width="6" stroke-linecap="round" stroke-linejoin="round" stroke-miterlimit="10" x1="644.2" y1="312.7" x2="1142.5" y2="312.7"/>
			
				<line fill="none" stroke="#253270" stroke-width="6" stroke-linecap="round" stroke-linejoin="round" stroke-miterlimit="10" x1="495.7" y1="538.4" x2="1142.5" y2="538.4"/>
			<path fill="none" stroke="#253270" stroke-width="6" stroke-linecap="round" stroke-linejoin="round" stroke-miterlimit="10" d="
				M452.1,613.6"/>
			<path fill="none" stroke="#253270" stroke-width="6" stroke-linecap="round" stroke-linejoin="round" stroke-miterlimit="10" d="
				M495.7,387.9"/>
			
				<line fill="none" stroke="#253270" stroke-width="6" stroke-linecap="round" stroke-linejoin="round" stroke-miterlimit="10" x1="976.4" y1="312.7" x2="976.4" y2="613.6"/>
			
				<line fill="none" stroke="#253270" stroke-width="6" stroke-linecap="round" stroke-linejoin="round" stroke-miterlimit="10" x1="810.3" y1="312.7" x2="810.3" y2="613.6"/>
			
				<line fill="none" stroke="#253270" stroke-width="6" stroke-linecap="round" stroke-linejoin="round" stroke-miterlimit="10" x1="644.2" y1="312.7" x2="644.2" y2="613.6"/>
			
				<line fill="none" stroke="#253270" stroke-width="6" stroke-linecap="round" stroke-linejoin="round" stroke-miterlimit="10" x1="1142.5" y1="312.7" x2="1142.5" y2="613.6"/>
		</g>
	</g>
	<g>
		<rect x="666" y="259" fill="none" width="461.2" height="40.8"/>
		<text transform="matrix(1 0 0 1 702.1646 291.8969)" fill="#253270" font-family="'HelveticaNeue-Thin'" font-size="46.1278">Chemotherapy Drug</text>
	</g>
	<g>
		<rect x="692.7" y="331.4" fill="none" width="67.6" height="40.8"/>
		<text transform="matrix(1 0 0 1 711.567 364.2911)" fill="#253270" font-family="'HelveticaNeue'" font-size="46.1278">A</text>
	</g>
	<g>
		<rect x="859.9" y="331.4" fill="none" width="67.6" height="40.8"/>
		<text transform="matrix(1 0 0 1 877.916 364.2911)" fill="#253270" font-family="'HelveticaNeue'" font-size="46.1278">B</text>
	</g>
	<g>
		<rect x="1031.3" y="330.8" fill="none" width="67.6" height="40.8"/>
		<text transform="matrix(1 0 0 1 1048.4266 363.7766)" fill="#253270" font-family="'HelveticaNeue'" font-size="46.1278">C</text>
	</g>
	
		<line fill="none" stroke="#253270" stroke-width="6" stroke-linecap="round" stroke-linejoin="round" stroke-miterlimit="10" x1="495.7" y1="613.6" x2="1142.5" y2="613.6"/>
	<g>
		<path fill="#E82126" d="M692,451.9c0-0.5,0-1,0-1.5c0.1-0.3,0.3-0.5,0.4-0.8c10-16.8,20-33.6,30-50.4c0.5-0.8,1.1-1.3,2-1.6
			c0.1,0,0.3,0,0.4-0.2c0.5,0,0.9,0,1.4,0c1.1,0.4,2,1,2.6,2c10.1,16.8,20.3,33.6,30.4,50.4c0.5,0.9,0.7,1.7,0.2,2.6
			c-0.5,0.9-1.4,1.4-2.4,1.4c-20.9,0-41.9,0-62.8,0c-0.4,0-0.7-0.1-1-0.4C692.4,453,692.3,452.4,692,451.9z M702.4,446.8
			c15.6,0,31.2,0,46.9,0c-7.9-13.3-15.8-26.5-23.7-39.8C717.8,420.3,710.1,433.5,702.4,446.8z"/>
		<path fill="#FFFFFE" d="M702.4,446.8c7.7-13.2,15.4-26.5,23.2-39.8c7.9,13.3,15.8,26.5,23.7,39.8
			C733.6,446.8,718,446.8,702.4,446.8z M729.2,418.3c0.1-0.9-0.3-2-1.6-2.6c-1.2-0.6-2.5-0.7-3.8-0.1c-0.9,0.4-1.3,1.1-1.4,2
			c-0.1,0.6,0,1.1,0,1.7c0.2,3.5,0.4,6.9,0.6,10.4c0.1,1.5,0.2,3,0.5,4.5c0.3,1.5,1.9,2.8,3.6,1.6c0.8-0.5,1.1-1.3,1.2-2.2
			c0.1-1.4,0.2-2.9,0.2-4.3C728.8,425.6,729,422.2,729.2,418.3z M726.1,444.4c1.8,0,3.2-1.2,3.2-3.1c0.1-1.7-1.3-3.1-3-3.2
			c-1.9,0-3.4,1.3-3.4,3.1C722.8,442.9,724.3,444.3,726.1,444.4z"/>
		<path fill="#050505" d="M729.2,418.3c-0.2,3.9-0.4,7.4-0.6,10.8c-0.1,1.4-0.2,2.9-0.2,4.3c-0.1,0.9-0.4,1.7-1.2,2.2
			c-1.7,1.2-3.4-0.1-3.6-1.6c-0.3-1.5-0.4-3-0.5-4.5c-0.2-3.5-0.4-6.9-0.6-10.4c0-0.6-0.1-1.1,0-1.7c0.1-0.9,0.6-1.6,1.4-2
			c1.3-0.5,2.6-0.5,3.8,0.1C728.9,416.3,729.3,417.4,729.2,418.3z"/>
		<path fill="#050505" d="M726.1,444.4c-1.8,0-3.3-1.5-3.2-3.1c0-1.8,1.6-3.2,3.4-3.1c1.7,0,3.1,1.5,3,3.2
			C729.3,443.2,727.9,444.4,726.1,444.4z"/>
	</g>
	<g>
		<path fill="#E82126" d="M859.2,451.9c0-0.5,0-1,0-1.5c0.1-0.3,0.3-0.5,0.4-0.8c10-16.8,20-33.6,30-50.4c0.5-0.8,1.1-1.3,2-1.6
			c0.1,0,0.3,0,0.4-0.2c0.5,0,0.9,0,1.4,0c1.1,0.4,2,1,2.6,2c10.1,16.8,20.3,33.6,30.4,50.4c0.5,0.9,0.7,1.7,0.2,2.6
			c-0.5,0.9-1.4,1.4-2.4,1.4c-20.9,0-41.9,0-62.8,0c-0.4,0-0.7-0.1-1-0.4C859.7,453,859.5,452.4,859.2,451.9z M869.7,446.8
			c15.6,0,31.2,0,46.9,0c-7.9-13.3-15.8-26.5-23.7-39.8C885.1,420.3,877.4,433.5,869.7,446.8z"/>
		<path fill="#FFFFFE" d="M869.7,446.8c7.7-13.2,15.4-26.5,23.2-39.8c7.9,13.3,15.8,26.5,23.7,39.8
			C900.8,446.8,885.3,446.8,869.7,446.8z M896.5,418.3c0.1-0.9-0.4-2-1.6-2.6c-1.2-0.6-2.5-0.7-3.8-0.1c-0.9,0.4-1.3,1.1-1.4,2
			c-0.1,0.6,0,1.1,0,1.7c0.2,3.5,0.4,6.9,0.6,10.4c0.1,1.5,0.2,3,0.5,4.5c0.3,1.5,1.9,2.8,3.6,1.6c0.8-0.5,1.1-1.3,1.2-2.2
			c0.1-1.4,0.2-2.9,0.2-4.3C896.1,425.6,896.2,422.2,896.5,418.3z M893.3,444.4c1.8,0,3.2-1.2,3.2-3.1c0.1-1.7-1.3-3.1-3-3.2
			c-1.9,0-3.4,1.3-3.4,3.1C890.1,442.9,891.5,444.3,893.3,444.4z"/>
		<path fill="#050505" d="M896.5,418.3c-0.2,3.9-0.4,7.4-0.6,10.8c-0.1,1.4-0.2,2.9-0.2,4.3c-0.1,0.9-0.4,1.7-1.2,2.2
			c-1.7,1.2-3.4-0.1-3.6-1.6c-0.3-1.5-0.4-3-0.5-4.5c-0.2-3.5-0.4-6.9-0.6-10.4c0-0.6-0.1-1.1,0-1.7c0.1-0.9,0.6-1.6,1.4-2
			c1.3-0.5,2.6-0.5,3.8,0.1C896.1,416.3,896.6,417.4,896.5,418.3z"/>
		<path fill="#050505" d="M893.3,444.4c-1.8,0-3.3-1.5-3.2-3.1c0-1.8,1.6-3.2,3.4-3.1c1.7,0,3.1,1.5,3,3.2
			C896.5,443.2,895.2,444.4,893.3,444.4z"/>
	</g>
	<g>
		<path fill="#E82126" d="M692,526.3c0-0.5,0-1,0-1.5c0.1-0.3,0.3-0.5,0.4-0.8c10-16.8,20-33.6,30-50.4c0.5-0.8,1.1-1.3,2-1.6
			c0.1,0,0.3,0,0.4-0.2c0.5,0,0.9,0,1.4,0c1.1,0.4,2,1,2.6,2c10.1,16.8,20.3,33.6,30.4,50.4c0.5,0.9,0.7,1.7,0.2,2.6
			c-0.5,0.9-1.4,1.4-2.4,1.4c-20.9,0-41.9,0-62.8,0c-0.4,0-0.7-0.1-1-0.4C692.4,527.4,692.3,526.8,692,526.3z M702.4,521.1
			c15.6,0,31.2,0,46.9,0c-7.9-13.3-15.8-26.5-23.7-39.8C717.8,494.7,710.1,507.9,702.4,521.1z"/>
		<path fill="#FFFFFE" d="M702.4,521.1c7.7-13.2,15.4-26.5,23.2-39.8c7.9,13.3,15.8,26.5,23.7,39.8
			C733.6,521.1,718,521.1,702.4,521.1z M729.2,492.6c0.1-0.9-0.3-2-1.6-2.6c-1.2-0.6-2.5-0.7-3.8-0.1c-0.9,0.4-1.3,1.1-1.4,2
			c-0.1,0.6,0,1.1,0,1.7c0.2,3.5,0.4,6.9,0.6,10.4c0.1,1.5,0.2,3,0.5,4.5c0.3,1.5,1.9,2.8,3.6,1.6c0.8-0.5,1.1-1.3,1.2-2.2
			c0.1-1.4,0.2-2.9,0.2-4.3C728.8,500,729,496.5,729.2,492.6z M726.1,518.7c1.8,0,3.2-1.2,3.2-3.1c0.1-1.7-1.3-3.1-3-3.2
			c-1.9,0-3.4,1.3-3.4,3.1C722.8,517.3,724.3,518.7,726.1,518.7z"/>
		<path fill="#050505" d="M729.2,492.6c-0.2,3.9-0.4,7.4-0.6,10.8c-0.1,1.4-0.2,2.9-0.2,4.3c-0.1,0.9-0.4,1.7-1.2,2.2
			c-1.7,1.2-3.4-0.1-3.6-1.6c-0.3-1.5-0.4-3-0.5-4.5c-0.2-3.5-0.4-6.9-0.6-10.4c0-0.6-0.1-1.1,0-1.7c0.1-0.9,0.6-1.6,1.4-2
			c1.3-0.5,2.6-0.5,3.8,0.1C728.9,490.6,729.3,491.7,729.2,492.6z"/>
		<path fill="#050505" d="M726.1,518.7c-1.8,0-3.3-1.5-3.2-3.1c0-1.8,1.6-3.2,3.4-3.1c1.7,0,3.1,1.5,3,3.2
			C729.3,517.5,727.9,518.8,726.1,518.7z"/>
	</g>
	<g>
		<path fill="#E82126" d="M859.2,526.9c0-0.5,0-1,0-1.5c0.1-0.3,0.3-0.5,0.4-0.8c10-16.8,20-33.6,30-50.4c0.5-0.8,1.1-1.3,2-1.6
			c0.1,0,0.3,0,0.4-0.2c0.5,0,0.9,0,1.4,0c1.1,0.4,2,1,2.6,2c10.1,16.8,20.3,33.6,30.4,50.4c0.5,0.9,0.7,1.7,0.2,2.6
			c-0.5,0.9-1.4,1.4-2.4,1.4c-20.9,0-41.9,0-62.8,0c-0.4,0-0.7-0.1-1-0.4C859.7,528,859.5,527.4,859.2,526.9z M869.7,521.8
			c15.6,0,31.2,0,46.9,0c-7.9-13.3-15.8-26.5-23.7-39.8C885.1,495.3,877.4,508.6,869.7,521.8z"/>
		<path fill="#FFFFFE" d="M869.7,521.8c7.7-13.2,15.4-26.5,23.2-39.8c7.9,13.3,15.8,26.5,23.7,39.8
			C900.8,521.8,885.3,521.8,869.7,521.8z M896.5,493.3c0.1-0.9-0.4-2-1.6-2.6c-1.2-0.6-2.5-0.7-3.8-0.1c-0.9,0.4-1.3,1.1-1.4,2
			c-0.1,0.6,0,1.1,0,1.7c0.2,3.5,0.4,6.9,0.6,10.4c0.1,1.5,0.2,3,0.5,4.5c0.3,1.5,1.9,2.8,3.6,1.6c0.8-0.5,1.1-1.3,1.2-2.2
			c0.1-1.4,0.2-2.9,0.2-4.3C896.1,500.7,896.2,497.2,896.5,493.3z M893.3,519.4c1.8,0,3.2-1.2,3.2-3.1c0.1-1.7-1.3-3.1-3-3.2
			c-1.9,0-3.4,1.3-3.4,3.1C890.1,517.9,891.5,519.4,893.3,519.4z"/>
		<path fill="#050505" d="M896.5,493.3c-0.2,3.9-0.4,7.4-0.6,10.8c-0.1,1.4-0.2,2.9-0.2,4.3c-0.1,0.9-0.4,1.7-1.2,2.2
			c-1.7,1.2-3.4-0.1-3.6-1.6c-0.3-1.5-0.4-3-0.5-4.5c-0.2-3.5-0.4-6.9-0.6-10.4c0-0.6-0.1-1.1,0-1.7c0.1-0.9,0.6-1.6,1.4-2
			c1.3-0.5,2.6-0.5,3.8,0.1C896.1,491.3,896.6,492.4,896.5,493.3z"/>
		<path fill="#050505" d="M893.3,519.4c-1.8,0-3.3-1.5-3.2-3.1c0-1.8,1.6-3.2,3.4-3.1c1.7,0,3.1,1.5,3,3.2
			C896.5,518.2,895.2,519.4,893.3,519.4z"/>
	</g>
	<g>
		<path fill="#E82126" d="M692,600.6c0-0.5,0-1,0-1.5c0.1-0.3,0.3-0.5,0.4-0.8c10-16.8,20-33.6,30-50.4c0.5-0.8,1.1-1.3,2-1.6
			c0.1,0,0.3,0,0.4-0.2c0.5,0,0.9,0,1.4,0c1.1,0.4,2,1,2.6,2c10.1,16.8,20.3,33.6,30.4,50.4c0.5,0.9,0.7,1.7,0.2,2.6
			c-0.5,0.9-1.4,1.4-2.4,1.4c-20.9,0-41.9,0-62.8,0c-0.4,0-0.7-0.1-1-0.4C692.4,601.7,692.3,601.1,692,600.6z M702.4,595.5
			c15.6,0,31.2,0,46.9,0c-7.9-13.3-15.8-26.5-23.7-39.8C717.8,569,710.1,582.2,702.4,595.5z"/>
		<path fill="#FFFFFE" d="M702.4,595.5c7.7-13.2,15.4-26.5,23.2-39.8c7.9,13.3,15.8,26.5,23.7,39.8
			C733.6,595.5,718,595.5,702.4,595.5z M729.2,567c0.1-0.9-0.3-2-1.6-2.6c-1.2-0.6-2.5-0.7-3.8-0.1c-0.9,0.4-1.3,1.1-1.4,2
			c-0.1,0.6,0,1.1,0,1.7c0.2,3.5,0.4,6.9,0.6,10.4c0.1,1.5,0.2,3,0.5,4.5c0.3,1.5,1.9,2.8,3.6,1.6c0.8-0.5,1.1-1.3,1.2-2.2
			c0.1-1.4,0.2-2.9,0.2-4.3C728.8,574.4,729,570.9,729.2,567z M726.1,593.1c1.8,0,3.2-1.2,3.2-3.1c0.1-1.7-1.3-3.1-3-3.2
			c-1.9,0-3.4,1.3-3.4,3.1C722.8,591.6,724.3,593.1,726.1,593.1z"/>
		<path fill="#050505" d="M729.2,567c-0.2,3.9-0.4,7.4-0.6,10.8c-0.1,1.4-0.2,2.9-0.2,4.3c-0.1,0.9-0.4,1.7-1.2,2.2
			c-1.7,1.2-3.4-0.1-3.6-1.6c-0.3-1.5-0.4-3-0.5-4.5c-0.2-3.5-0.4-6.9-0.6-10.4c0-0.6-0.1-1.1,0-1.7c0.1-0.9,0.6-1.6,1.4-2
			c1.3-0.5,2.6-0.5,3.8,0.1C728.9,565,729.3,566.1,729.2,567z"/>
		<path fill="#050505" d="M726.1,593.1c-1.8,0-3.3-1.5-3.2-3.1c0-1.8,1.6-3.2,3.4-3.1c1.7,0,3.1,1.5,3,3.2
			C729.3,591.9,727.9,593.1,726.1,593.1z"/>
	</g>
	<g>
		<path fill="#E82126" d="M859.2,602c0-0.5,0-1,0-1.5c0.1-0.3,0.3-0.5,0.4-0.8c10-16.8,20-33.6,30-50.4c0.5-0.8,1.1-1.3,2-1.6
			c0.1,0,0.3,0,0.4-0.2c0.5,0,0.9,0,1.4,0c1.1,0.4,2,1,2.6,2c10.1,16.8,20.3,33.6,30.4,50.4c0.5,0.9,0.7,1.7,0.2,2.6
			c-0.5,0.9-1.4,1.4-2.4,1.4c-20.9,0-41.9,0-62.8,0c-0.4,0-0.7-0.1-1-0.4C859.7,603,859.5,602.5,859.2,602z M869.7,596.8
			c15.6,0,31.2,0,46.9,0c-7.9-13.3-15.8-26.5-23.7-39.8C885.1,570.3,877.4,583.6,869.7,596.8z"/>
		<path fill="#FFFFFE" d="M869.7,596.8c7.7-13.2,15.4-26.5,23.2-39.8c7.9,13.3,15.8,26.5,23.7,39.8
			C900.8,596.8,885.3,596.8,869.7,596.8z M896.5,568.3c0.1-0.9-0.4-2-1.6-2.6c-1.2-0.6-2.5-0.7-3.8-0.1c-0.9,0.4-1.3,1.1-1.4,2
			c-0.1,0.6,0,1.1,0,1.7c0.2,3.5,0.4,6.9,0.6,10.4c0.1,1.5,0.2,3,0.5,4.5c0.3,1.5,1.9,2.8,3.6,1.6c0.8-0.5,1.1-1.3,1.2-2.2
			c0.1-1.4,0.2-2.9,0.2-4.3C896.1,575.7,896.2,572.2,896.5,568.3z M893.3,594.4c1.8,0,3.2-1.2,3.2-3.1c0.1-1.7-1.3-3.1-3-3.2
			c-1.9,0-3.4,1.3-3.4,3.1C890.1,593,891.5,594.4,893.3,594.4z"/>
		<path fill="#050505" d="M896.5,568.3c-0.2,3.9-0.4,7.4-0.6,10.8c-0.1,1.4-0.2,2.9-0.2,4.3c-0.1,0.9-0.4,1.7-1.2,2.2
			c-1.7,1.2-3.4-0.1-3.6-1.6c-0.3-1.5-0.4-3-0.5-4.5c-0.2-3.5-0.4-6.9-0.6-10.4c0-0.6-0.1-1.1,0-1.7c0.1-0.9,0.6-1.6,1.4-2
			c1.3-0.5,2.6-0.5,3.8,0.1C896.1,566.3,896.6,567.4,896.5,568.3z"/>
		<path fill="#050505" d="M893.3,594.4c-1.8,0-3.3-1.5-3.2-3.1c0-1.8,1.6-3.2,3.4-3.1c1.7,0,3.1,1.5,3,3.2
			C896.5,593.2,895.2,594.5,893.3,594.4z"/>
	</g>
	<g>
		
			<line fill="#21B24B" stroke="#00B14C" stroke-width="8" stroke-linecap="round" stroke-miterlimit="10" x1="1035.6" y1="429.5" x2="1054.1" y2="448.8"/>
		
			<line fill="#21B24B" stroke="#00B14C" stroke-width="8" stroke-linecap="round" stroke-miterlimit="10" x1="1087.4" y1="401.9" x2="1054.1" y2="448.8"/>
	</g>
	<g>
		
			<line fill="#21B24B" stroke="#00B14C" stroke-width="8" stroke-linecap="round" stroke-miterlimit="10" x1="1035.6" y1="504.3" x2="1054.1" y2="523.5"/>
		
			<line fill="#21B24B" stroke="#00B14C" stroke-width="8" stroke-linecap="round" stroke-miterlimit="10" x1="1087.4" y1="476.6" x2="1054.1" y2="523.5"/>
	</g>
	<g>
		
			<line fill="#21B24B" stroke="#00B14C" stroke-width="8" stroke-linecap="round" stroke-miterlimit="10" x1="1035.6" y1="579" x2="1054.1" y2="598.3"/>
		
			<line fill="#21B24B" stroke="#00B14C" stroke-width="8" stroke-linecap="round" stroke-miterlimit="10" x1="1087.4" y1="551.4" x2="1054.1" y2="598.3"/>
	</g>
	<g>
		<rect x="476.5" y="409.5" fill="none" width="172.7" height="34.9"/>
		<text transform="matrix(1 0 0 1 506.4362 442.4603)" fill="#253270" font-family="'HelveticaNeue'" font-size="46.1278">Heart</text>
	</g>
	<g>
		<rect x="477.5" y="484.5" fill="none" width="172.7" height="34.9"/>
		<text transform="matrix(1 0 0 1 503.2428 517.4379)" fill="#253270" font-family="'HelveticaNeue'" font-size="46.1278">Nerve</text>
	</g>
	<g>
		<rect x="477.5" y="557.6" fill="none" width="172.7" height="34.9"/>
		<text transform="matrix(1 0 0 1 509.6305 590.5326)" fill="#253270" font-family="'HelveticaNeue'" font-size="46.1278">Bone</text>
	</g>
	
		<line fill="none" stroke="#253270" stroke-width="6" stroke-linecap="round" stroke-miterlimit="10" x1="242.6" y1="252.8" x2="495.7" y2="463.1"/>
	
		<line fill="none" stroke="#253270" stroke-width="6" stroke-linecap="round" stroke-miterlimit="10" x1="267.3" y1="613.6" x2="495.7" y2="538.4"/>
</g>
<g>
	<path fill="none" d="M1011,178.4H451c-10.4,0-19-3.6-19-8V30.7c0-4.4,8.5-8,19-8h560c10.4,0,19,3.6,19,8v139.8
		C1030,174.8,1021.4,178.4,1011,178.4z"/>
	<text transform="matrix(1 0 0 1 520.5125 79.7867)"><tspan x="0" y="0" fill="#253270" font-family="'HelveticaNeue-Thin'" font-size="80">Personalized </tspan><tspan x="-34.1" y="96" fill="#253270" font-family="'HelveticaNeue-Thin'" font-size="80">Toxicity Report</tspan></text>
</g>
<line fill="none" stroke="#253270" stroke-width="6" stroke-linecap="round" stroke-miterlimit="10" x1="397.2" y1="505.4" x2="495.7" y2="463.1"/>
<line fill="none" stroke="#253270" stroke-width="6" stroke-linecap="round" stroke-miterlimit="10" x1="397.2" y1="505.4" x2="495.7" y2="538.4"/>
</svg>
