<?xml version="1.0" encoding="utf-8"?>
<!-- Generator: Adobe Illustrator 18.0.0, SVG Export Plug-In . SVG Version: 6.00 Build 0)  -->
<!DOCTYPE svg PUBLIC "-//W3C//DTD SVG 1.1//EN" "http://www.w3.org/Graphics/SVG/1.1/DTD/svg11.dtd">
<svg version="1.1" id="Layer_30" xmlns="http://www.w3.org/2000/svg" xmlns:xlink="http://www.w3.org/1999/xlink" x="0px" y="0px"
	 viewBox="0 0 100 100" enable-background="new 0 0 100 100" xml:space="preserve">
<g>
	<g>
		<g>
			<path fill="#4667B1" d="M97.1,51h-4.2V29c0-0.9-0.6-1.6-1.4-1.6c-0.5,0-54.7,0.9-73.7,0c-2.3-0.1-7.9-0.8-9.9-4.7
				c-1.3-2.5-0.8-5.5,1.4-9.1l3.6,2.2c-0.9,1.5-1.9,3.5-1.2,4.8c0.8,1.5,3.8,2.3,6.4,2.4c18.8,0.9,72.9,0,73.4,0
				c3.1,0,5.6,2.6,5.6,5.9L97.1,51L97.1,51z"/>
		</g>
		<g>
			<path fill="#4667B1" d="M17.4,93.9c-1.8,0-7.6-0.3-11.9-4.4C2.2,86.4,0.5,82,0.5,76.4V27.5C0.4,26.5,0,21.1,3.7,16.8
				c3.1-3.6,8-5.4,14.6-5.4v4.2C13,15.7,9.2,17,7,19.6c-2.8,3.2-2.2,7.5-2.2,7.5l0,0.3v49c0,4.4,1.2,7.7,3.6,10
				c3.8,3.6,9.4,3.3,9.5,3.3l73.7,0c0.8,0,1.4-0.7,1.4-1.6V66.9h4.2V88c0,3.2-2.5,5.9-5.6,5.9H17.9C17.9,93.9,17.7,93.9,17.4,93.9z"
				/>
		</g>
		<g>
			<path fill="#4667B1" d="M85.3,19.7h-4.2v-2.4c0-0.9-0.6-1.6-1.4-1.6H51.5v-4.2h28.2c3.1,0,5.6,2.6,5.6,5.9
				C85.3,17.3,85.3,19.7,85.3,19.7z"/>
		</g>
		<g>
			<g>
				<path fill="#4667B1" d="M87.9,18.8C65.5,14.3,43.1,9.7,20.7,5.2c-1-0.2-2.4,0.3-2.6,1.5c-0.7,4.3-1.3,8.6-1.9,12.8
					c-0.4,2.7,3.7,3.8,4.1,1.1c0.6-4.3,1.3-8.6,1.9-12.8c-0.9,0.5-1.7,1-2.6,1.5c22.4,4.5,44.8,9.1,67.2,13.6
					C89.4,23.4,90.6,19.4,87.9,18.8L87.9,18.8z"/>
			</g>
		</g>
		<g>
			<g>
				<path fill="#4667B1" d="M51.1,19.3c-6.8-1.5-13.5-3-20.3-4.4c-1.1-0.2-2.3,0.3-2.6,1.5c-0.4,1.6-0.7,3.1-1.1,4.7
					c-0.6,2.7,3.5,3.8,4.1,1.1c0.4-1.6,0.7-3.1,1.1-4.7c-0.9,0.5-1.7,1-2.6,1.5c6.8,1.5,13.5,3,20.3,4.4
					C52.6,24,53.8,19.9,51.1,19.3L51.1,19.3z"/>
			</g>
		</g>
	</g>
	<g>
		<path fill="#4667B1" d="M95.4,68H78c-4.3,0-4.8-2.8-4.8-4.1V53.5c0-1.2,0.5-4.1,4.8-4.1h17.4c4.3,0,4.8,2.8,4.8,4.1v10.4
			C100.2,65.1,99.7,68,95.4,68z M77.1,64c0.1,0,0.4,0.1,0.9,0.1h17.4c0.5,0,0.7,0,0.9-0.1c0,0,0,0,0-0.1V53.5c0,0,0-0.1,0-0.1
			c-0.1,0-0.4-0.1-0.9-0.1H78c-0.5,0-0.7,0-0.9,0.1c0,0,0,0.1,0,0.1L77.1,64C77.1,63.9,77.1,63.9,77.1,64z"/>
	</g>
</g>
</svg>
