<?xml version="1.0" encoding="utf-8"?>
<!-- Generator: Adobe Illustrator 16.0.0, SVG Export Plug-In . SVG Version: 6.00 Build 0)  -->
<!DOCTYPE svg PUBLIC "-//W3C//DTD SVG 1.1//EN" "http://www.w3.org/Graphics/SVG/1.1/DTD/svg11.dtd">
<svg version="1.1" id="Layer_1" xmlns="http://www.w3.org/2000/svg" xmlns:xlink="http://www.w3.org/1999/xlink" x="0px" y="0px"
	 width="150px" height="150px" viewBox="0 0 150 150" enable-background="new 0 0 150 150" xml:space="preserve">
<g opacity="0.9">
	<path fill="#6FB3D1" d="M29.755,133.644c-10.636,0-20.389-7.12-23.247-17.87C3.105,102.963,10.76,89.77,23.57,86.364
		c5.674-1.511,11.436-0.845,16.377,1.479l17.634-30.396L59,58.271c-3.442-3.091-5.921-7.117-7.139-11.693
		c-1.648-6.208-0.782-12.686,2.441-18.238c3.223-5.555,8.416-9.521,14.623-11.169c6.207-1.644,12.681-0.782,18.238,2.439
		c5.553,3.223,9.521,8.415,11.17,14.622s0.783,12.685-2.44,18.237c-0.967,1.665-2.107,3.187-3.403,4.546l17.563,30.269
		c4.941-2.32,10.692-2.982,16.376-1.479c12.813,3.406,20.466,16.6,17.062,29.41c-3.404,12.81-16.584,20.47-29.408,17.062
		c-12.811-3.406-20.466-16.598-17.063-29.41l0,0c1.51-5.679,4.945-10.347,9.417-13.484L89.285,59.827
		c-2.377,1.736-5.084,3.034-8.015,3.812c-6.205,1.646-12.683,0.784-18.235-2.438c-0.703-0.408-1.382-0.849-2.031-1.315
		L43.566,89.941c4.472,3.14,7.906,7.804,9.415,13.484l0,0c3.403,12.811-4.251,26.004-17.062,29.41
		C33.861,133.382,31.791,133.644,29.755,133.644z M29.741,89.74c-1.684,0-3.396,0.215-5.097,0.669
		c-5.127,1.361-9.416,4.638-12.078,9.226c-2.66,4.587-3.376,9.938-2.014,15.064c2.812,10.582,13.725,16.902,24.292,14.094
		c10.581-2.812,16.904-13.711,14.092-24.293l0,0C46.577,95.619,38.524,89.74,29.741,89.74z M101.065,103.94
		c-2.813,10.583,3.511,21.482,14.094,24.293c10.582,2.815,21.477-3.509,24.288-14.092c2.814-10.58-3.507-21.479-14.093-24.292
		C114.755,87.033,103.874,93.362,101.065,103.94L101.065,103.94z M75.133,20.539c-1.712,0-3.434,0.223-5.133,0.676
		c-5.127,1.36-9.417,4.637-12.08,9.225c-2.662,4.587-3.377,9.938-2.014,15.062c1.361,5.128,4.638,9.417,9.227,12.079
		c4.589,2.66,9.933,3.38,15.064,2.014c5.126-1.36,9.415-4.637,12.079-9.226c2.661-4.586,3.375-9.937,2.014-15.062
		c-1.363-5.126-4.64-9.416-9.227-12.077C81.995,21.449,78.586,20.539,75.133,20.539z"/>
</g>
</svg>
