<?xml version="1.0" encoding="utf-8"?>
<!-- Generator: Adobe Illustrator 18.0.0, SVG Export Plug-In . SVG Version: 6.00 Build 0)  -->
<!DOCTYPE svg PUBLIC "-//W3C//DTD SVG 1.1//EN" "http://www.w3.org/Graphics/SVG/1.1/DTD/svg11.dtd">
<svg version="1.1" id="Layer_1" xmlns="http://www.w3.org/2000/svg" xmlns:xlink="http://www.w3.org/1999/xlink" x="0px" y="0px"
	 viewBox="0 0 1251.1 296" enable-background="new 0 0 1251.1 296" xml:space="preserve">
<g>
	<g>
		<path fill="#FFFFFF" d="M66.9,141.9c-34.2,0-60.8-28.8-60.8-65.5S32.7,11,66.9,11c28.4,0,49.4,16.1,57.1,41.8H98.2
			c-5.6-11.4-16.8-19.9-31.3-19.9C46.3,32.9,30,52.8,30,76.5c0,23.9,16.3,43.8,36.9,43.8c14.3,0,25.7-8.9,31.3-20.3h25.7
			C115.9,125.5,94.8,141.9,66.9,141.9z"/>
		<path fill="#FFFFFF" d="M232.4,139.8h-23.9v-53h-44.7v53h-24V14.3h24v50.3h44.7V14.3h23.9V139.8z"/>
		<path fill="#FFFFFF" d="M279,65.8h50.8v22.2H279v12.1c0,11.6,4.5,16.1,15.9,16.1H339v23.5h-44.3c-25.9,0-39.6-15.9-39.6-40V54.2
			c0-24,13.7-40,39.6-40H339v23.5h-44.1c-11.4,0-15.9,4.3-15.9,15.9V65.8z"/>
		<path fill="#FFFFFF" d="M515.2,139.8h-23.9V56.1c0-11.9-8.7-21.5-21.7-21.5c-13.2,0-21.3,9.6-21.3,21.5v83.7h-24V56.1
			c0-11.9-8.5-21.5-21.5-21.5c-13.2,0-21.7,9.6-21.7,21.5v83.7h-23.7V56.4c0-25.1,18.6-45.2,45.4-45.2c13.9,0,25.7,6.3,33.5,16.3
			c7.6-9.9,19.7-16.3,33.5-16.3c26.9,0,45.6,20.1,45.6,45.2V139.8z"/>
		<path fill="#FFFFFF" d="M654.9,76.5c0,36.5-25.9,65.5-61.3,65.5c-35.6,0-61.5-28.9-61.5-65.5c0-36.3,25.9-65.3,61.5-65.3
			C629.1,11.2,654.9,40.1,654.9,76.5z M630.9,76.5c0-23.3-16.6-42.7-37.2-42.7c-20.8,0-37.4,19.3-37.4,42.7
			c0,23.5,16.6,42.9,37.4,42.9C614.2,119.3,630.9,100,630.9,76.5z"/>
		<path fill="#FFFFFF" d="M666.9,76.5c0-36.7,26.8-65.5,60.9-65.5c27.8,0,49,15.9,57,41.8h-25.7c-6-11.8-16.8-19.9-31.3-19.9
			c-20.8,0-37.1,19.9-37.1,43.6c0,23.9,16.3,43.8,37.1,43.8c17.9,0,30.9-12.8,34.4-28h-31.1V70h57.3c1.4,44.1-24.8,72-60.6,72
			C693.6,141.9,666.9,113.2,666.9,76.5z"/>
		<path fill="#FFFFFF" d="M818.4,129.3c-8.1-8.3-12.7-19.9-12.7-32.7V14.3h23.9v82.6c0,13.6,8.1,21.7,21.5,21.7
			c13.6,0,21.7-8.1,21.7-21.7V14.3h23.9v82.3c0,12.8-4.5,24.4-12.7,32.7c-8.3,8.1-19.9,12.7-32.9,12.7
			C838.3,141.9,826.7,137.4,818.4,129.3z"/>
		<path fill="#FFFFFF" d="M1009,139.8h-23.9v-35.1h-43.2v35.1H918V56.6c0-12.8,4.5-24.4,12.7-32.5c8.3-8.3,19.9-12.8,32.7-12.8
			c13,0,24.6,4.5,32.9,12.8c8.1,8.1,12.7,19.7,12.7,32.5V139.8z M985.1,56.1c0-13.4-8.1-21.5-21.7-21.5c-13.4,0-21.5,8.1-21.5,21.5
			v25.7h43.2V56.1z"/>
		<path fill="#FFFFFF" d="M1117.3,139.8h-23.9v-36.9c0-4.9-3.1-8.3-8.3-8.3h-29.8v45.2h-24V55.7c0-11.9,4.3-23.1,11.9-31.3
			c8.1-8.5,19.5-13.2,32.2-13.2c25,0,44.3,18.4,44.3,40.5c0,13.2-5.1,23-13,29.5c6.7,4.2,10.7,10.8,10.7,20.6V139.8z M1095.6,53.3
			c0-10.8-8.1-19.2-19.9-19.2c-13.4,0-20.4,9.9-20.4,21.5v17h20.6C1088.5,72.7,1095.6,65.1,1095.6,53.3z"/>
		<path fill="#FFFFFF" d="M1187.3,139.8h-46.5V14.3h46.5c34.9,0,56.6,24,56.6,62.7C1243.9,115.4,1221.6,139.8,1187.3,139.8z
			 M1187.3,36.5h-22.6v81h22.6c28.4,0,32.7-25.5,32.7-40.7C1220,58.4,1214.2,36.5,1187.3,36.5z"/>
	</g>
	<g>
		<path fill="#FFFFFF" d="M184.2,284.2H145v-109h39.3c30.5,0,48.5,20.3,48.5,54.3C232.8,263.2,214.2,284.2,184.2,284.2z
			 M184.2,181.1h-33.5v97.4h33.5c26.7,0,42.7-18.4,42.7-48.8C227,198.6,211.4,181.1,184.2,181.1z"/>
		<path fill="#FFFFFF" d="M257,284.2h-5.8v-109h5.8V284.2z"/>
		<path fill="#FFFFFF" d="M291.8,246.7l-14.4,37.5h-6.3l41.8-109h6.4l41.8,109h-6.3l-14.4-37.5H291.8z M316,183.3l-22,57.6h44.1
			L316,183.3z"/>
		<path fill="#FFFFFF" d="M469.6,284.2h-5.8v-29.7c-7.9,19.5-25,31.6-47,31.6c-29.7,0-53.9-25.4-53.9-56.9
			c0-31.3,24.2-56.7,53.9-56.7c24.2,0,42.9,13.7,50.6,36.3h-6.3c-7.2-19-23.4-30.5-44.3-30.5c-26.5,0-48.1,22.9-48.1,50.9
			c0,28.3,21.5,51,48.1,51c25.8,0,44.4-18.8,46.8-46.2h-45.7v-5.8h51.7V284.2z"/>
		<path fill="#FFFFFF" d="M575.8,284.2h-6.6L496.3,184v100.2h-5.8v-109h6.6L570,275.5V175.2h5.8V284.2z"/>
		<path fill="#FFFFFF" d="M701.3,229.3c0,31.4-24.2,56.9-53.9,56.9c-29.7,0-53.9-25.4-53.9-56.9c0-31.3,24.2-56.7,53.9-56.7
			C677.7,172.6,701.3,197.4,701.3,229.3z M695.3,229.3c0-28.6-21-50.9-47.9-50.9c-26.5,0-48.1,22.9-48.1,50.9
			c0,28.3,21.5,51,48.1,51C673.9,280.3,695.3,257.4,695.3,229.3z"/>
		<path fill="#FFFFFF" d="M786.8,204.6H781c0-16-12.1-26.5-30.8-26.5c-18.7,0-31.1,9.4-31.1,23.4c0,11.9,9.1,18.4,32.4,23.1
			c24.5,5,38.6,11.6,38.6,30.5c0,19-15.9,31.3-40.4,31.3c-19,0-39.4-11.2-39.4-35.2h5.8c0,20.1,17,29.2,33.6,29.2
			c21.4,0,34.6-9.6,34.6-25.3c0-13.5-8.5-19.6-33.9-24.8c-19.3-3.8-37.1-10.1-37.1-28.7c0-17.4,14.8-29.1,36.9-29.1
			C775.5,172.4,786.8,188.6,786.8,204.6z"/>
		<path fill="#FFFFFF" d="M836,181.1v103.2h-5.8V181.1h-36.6v-5.8h79.2v5.8H836z"/>
		<path fill="#FFFFFF" d="M893,284.2h-5.8v-109h5.8V284.2z"/>
		<path fill="#FFFFFF" d="M965.3,286.1c-29.8,0-53.9-25.4-53.9-56.9c0-31.3,24-56.7,53.9-56.7c23.4,0,42.9,14.9,50.4,36.3h-6.3
			c-7.2-18.1-24-30.5-44.1-30.5c-26.5,0-48.1,22.9-48.1,50.9c0,28.3,21.5,51,48.1,51c19.6,0,36.4-12.6,44-30.6h6.3
			C1007.7,271.1,988,286.1,965.3,286.1z"/>
		<path fill="#FFFFFF" d="M1101.7,204.6h-5.8c0-16-12.1-26.5-30.8-26.5c-18.7,0-31.1,9.4-31.1,23.4c0,11.9,9.1,18.4,32.4,23.1
			c24.5,5,38.6,11.6,38.6,30.5c0,19-15.9,31.3-40.4,31.3c-19,0-39.4-11.2-39.4-35.2h5.8c0,20.1,17,29.2,33.6,29.2
			c21.4,0,34.6-9.6,34.6-25.3c0-13.5-8.5-19.6-33.9-24.8c-19.3-3.8-37.1-10.1-37.1-28.7c0-17.4,14.8-29.1,36.9-29.1
			C1090.4,172.4,1101.7,188.6,1101.7,204.6z"/>
	</g>
</g>
</svg>
